<svg width="104" height="50" viewBox="0 0 104 50" fill="none" xmlns="http://www.w3.org/2000/svg">
<rect x="0.310074" y="0.310074" width="103.32" height="48.5301" rx="4.65111" fill="white" stroke="#D8D8D8" stroke-width="0.620149"/>
<rect x="77.3516" y="27.3954" width="23.3665" height="4.83445" rx="1.2403" fill="#97B9EC"/>
<rect x="10.4746" y="27.3948" width="61.2363" height="4.83445" rx="1.2403" fill="#97B9EC"/>
<rect x="10.4746" y="36.2581" width="26.2246" height="5.12717" rx="1.2403" fill="#97B9EC"/>
<rect x="10.4766" y="22.4735" width="17.6394" height="1.21651" transform="rotate(-90 10.4766 22.4735)" fill="#97B9EC"/>
<rect x="12.3008" y="22.4734" width="17.6394" height="0.608259" transform="rotate(-90 12.3008 22.4734)" fill="#97B9EC"/>
<rect x="15.3418" y="22.4734" width="17.6394" height="1.21651" transform="rotate(-90 15.3418 22.4734)" fill="#97B9EC"/>
<rect x="17.166" y="22.4731" width="17.6394" height="0.608259" transform="rotate(-90 17.166 22.4731)" fill="#97B9EC"/>
<rect x="18.3828" y="22.4727" width="17.6394" height="1.21651" transform="rotate(-90 18.3828 22.4727)" fill="#97B9EC"/>
<rect x="20.207" y="22.4733" width="17.6394" height="1.82477" transform="rotate(-90 20.207 22.4733)" fill="#97B9EC"/>
<rect x="23.8574" y="22.4729" width="17.6394" height="0.608259" transform="rotate(-90 23.8574 22.4729)" fill="#97B9EC"/>
<rect x="26.291" y="22.4728" width="17.6394" height="0.608259" transform="rotate(-90 26.291 22.4728)" fill="#97B9EC"/>
<rect x="27.5059" y="22.4731" width="17.6394" height="1.82477" transform="rotate(-90 27.5059 22.4731)" fill="#97B9EC"/>
<rect x="30.5488" y="22.4733" width="17.6394" height="0.608259" transform="rotate(-90 30.5488 22.4733)" fill="#97B9EC"/>
<rect x="32.373" y="22.4731" width="17.6394" height="1.82477" transform="rotate(-90 32.373 22.4731)" fill="#97B9EC"/>
<rect x="35.4141" y="22.4731" width="17.6394" height="1.21651" transform="rotate(-90 35.4141 22.4731)" fill="#97B9EC"/>
<rect x="37.2383" y="22.4729" width="17.6394" height="0.608259" transform="rotate(-90 37.2383 22.4729)" fill="#97B9EC"/>
<rect x="39.0645" y="22.4735" width="17.6394" height="1.82477" transform="rotate(-90 39.0645 22.4735)" fill="#97B9EC"/>
<rect x="41.4961" y="22.4735" width="17.6394" height="1.21651" transform="rotate(-90 41.4961 22.4735)" fill="#97B9EC"/>
<rect x="43.9297" y="22.4734" width="17.6394" height="0.608259" transform="rotate(-90 43.9297 22.4734)" fill="#97B9EC"/>
<rect x="45.7539" y="22.4731" width="17.6394" height="1.82477" transform="rotate(-90 45.7539 22.4731)" fill="#97B9EC"/>
<rect x="48.1875" y="22.4731" width="17.6394" height="1.21651" transform="rotate(-90 48.1875 22.4731)" fill="#97B9EC"/>
<rect x="50.6211" y="22.473" width="17.6394" height="0.608259" transform="rotate(-90 50.6211 22.473)" fill="#97B9EC"/>
<rect x="62.1777" y="22.4734" width="17.6394" height="0.608259" transform="rotate(-90 62.1777 22.4734)" fill="#97B9EC"/>
<rect x="52.4453" y="22.4729" width="17.6394" height="1.82477" transform="rotate(-90 52.4453 22.4729)" fill="#97B9EC"/>
<rect x="64.002" y="22.4731" width="17.6394" height="1.82477" transform="rotate(-90 64.002 22.4731)" fill="#97B9EC"/>
<rect x="54.8789" y="22.4728" width="17.6394" height="1.21651" transform="rotate(-90 54.8789 22.4728)" fill="#97B9EC"/>
<rect x="66.4355" y="22.4731" width="17.6394" height="1.21651" transform="rotate(-90 66.4355 22.4731)" fill="#97B9EC"/>
<rect x="57.3105" y="22.4735" width="17.6394" height="1.82477" transform="rotate(-90 57.3105 22.4735)" fill="#97B9EC"/>
<rect x="68.8672" y="22.473" width="17.6394" height="1.82477" transform="rotate(-90 68.8672 22.473)" fill="#97B9EC"/>
<rect x="60.3516" y="22.4728" width="17.6394" height="0.608259" transform="rotate(-90 60.3516 22.4728)" fill="#97B9EC"/>
<rect x="71.9102" y="22.4733" width="17.6394" height="0.608259" transform="rotate(-90 71.9102 22.4733)" fill="#97B9EC"/>
</svg>
