<svg width="106" height="122" viewBox="0 0 106 122" fill="none" xmlns="http://www.w3.org/2000/svg">
<rect x="0.47132" y="21.3877" width="80.8145" height="103.135" rx="5.77247" transform="rotate(-15 0.47132 21.3877)" fill="white" stroke="#D8D8D8" stroke-width="0.769662"/>
<rect x="9.67969" y="30.4742" width="19.2416" height="20.0112" rx="1.53932" transform="rotate(-15 9.67969 30.4742)" fill="#97B9EC"/>
<rect x="50.4551" y="90.4646" width="44.6404" height="14.6236" rx="1.53932" transform="rotate(-15 50.4551 90.4646)" fill="#97B9EC"/>
<rect x="32.7266" y="24.2991" width="44.6404" height="6.1573" rx="1.53932" transform="rotate(-15 32.7266 24.2991)" fill="#97B9EC"/>
<rect x="36.3105" y="37.6812" width="44.6404" height="6.1573" rx="1.53932" transform="rotate(-15 36.3105 37.6812)" fill="#97B9EC"/>
<rect x="16.8496" y="57.2383" width="68.4999" height="6.1573" rx="1.53932" transform="rotate(-15 16.8496 57.2383)" fill="#97B9EC"/>
<rect x="20.4355" y="70.62" width="68.4999" height="6.1573" rx="1.53932" transform="rotate(-15 20.4355 70.62)" fill="#97B9EC"/>
<rect x="23.8223" y="83.2588" width="68.4999" height="6.1573" rx="1.53932" transform="rotate(-15 23.8223 83.2588)" fill="#97B9EC"/>
<rect x="27.4082" y="96.6404" width="19.2416" height="14.6236" rx="1.53932" transform="rotate(-15 27.4082 96.6404)" fill="#97B9EC"/>
</svg>
