<svg width="24" height="24" viewBox="0 0 24 24" fill="none" xmlns="http://www.w3.org/2000/svg">
<path d="M19.85 7.25036L9.24997 17.8504C9.15609 17.945 9.02829 17.9983 8.89497 17.9983C8.76166 17.9983 8.63386 17.945 8.53997 17.8504L3.14997 12.4604C3.05532 12.3665 3.00208 12.2387 3.00208 12.1054C3.00208 11.972 3.05532 11.8442 3.14997 11.7504L3.84997 11.0504C3.94386 10.9557 4.07166 10.9025 4.20497 10.9025C4.33829 10.9025 4.46609 10.9557 4.55997 11.0504L8.88997 15.3804L18.44 5.83036C18.6378 5.63858 18.9522 5.63858 19.15 5.83036L19.85 6.54036C19.9446 6.63424 19.9979 6.76204 19.9979 6.89536C19.9979 7.02868 19.9446 7.15648 19.85 7.25036Z" fill="#5D5F60"/>
</svg>
