<svg width="34" height="30" viewBox="0 0 34 30" fill="none" xmlns="http://www.w3.org/2000/svg">
    <path d="M33.1832 12.85L20.8166 0.483333C20.5062 0.175426 20.0872 0.00184104 19.6499 0H14.3499C13.9127 0.00184104 13.4937 0.175426 13.1833 0.483333L0.816585 12.85C0.508678 13.1604 0.335093 13.5794 0.333252 14.0167L0.333252 15.8333C0.333252 16.2936 0.706348 16.6667 1.16659 16.6667H3.66659L3.66659 28.3333C3.66659 29.2538 4.41278 30 5.33325 30H10.3333C11.2537 30 11.9999 29.2538 11.9999 28.3333L11.9999 19.1667C11.9999 18.7064 12.373 18.3333 12.8333 18.3333H21.1666C21.6268 18.3333 21.9999 18.7064 21.9999 19.1667L21.9999 28.3333C21.9999 29.2538 22.7461 30 23.6666 30H28.6666C29.5871 30 30.3333 29.2538 30.3333 28.3333L30.3333 16.6667H32.8333C33.2935 16.6667 33.6666 16.2936 33.6666 15.8333L33.6666 14.0167C33.6647 13.5794 33.4912 13.1604 33.1832 12.85Z" fill="white"/>
</svg>
