<svg width="24" height="24" viewBox="0 0 24 24" fill="none" xmlns="http://www.w3.org/2000/svg">
<path fill-rule="evenodd" clip-rule="evenodd" d="M6.42 9.99957C6.28441 10.0015 6.15408 9.94722 6.06 9.84957L5.86 9.64957C5.76534 9.55568 5.7121 9.42788 5.7121 9.29457C5.7121 9.16125 5.76534 9.03345 5.86 8.93957L11.65 3.14957C11.7407 3.05289 11.8674 2.99805 12 2.99805C12.1326 2.99805 12.2593 3.05289 12.35 3.14957L18.14 8.93957C18.2347 9.03345 18.2879 9.16125 18.2879 9.29457C18.2879 9.42788 18.2347 9.55568 18.14 9.64957L17.94 9.84957C17.8459 9.94722 17.7156 10.0015 17.58 9.99957H15V15.4996C15 15.7757 14.7761 15.9996 14.5 15.9996H9.5C9.22386 15.9996 9 15.7757 9 15.4996V9.99957H6.42ZM19 19.4996V18.4996C19 18.2234 18.7761 17.9996 18.5 17.9996H5.5C5.22386 17.9996 5 18.2234 5 18.4996V19.4996C5 19.7757 5.22386 19.9996 5.5 19.9996H18.5C18.7761 19.9996 19 19.7757 19 19.4996Z" fill="#5D5F60"/>
</svg>
