<svg width="30" height="30" viewBox="0 0 30 30" fill="none" xmlns="http://www.w3.org/2000/svg">
    <path fill-rule="evenodd" clip-rule="evenodd" d="M3.33333 0H26.6667C28.5076 0 30 1.49238 30 3.33333L30 26.6667C30 28.5076 28.5076 30 26.6667 30H3.33333C1.49238 30 -1.71557e-08 28.5076 -1.60478e-08 26.6667L-2.00592e-09 3.33333C-8.98082e-10 1.49238 1.49238 0 3.33333 0ZM12.8833 20.5833L22.25 11.2167C22.5569 10.8947 22.5569 10.3886 22.25 10.0667L21.3667 9.18333C21.0426 8.86571 20.524 8.86571 20.2 9.18333L12.3 17.0833L9.8 14.6C9.64878 14.4389 9.43764 14.3475 9.21667 14.3475C8.99569 14.3475 8.78455 14.4389 8.63333 14.6L7.75 15.4833C7.59224 15.6398 7.5035 15.8528 7.5035 16.075C7.5035 16.2972 7.59224 16.5102 7.75 16.6667L11.7167 20.5833C11.8679 20.7445 12.079 20.8359 12.3 20.8359C12.521 20.8359 12.7321 20.7445 12.8833 20.5833Z" fill="white"/>
</svg>
