<svg width="24" height="24" viewBox="0 0 24 24" fill="none" xmlns="http://www.w3.org/2000/svg">
<path d="M18.5 5L5.5 5C4.67156 5 4 5.67156 4 6.5L4 17.5C4 18.3284 4.67156 19 5.5 19H18.5C19.3284 19 20 18.3284 20 17.5V6.5C20 5.67156 19.3284 5 18.5 5ZM11.25 17.5H5.6875C5.63777 17.5 5.59008 17.4802 5.55492 17.4451C5.51975 17.4099 5.5 17.3622 5.5 17.3125L5.5 7.5H11.25V17.5ZM18.3125 17.5H12.75V7.5L18.5 7.5V17.3125C18.5 17.3622 18.4802 17.4099 18.4451 17.4451C18.4099 17.4802 18.3622 17.5 18.3125 17.5Z" fill="white"/>
</svg>
