<svg xmlns="http://www.w3.org/2000/svg" width="24" height="24" viewBox="0 0 24 24">
  <g fill="none" fill-rule="evenodd" stroke="#003ED0" stroke-linecap="round" stroke-linejoin="round" stroke-width="2" transform="translate(4 2)">
    <path d="M12,2 L14,2 C14.5304,2 15.0391,2.21071 15.4142,2.58579 C15.7893,2.96086 16,3.46957 16,4 L16,18 C16,18.5304 15.7893,19.0391 15.4142,19.4142 C15.0391,19.7893 14.5304,20 14,20 L2,20 C1.46957,20 0.96086,19.7893 0.58579,19.4142 C0.21071,19.0391 0,18.5304 0,18 L0,4 C0,3.46957 0.21071,2.96086 0.58579,2.58579 C0.96086,2.21071 1.46957,2 2,2 L4,2"/>
    <path d="M11,0 L5,0 C4.44772,0 4,0.44772 4,1 L4,3 C4,3.55228 4.44772,4 5,4 L11,4 C11.5523,4 12,3.55228 12,3 L12,1 C12,0.44772 11.5523,0 11,0 Z"/>
  </g>
</svg>
