<svg xmlns="http://www.w3.org/2000/svg" width="24" height="24" viewBox="0 0 24 24">
  <path fill="#FFF" d="M17.7891,16.6969 L12.7828,11.6437 C13.7625,10.4156 14.3531,8.8594 14.3531,7.1672 C14.3531,3.20624 11.1422,-0.0047 7.1766,-0.0047 C3.21094,-0.0047 0,3.21093 0,7.1719 C0,11.1328 3.21094,14.3437 7.1766,14.3437 C8.8922,14.3437 10.4625,13.7437 11.7,12.7406 L16.6734,17.7609 C16.8234,17.9203 17.0297,18 17.2313,18 C17.4234,18 17.6156,17.9297 17.7609,17.7891 C18.0703,17.4937 18.0797,17.0062 17.7891,16.6969 Z M7.1766,12.8016 C5.67188,12.8016 4.25625,12.2156 3.19219,11.1516 C2.12813,10.0875 1.54219,8.6719 1.54219,7.1719 C1.54219,5.66718 2.12813,4.25155 3.19219,3.19218 C4.25625,2.12811 5.67188,1.54218 7.1766,1.54218 C8.6813,1.54218 10.0969,2.12811 11.1609,3.19218 C12.225,4.25624 12.8109,5.67186 12.8109,7.1719 C12.8109,8.6766 12.225,10.0922 11.1609,11.1516 C10.0969,12.2156 8.6813,12.8016 7.1766,12.8016 Z" transform="translate(3 3)"/>
</svg>
