<svg width="32" height="32" viewBox="0 0 32 32" fill="none" xmlns="http://www.w3.org/2000/svg">
<path d="M16.3933 12.4501C16.2933 12.2751 16.0433 12.2501 15.9121 12.4063L10.1683 20.0438C10.0121 20.2251 10.1308 20.5063 10.3683 20.5251L20.4371 21.4001C20.6746 21.4188 20.8371 21.1626 20.7183 20.9563L16.3933 12.4501ZM22.9496 16.5063C22.8496 16.3313 22.5996 16.3063 22.4683 16.4626L20.9183 18.0313C20.8787 18.0774 20.8545 18.1346 20.8489 18.1951C20.8433 18.2555 20.8566 18.3163 20.8871 18.3688L22.4746 21.4626C22.5246 21.5438 22.6058 21.6001 22.7058 21.6063L25.5121 21.8501C25.7496 21.8688 25.9121 21.6126 25.7933 21.4063L22.9496 16.5063ZM23.6308 14.0251C24.3308 14.0188 24.9371 13.5063 25.0683 12.8251C25.2433 11.9001 24.5308 11.0563 23.5871 11.0688C22.8871 11.0751 22.2808 11.5876 22.1496 12.2688C21.9746 13.1938 22.6871 14.0376 23.6308 14.0251Z" fill="#414143"/>
<path d="M28.4503 8.08123L24.3378 7.72498L23.9565 3.53748C23.8753 2.60623 23.0503 1.91873 22.1128 2.00623L3.54402 3.68123C2.61277 3.76248 1.92527 4.58748 2.00652 5.51873L3.68152 24.05C3.76277 24.9812 4.58777 25.6687 5.52527 25.5812L6.50652 25.4937L6.41277 26.5375C6.33152 27.4687 7.01902 28.2875 7.95652 28.3687L26.5378 29.9875C27.469 30.0687 28.294 29.3812 28.3753 28.45L30.0003 9.91248C30.0753 8.98748 29.3878 8.16248 28.4503 8.08123ZM5.47527 18.7937C5.24402 18.8125 5.03777 18.6437 5.01277 18.4125L3.88777 5.91248C3.86902 5.68123 4.03777 5.47498 4.26902 5.45623L21.719 3.88748C21.9503 3.86873 22.1565 4.03748 22.1815 4.26873L22.4815 7.56873L9.87527 6.46248C8.94402 6.38123 8.11902 7.06873 8.03777 7.99998L7.10652 18.6437L5.47527 18.7937ZM28.1128 10.3187L27.019 22.8187C27.0003 23.05 26.794 23.225 26.5628 23.2062L25.4003 23.1062L9.10652 21.6875C8.87527 21.6687 8.70027 21.4625 8.71902 21.2312L8.95652 18.4875L9.81277 8.73123C9.83152 8.49998 10.0378 8.32498 10.269 8.34373L22.644 9.42498L24.5003 9.58748L27.7253 9.86873C27.9628 9.88123 28.1378 10.0875 28.1128 10.3187Z" fill="#414143"/>
</svg>
