<svg width="24" height="24" viewBox="0 0 24 24" fill="none" xmlns="http://www.w3.org/2000/svg">
<path d="M20.7188 16.375H9.75V14.9688C9.75 14.5012 9.37383 14.125 8.90625 14.125H7.21875C6.75117 14.125 6.375 14.5012 6.375 14.9688V16.375H3.28125C3.12656 16.375 3 16.5016 3 16.6562V17.2188C3 17.3734 3.12656 17.5 3.28125 17.5H6.375V18.9062C6.375 19.3738 6.75117 19.75 7.21875 19.75H8.90625C9.37383 19.75 9.75 19.3738 9.75 18.9062V17.5H20.7188C20.8734 17.5 21 17.3734 21 17.2188V16.6562C21 16.5016 20.8734 16.375 20.7188 16.375ZM8.625 18.625H7.5V15.25H8.625V18.625ZM20.7188 6.25H12V4.84375C12 4.37617 11.6238 4 11.1562 4H9.46875C9.00117 4 8.625 4.37617 8.625 4.84375V6.25H3.28125C3.12656 6.25 3 6.37656 3 6.53125V7.09375C3 7.24844 3.12656 7.375 3.28125 7.375H8.625V8.78125C8.625 9.24883 9.00117 9.625 9.46875 9.625H11.1562C11.6238 9.625 12 9.24883 12 8.78125V7.375H20.7188C20.8734 7.375 21 7.24844 21 7.09375V6.53125C21 6.37656 20.8734 6.25 20.7188 6.25ZM10.875 8.5H9.75V5.125H10.875V8.5ZM20.7188 11.3125H17.625V9.90625C17.625 9.43867 17.2488 9.0625 16.7812 9.0625H15.0938C14.6262 9.0625 14.25 9.43867 14.25 9.90625V11.3125H3.28125C3.12656 11.3125 3 11.4391 3 11.5938V12.1562C3 12.3109 3.12656 12.4375 3.28125 12.4375H14.25V13.8438C14.25 14.3113 14.6262 14.6875 15.0938 14.6875H16.7812C17.2488 14.6875 17.625 14.3113 17.625 13.8438V12.4375H20.7188C20.8734 12.4375 21 12.3109 21 12.1562V11.5938C21 11.4391 20.8734 11.3125 20.7188 11.3125ZM16.5 13.5625H15.375V10.1875H16.5V13.5625Z" fill="#136ACD"/>
</svg>
