<svg width="25" height="24" viewBox="0 0 25 24" fill="none" xmlns="http://www.w3.org/2000/svg">
<path d="M11.92 5.23005C11.8189 5.14585 11.7022 5.08241 11.5766 5.04337C11.451 5.00432 11.319 4.99044 11.188 5.00251C11.057 5.01459 10.9297 5.05239 10.8134 5.11374C10.697 5.17509 10.5939 5.25879 10.51 5.36005L5.50996 11.3601C5.36288 11.539 5.28247 11.7634 5.28247 11.9951C5.28247 12.2267 5.36288 12.4511 5.50996 12.6301L10.34 18.6301C10.4341 18.7461 10.553 18.8395 10.688 18.9036C10.823 18.9676 10.9706 19.0006 11.12 19.0001C11.3092 19.0007 11.4947 18.9476 11.655 18.847C11.8153 18.7464 11.9437 18.6024 12.0254 18.4317C12.1071 18.261 12.1387 18.0706 12.1165 17.8827C12.0943 17.6948 12.0192 17.517 11.9 17.3701L7.56996 12.0001L12.05 6.63005C12.2169 6.42655 12.2969 6.16544 12.2725 5.90335C12.2482 5.64126 12.1215 5.39933 11.92 5.23005Z" fill="#003ED0"/>
<path d="M14.57 12L19.05 6.63002C19.2197 6.4258 19.3014 6.16252 19.277 5.8981C19.2526 5.63367 19.1242 5.38976 18.92 5.22002C18.7157 5.05028 18.4525 4.96862 18.188 4.993C17.9236 5.01738 17.6797 5.1458 17.51 5.35002L12.51 11.35C12.3629 11.529 12.2825 11.7534 12.2825 11.985C12.2825 12.2166 12.3629 12.4411 12.51 12.62L17.34 18.62C17.4341 18.736 17.553 18.8295 17.688 18.8935C17.823 18.9576 17.9706 18.9905 18.12 18.99C18.3092 18.9907 18.4947 18.9376 18.655 18.837C18.8153 18.7364 18.9437 18.5924 19.0254 18.4217C19.1071 18.251 19.1387 18.0606 19.1165 17.8727C19.0943 17.6848 19.0192 17.507 18.9 17.36L14.57 12Z" fill="#003ED0"/>
</svg>
