<svg width="25" height="24" viewBox="0 0 25 24" fill="none" xmlns="http://www.w3.org/2000/svg">
<g clip-path="url(#clip0)">
<path d="M19.0601 11.3699L14.2801 5.36994C14.1976 5.26722 14.0955 5.18181 13.9799 5.11864C13.8643 5.05546 13.7373 5.01577 13.6063 5.00183C13.4752 4.98789 13.3427 4.99998 13.2164 5.03741C13.0901 5.07485 12.9724 5.13688 12.8701 5.21994C12.7674 5.30246 12.6819 5.40448 12.6188 5.52011C12.5556 5.63575 12.5159 5.76273 12.502 5.89376C12.488 6.02479 12.5001 6.15728 12.5376 6.28362C12.575 6.40996 12.637 6.52765 12.7201 6.62994L16.9901 11.9999L12.5101 17.3699C12.4259 17.471 12.3624 17.5877 12.3234 17.7133C12.2843 17.8389 12.2705 17.9709 12.2825 18.1019C12.2946 18.2329 12.3324 18.3602 12.3938 18.4765C12.4551 18.5929 12.5388 18.696 12.6401 18.7799C12.8214 18.9254 13.0477 19.0032 13.2801 18.9999C13.427 19.0002 13.5722 18.968 13.7052 18.9058C13.8383 18.8436 13.9561 18.7528 14.0501 18.6399L19.0501 12.6399C19.1986 12.4622 19.2808 12.2384 19.2826 12.0067C19.2844 11.7751 19.2058 11.55 19.0601 11.3699Z" fill="#003ED0"/>
<path d="M7.28008 5.37C7.11299 5.1565 6.86794 5.01812 6.59882 4.9853C6.32971 4.95249 6.05858 5.02792 5.84508 5.195C5.63158 5.36209 5.4932 5.60714 5.46038 5.87626C5.42756 6.14537 5.50299 6.4165 5.67008 6.63L9.99008 12L5.51008 17.36C5.42588 17.4611 5.36244 17.5777 5.32339 17.7033C5.28435 17.8289 5.27047 17.961 5.28254 18.092C5.29462 18.223 5.33242 18.3503 5.39377 18.4666C5.45512 18.583 5.53882 18.6861 5.64008 18.77C5.81999 18.9191 6.04643 19.0005 6.28008 19C6.42699 19.0002 6.57215 18.9681 6.70523 18.9059C6.83832 18.8437 6.95606 18.7529 7.05008 18.64L12.0501 12.64C12.1972 12.4611 12.2776 12.2366 12.2776 12.005C12.2776 11.7734 12.1972 11.5489 12.0501 11.37L7.28008 5.37Z" fill="#003ED0"/>
</g>
<defs>
<clipPath id="clip0">
<rect x="0.280029" width="24" height="24" fill="white"/>
</clipPath>
</defs>
</svg>
