<svg width="24" height="24" viewBox="0 0 24 24" fill="none" xmlns="http://www.w3.org/2000/svg">
<path fill-rule="evenodd" clip-rule="evenodd" d="M3.87868 1.87868C4.44129 1.31607 5.20435 1 6 1H13C13.2652 1 13.5196 1.10536 13.7071 1.29289L20.7071 8.29289C20.8946 8.48043 21 8.73478 21 9V20C21 20.7957 20.6839 21.5587 20.1213 22.1213C19.5587 22.6839 18.7957 23 18 23H6C5.20435 23 4.44129 22.6839 3.87868 22.1213C3.31607 21.5587 3 20.7957 3 20V4C3 3.20435 3.31607 2.44129 3.87868 1.87868ZM6 3C5.73478 3 5.48043 3.10536 5.29289 3.29289C5.10536 3.48043 5 3.73478 5 4V20C5 20.2652 5.10536 20.5196 5.29289 20.7071C5.48043 20.8946 5.73478 21 6 21H18C18.2652 21 18.5196 20.8946 18.7071 20.7071C18.8946 20.5196 19 20.2652 19 20V9.41421L12.5858 3H6Z" fill="#718FA2"/>
<path fill-rule="evenodd" clip-rule="evenodd" d="M13 1C13.5523 1 14 1.44772 14 2V8H20C20.5523 8 21 8.44772 21 9C21 9.55228 20.5523 10 20 10H13C12.4477 10 12 9.55228 12 9V2C12 1.44772 12.4477 1 13 1Z" fill="#718FA2"/>
<path d="M11.8836 12.7557C11.6434 12.7557 11.4341 12.6704 11.2558 12.4999C11.0853 12.3216 11 12.1123 11 11.872C11 11.6317 11.0853 11.4263 11.2558 11.2558C11.4341 11.0853 11.6434 11 11.8836 11C12.1317 11 12.341 11.0853 12.5115 11.2558C12.682 11.4263 12.7673 11.6317 12.7673 11.872C12.7673 12.1123 12.682 12.3216 12.5115 12.4999C12.341 12.6704 12.1317 12.7557 11.8836 12.7557ZM12.6278 18.6127C12.6278 18.8133 12.4651 18.976 12.2644 18.976H11.5145C11.3138 18.976 11.1511 18.8133 11.1511 18.6127V13.7236C11.1511 13.5229 11.3138 13.3602 11.5145 13.3602H12.2644C12.4651 13.3602 12.6278 13.5229 12.6278 13.7236V18.6127Z" fill="#718FA2"/>
</svg>
