<svg width="16" height="16" viewBox="0 0 16 16" fill="none" xmlns="http://www.w3.org/2000/svg">
    <path d="M6.33333 9.525C6.33369 9.0808 6.1567 8.65483 5.84167 8.34167L0.991667 3.49167C0.676634 3.1785 0.499649 2.75254 0.500001 2.30833V1.33333C0.500001 0.873096 0.873097 0.5 1.33333 0.5H14.6667C15.1269 0.5 15.5 0.873096 15.5 1.33333V2.30833C15.5004 2.75254 15.3234 3.1785 15.0083 3.49167L10.1583 8.34167C9.8433 8.65483 9.66632 9.0808 9.66667 9.525V12.5833C9.66667 13.1079 9.41968 13.6019 9 13.9167L7 15.4167C6.87374 15.5114 6.70482 15.5266 6.56366 15.456C6.4225 15.3854 6.33333 15.2412 6.33333 15.0833V9.525Z" fill="#718FA2"/>
</svg>
