<svg width="20" height="14" viewBox="0 0 20 14" fill="none" xmlns="http://www.w3.org/2000/svg">
    <path fill-rule="evenodd" clip-rule="evenodd" d="M16.8538 7.36002L19.8538 4.36002C20.0494 4.15825 20.045 3.83628 19.8438 3.64002L16.8438 0.640021C16.6997 0.498717 16.4847 0.457952 16.2988 0.536675C16.113 0.615398 15.9927 0.798166 15.9938 1.00002V3.00002H8.49384C8.2177 3.00002 7.99384 3.22388 7.99384 3.50002V4.50002C7.99384 4.77616 8.2177 5.00002 8.49384 5.00002H15.9938V7.00002C15.9884 7.20631 16.1102 7.39475 16.3006 7.47443C16.4909 7.55412 16.7107 7.50867 16.8538 7.36002ZM3.99384 9.00002H11.4938C11.77 9.00002 11.9938 9.22388 11.9938 9.50002V10.5C11.9938 10.7762 11.77 11 11.4938 11H3.99384V13C3.99103 13.2001 3.86925 13.3792 3.68426 13.4553C3.49927 13.5315 3.28669 13.4901 3.14384 13.35L0.143837 10.35C-0.0479458 10.1522 -0.0479458 9.83783 0.143837 9.64002L3.14384 6.64002C3.28799 6.49872 3.50297 6.45795 3.68884 6.53667C3.87472 6.6154 3.99502 6.79817 3.99384 7.00002V9.00002Z" fill="#5D5F60"/>
</svg>
