<svg xmlns="http://www.w3.org/2000/svg" width="20" height="21" viewBox="0 0 20 21" fill="none">
    <path fill-rule="evenodd" clip-rule="evenodd" d="M3.33333 3H8.33333C8.79357 3 9.16667 3.3731 9.16667 3.83333V7.16667C9.16667 7.6269 8.79357 8 8.33333 8H3.33333C2.8731 8 2.5 7.6269 2.5 7.16667V3.83333C2.5 3.3731 2.8731 3 3.33333 3ZM4.16667 6.33333H7.5V4.66667H4.16667V6.33333ZM8.33333 9.66667H3.33333C2.8731 9.66667 2.5 10.0398 2.5 10.5V17.1667C2.5 17.6269 2.8731 18 3.33333 18H8.33333C8.79357 18 9.16667 17.6269 9.16667 17.1667V10.5C9.16667 10.0398 8.79357 9.66667 8.33333 9.66667ZM4.16667 16.3333H7.5V11.3333H4.16667V16.3333ZM16.6667 13H11.6667C11.2064 13 10.8333 13.3731 10.8333 13.8333V17.1667C10.8333 17.6269 11.2064 18 11.6667 18H16.6667C17.1269 18 17.5 17.6269 17.5 17.1667V13.8333C17.5 13.3731 17.1269 13 16.6667 13ZM12.5 16.3333H15.8333V14.6667H12.5V16.3333ZM16.6667 3H11.6667C11.2064 3 10.8333 3.3731 10.8333 3.83333V10.5C10.8333 10.9602 11.2064 11.3333 11.6667 11.3333H16.6667C17.1269 11.3333 17.5 10.9602 17.5 10.5V3.83333C17.5 3.3731 17.1269 3 16.6667 3ZM12.5 9.66667H15.8333V4.66667H12.5V9.66667Z" fill="#5D5F60"/>
</svg>