<svg width="24" height="24" viewBox="0 0 24 24" fill="none" xmlns="http://www.w3.org/2000/svg">
<path d="M10.75 6.76172V8.16797C10.75 8.40095 10.5611 8.58984 10.3281 8.58984H8.92188C8.68889 8.58984 8.5 8.40095 8.5 8.16797V6.76172C8.5 6.52874 8.68889 6.33984 8.92188 6.33984H10.3281C10.5611 6.33984 10.75 6.52874 10.75 6.76172ZM14.8281 6.33984H13.4219C13.1889 6.33984 13 6.52874 13 6.76172V8.16797C13 8.40095 13.1889 8.58984 13.4219 8.58984H14.8281C15.0611 8.58984 15.25 8.40095 15.25 8.16797V6.76172C15.25 6.52874 15.0611 6.33984 14.8281 6.33984ZM10.3281 9.71484H8.92188C8.68889 9.71484 8.5 9.90374 8.5 10.1367V11.543C8.5 11.7759 8.68889 11.9648 8.92188 11.9648H10.3281C10.5611 11.9648 10.75 11.7759 10.75 11.543V10.1367C10.75 9.90374 10.5611 9.71484 10.3281 9.71484ZM14.8281 9.71484H13.4219C13.1889 9.71484 13 9.90374 13 10.1367V11.543C13 11.7759 13.1889 11.9648 13.4219 11.9648H14.8281C15.0611 11.9648 15.25 11.7759 15.25 11.543V10.1367C15.25 9.90374 15.0611 9.71484 14.8281 9.71484ZM10.3281 13.0898H8.92188C8.68889 13.0898 8.5 13.2787 8.5 13.5117V14.918C8.5 15.1509 8.68889 15.3398 8.92188 15.3398H10.3281C10.5611 15.3398 10.75 15.1509 10.75 14.918V13.5117C10.75 13.2787 10.5611 13.0898 10.3281 13.0898ZM14.8281 13.0898H13.4219C13.1889 13.0898 13 13.2787 13 13.5117V14.918C13 15.1509 13.1889 15.3398 13.4219 15.3398H14.8281C15.0611 15.3398 15.25 15.1509 15.25 14.918V13.5117C15.25 13.2787 15.0611 13.0898 14.8281 13.0898ZM19.75 20.2969V21H4V20.2969C4 20.0639 4.18889 19.875 4.42188 19.875H5.125V3.84375C5.125 3.37775 5.50275 3 5.96875 3H17.7812C18.2472 3 18.625 3.37775 18.625 3.84375V19.875H19.3281C19.5611 19.875 19.75 20.0639 19.75 20.2969ZM17.5 19.875V4.125H6.25V19.875H10.75V16.8867C10.75 16.6537 10.9389 16.4648 11.1719 16.4648H12.5781C12.8111 16.4648 13 16.6537 13 16.8867V19.875H17.5Z" fill="black"/>
</svg>
