<svg width="15" height="15" viewBox="0 0 15 15" fill="none" xmlns="http://www.w3.org/2000/svg">
<path d="M1.11433 13.5495C1.21783 13.5645 1.30333 13.5495 1.31383 13.515C1.64233 12.4395 2.09983 10.2405 2.47483 8.02955L2.54983 7.62155C2.57151 7.50503 2.60158 7.39023 2.63983 7.27805C2.71688 7.05632 2.82604 6.84709 2.96383 6.65705C3.09798 6.47164 3.25754 6.30601 3.43783 6.16505C3.52803 6.09609 3.62219 6.03248 3.71983 5.97455L4.03333 5.78855C4.69757 5.39882 5.39596 5.07046 6.11983 4.80755C6.11983 4.80755 6.13183 4.79705 6.13633 4.78805C6.16033 5.80055 6.18883 6.69155 6.22183 7.41905C6.07528 7.37855 5.92152 7.37137 5.77183 7.39805C5.64016 7.41709 5.52006 7.48381 5.43433 7.58555C5.441 7.65817 5.45456 7.72999 5.47483 7.80005C5.50183 7.89755 5.52583 7.97405 5.53033 7.97705C5.5888 8.03488 5.65616 8.08299 5.72983 8.11955C5.81647 8.16147 5.90687 8.19512 5.99983 8.22005C6.10119 8.24897 6.20522 8.26757 6.31033 8.27555L6.23083 8.41355C6.01971 8.78546 5.74681 9.11872 5.42383 9.39905C5.38633 9.43205 5.41033 9.53555 5.47783 9.63005C5.54533 9.72455 5.61883 9.75905 5.66383 9.73355C6.08704 9.4793 6.45114 9.1377 6.73183 8.73155C7.04083 8.29205 7.38433 7.79105 7.74883 7.24805L8.02333 6.84005C8.11951 6.70396 8.2638 6.6095 8.42701 6.57581C8.59021 6.54211 8.76012 6.57168 8.90233 6.65855C8.97403 6.70331 9.03611 6.76189 9.08497 6.83087C9.13382 6.89985 9.16847 6.97786 9.18689 7.06035C9.20532 7.14285 9.20715 7.22818 9.19229 7.31139C9.17743 7.39461 9.14617 7.47403 9.10033 7.54505L8.80033 8.02055L8.21233 8.97155C7.88179 9.49311 7.69546 10.093 7.67233 10.71C7.67233 10.809 7.67233 10.9125 7.67233 11.01C7.67233 11.1075 7.67233 11.16 7.67233 11.2395C7.66111 11.5349 7.60287 11.8265 7.49983 12.1035C7.31412 12.6107 6.99173 13.0567 6.56833 13.392C6.47533 13.4685 6.35533 13.554 6.25483 13.644C6.15662 13.7301 6.06394 13.8223 5.97733 13.92C5.82819 14.088 5.69837 14.2721 5.59033 14.469C5.56333 14.5185 5.62483 14.6055 5.72233 14.6625C5.81983 14.7195 5.89633 14.7255 5.92483 14.6925C6.04822 14.5422 6.18422 14.4027 6.33133 14.2755C6.41706 14.2027 6.50669 14.1346 6.59983 14.0715C6.69283 14.0055 6.79183 13.9515 6.91633 13.869C7.47587 13.5056 7.9141 12.9832 8.17483 12.369C8.17483 12.3525 8.18683 12.3345 8.19433 12.318L8.26333 12.414L8.30083 12.465C8.31433 12.483 8.33833 12.5085 8.35783 12.5295C8.4461 12.6227 8.55022 12.6994 8.66533 12.756C8.92997 12.8849 9.2342 12.9064 9.51433 12.816C9.66503 12.7678 9.80454 12.6899 9.9246 12.5868C10.0447 12.4838 10.1428 12.3577 10.2133 12.216C10.2431 12.1549 10.2672 12.0911 10.2853 12.0255C10.4533 12.0739 10.6306 12.0796 10.8013 12.042C11.0062 11.9959 11.1935 11.8919 11.341 11.7425C11.4886 11.5931 11.5902 11.4045 11.6338 11.199C11.6742 11.0103 11.6617 10.8141 11.5978 10.632C11.5834 10.5942 11.5669 10.5571 11.5483 10.521L11.5048 10.446L11.4778 10.4025L12.6928 10.4295H12.9058H13.1443C13.3787 10.4155 13.5994 10.3146 13.7634 10.1465C13.9273 9.97839 14.0227 9.75521 14.0308 9.52055L14.0383 9.05555L14.0788 5.15555L14.0893 3.09005C14.0893 2.74205 14.0893 2.39205 14.0893 2.04005V1.39055C14.0893 1.34405 14.0893 1.31555 14.0893 1.22855C14.0788 1.0803 14.0352 0.936296 13.9618 0.807049C13.8888 0.677978 13.7884 0.566492 13.6676 0.480448C13.5468 0.394404 13.4087 0.335896 13.2628 0.309049C13.226 0.303887 13.189 0.300881 13.1518 0.300049H13.0558H12.6613H11.6113H9.55033L7.55083 0.316549H7.06483H7.03333H6.98383C6.95112 0.317742 6.91854 0.321251 6.88633 0.327049C6.8217 0.336547 6.75832 0.353147 6.69733 0.376549C6.51661 0.444389 6.36018 0.564503 6.24798 0.721583C6.13578 0.878663 6.07289 1.06559 6.06733 1.25855V1.73555C6.08083 2.74055 6.09883 3.68555 6.11833 4.54655C6.09433 4.46105 6.05533 4.39655 6.02233 4.40405C5.44033 4.45505 4.59133 4.70405 3.68683 5.14355C3.57383 5.19855 3.45933 5.25605 3.34333 5.31605C3.21808 5.38644 3.09734 5.4646 2.98183 5.55005C2.47011 5.90984 2.08069 6.41756 1.86583 7.00505C1.81144 7.15654 1.76881 7.312 1.73833 7.47005L1.66333 7.89005C1.27933 10.0995 0.96433 12.3225 0.91333 13.44C0.89983 13.485 1.00033 13.533 1.11433 13.5495ZM9.46933 11.85C9.4212 11.9449 9.34232 12.0205 9.24558 12.0647C9.14885 12.1088 9.03999 12.1188 8.93683 12.093C8.88434 12.0814 8.83381 12.0622 8.78683 12.036C8.77483 12.0285 8.76583 12.0255 8.75083 12.0135L8.69983 11.979L8.60383 11.9085C8.51683 11.847 8.43883 11.796 8.36383 11.7585C8.39914 11.6015 8.4232 11.4421 8.43583 11.2815C8.44633 11.184 8.44333 11.0865 8.44633 10.9815C8.44933 10.8765 8.44633 10.8315 8.44633 10.746C8.45693 10.5945 8.4795 10.444 8.51383 10.296L8.96383 10.317C9.04295 10.5797 9.14328 10.8356 9.26383 11.082L9.39283 11.343L9.42733 11.4105C9.43933 11.4345 9.45133 11.457 9.45433 11.466C9.46624 11.4904 9.4753 11.5161 9.48133 11.5425C9.51359 11.6433 9.50934 11.7521 9.46933 11.85ZM10.7518 11.1585C10.6585 11.2527 10.5319 11.3066 10.3993 11.3085C10.3525 11.31 10.3057 11.306 10.2598 11.2965V11.2845C10.2341 11.2137 10.2009 11.1459 10.1608 11.082C10.1398 11.0475 10.1263 11.0265 10.1128 11.007L10.0663 10.95L9.89983 10.7115C9.80233 10.5765 9.70633 10.455 9.61633 10.3455C9.99883 10.359 10.4128 10.3725 10.8538 10.3845C10.8538 10.422 10.8538 10.461 10.8538 10.503C10.8538 10.545 10.8643 10.608 10.8733 10.6635L10.8868 10.749C10.8883 10.7685 10.8883 10.7881 10.8868 10.8075C10.8878 10.9379 10.8396 11.0637 10.7518 11.16V11.1585ZM9.55183 1.10105L11.6173 1.11005H12.6673H13.0963C13.1033 1.10956 13.1103 1.10956 13.1173 1.11005C13.1443 1.11534 13.1697 1.12639 13.192 1.14244C13.2143 1.1585 13.2328 1.17917 13.2463 1.20305C13.2604 1.22678 13.2686 1.25351 13.2703 1.28105C13.2703 1.28105 13.2703 1.34105 13.2703 1.38155V2.03855C13.2703 2.38855 13.2703 2.73855 13.2703 3.08855L13.2808 5.15405L13.3213 9.05405V9.50405C13.3226 9.56722 13.2995 9.62845 13.2568 9.67505C13.2139 9.72227 13.1552 9.75215 13.0918 9.75905H13.0618H12.8998H12.6868L11.0833 9.79505C10.1443 9.81905 9.32383 9.84755 8.65033 9.88055C8.71862 9.70917 8.80352 9.54488 8.90383 9.39005L9.50383 8.44205L9.80383 7.96655C9.94138 7.74607 10.0175 7.49283 10.0243 7.23305C10.0303 6.97677 9.96791 6.72352 9.84346 6.49941C9.71901 6.27529 9.53705 6.08842 9.31633 5.95805C9.13509 5.85283 8.93269 5.78929 8.72383 5.77205C8.92783 4.65155 8.93233 2.23205 8.73433 1.08755L9.55183 1.10105ZM6.79783 1.74605V1.29605C6.80016 1.25129 6.81563 1.20821 6.84231 1.17219C6.86899 1.13618 6.90569 1.10882 6.94783 1.09355C6.9618 1.08841 6.97646 1.08537 6.99133 1.08455H7.05433H7.54033H8.18833C7.98733 2.24255 7.99333 4.71305 8.20483 5.81555C8.09748 5.84388 7.99415 5.88571 7.89733 5.94005C7.69111 6.05349 7.51675 6.21702 7.39033 6.41555L7.13983 6.85655C6.97183 7.13705 6.81133 7.40855 6.65983 7.66805L6.64483 7.65305C6.71233 6.25505 6.76333 4.17455 6.79783 1.74605Z" fill="#003ED0"/>
<path d="M12.1289 6.04501C12.193 6.04716 12.2572 6.04465 12.3209 6.03751C12.5984 5.78401 12.5954 5.01601 12.3209 4.76251C12.249 4.75755 12.1769 4.75755 12.1049 4.76251C12.043 4.75802 11.9809 4.75802 11.9189 4.76251C11.6384 5.01601 11.6369 5.78401 11.9189 6.03751C11.9887 6.04461 12.0589 6.04711 12.1289 6.04501Z" fill="#003ED0"/>
<path d="M12.1289 3.79794C12.193 3.80009 12.2572 3.79758 12.3209 3.79044C12.5984 3.53694 12.5954 2.76894 12.3209 2.51544C12.249 2.51048 12.1769 2.51048 12.1049 2.51544C12.043 2.51095 11.9809 2.51095 11.9189 2.51544C11.6384 2.76894 11.6369 3.53694 11.9189 3.79044C11.9887 3.79754 12.0589 3.80004 12.1289 3.79794Z" fill="#003ED0"/>
<path d="M12.1289 8.29354C12.193 8.29569 12.2572 8.29318 12.3209 8.28604C12.5984 8.03104 12.5954 7.26454 12.3209 7.01105C12.249 7.00608 12.1769 7.00608 12.1049 7.01105C12.043 7.00655 11.9809 7.00655 11.9189 7.01105C11.6384 7.26454 11.6369 8.03254 11.9189 8.28604C11.9887 8.29314 12.0589 8.29564 12.1289 8.29354Z" fill="#003ED0"/>
</svg>
