<svg xmlns="http://www.w3.org/2000/svg" width="24" height="24" viewBox="0 0 24 24">
  <g fill="none" fill-rule="evenodd" stroke="#003ED0" stroke-linecap="round" stroke-linejoin="round" stroke-width="2" transform="translate(2 2)">
    <path d="M10,20 C15.5228,20 20,15.5228 20,10 C20,4.47715 15.5228,0 10,0 C4.47715,0 0,4.47715 0,10 C0,15.5228 4.47715,20 10,20 Z"/>
    <path d="M7.08984,6.99996 C7.32495,6.33163 7.789,5.76807 8.3998,5.40909 C9.0106,5.05012 9.7287,4.9189 10.427,5.03867 C11.1253,5.15844 11.7587,5.52148 12.2149,6.06349 C12.6712,6.60549 12.9209,7.29148 12.9198036,7.99996 C12.9198036,10 9.9198,11 9.9198,11"/>
    <line x1="10" x2="10.01" y1="15" y2="15"/>
  </g>
</svg>
