<svg width="17" height="17" viewBox="0 0 17 17" fill="none" xmlns="http://www.w3.org/2000/svg">
<path d="M15.6622 0.0881069L0.983602 4.98096C0.834567 5.03148 0.703249 5.12387 0.605369 5.24709C0.50749 5.37031 0.447197 5.51913 0.43171 5.67572C0.416222 5.83232 0.446195 5.99007 0.518042 6.13007C0.589889 6.27007 0.700563 6.3864 0.836816 6.46513L6.13741 9.49055V15.5414C6.13732 15.7163 6.19363 15.8866 6.29799 16.027C6.40234 16.1674 6.54918 16.2705 6.71672 16.3208C6.88425 16.3712 7.06356 16.3662 7.22803 16.3065C7.39249 16.2469 7.53336 16.1359 7.62973 15.9899L10.4676 11.7331L15.5154 14.6199C15.6399 14.6895 15.7804 14.7256 15.9231 14.7245C16.0657 14.7233 16.2056 14.6851 16.3291 14.6135C16.4525 14.542 16.5551 14.4395 16.6269 14.3162C16.6987 14.1929 16.7372 14.0531 16.7386 13.9104V0.862809C16.7377 0.733565 16.7063 0.606354 16.647 0.491527C16.5877 0.3767 16.5021 0.277501 16.3972 0.202002C16.2923 0.126503 16.171 0.0768375 16.0433 0.0570462C15.9156 0.0372548 15.785 0.0478971 15.6622 0.0881069ZM9.48902 10.2734L7.76836 12.8503V9.43347L10.7612 7.29692L9.48902 10.2734Z" fill="white"/>
</svg>
