<svg xmlns="http://www.w3.org/2000/svg" width="24" height="24" viewBox="0 0 24 24">
  <g fill="none" fill-rule="evenodd" stroke="#FFF" stroke-linecap="round" stroke-linejoin="round" stroke-width="1.5" transform="translate(3 2)">
    <polyline points="0 4 2 4 18 4"/>
    <path d="M5,4 L5,2 C5,1.46957 5.21071,0.96086 5.58579,0.58579 C5.96086,0.21071 6.46957,0 7,0 L11,0 C11.5304,0 12.0391,0.21071 12.4142,0.58579 C12.7893,0.96086 13,1.46957 13,2 L13,4 M16,4 L16,18 C16,18.5304 15.7893,19.0391 15.4142,19.4142 C15.0391,19.7893 14.5304,20 14,20 L4,20 C3.46957,20 2.96086,19.7893 2.58579,19.4142 C2.21071,19.0391 2,18.5304 2,18 L2,4 L16,4 Z"/>
    <line x1="7" x2="7" y1="9" y2="15"/>
    <line x1="11" x2="11" y1="9" y2="15"/>
  </g>
</svg>
