<svg width="32" height="32" viewBox="0 0 32 32" fill="none" xmlns="http://www.w3.org/2000/svg">
<path d="M18.5931 2.66663H8.0944C7.39829 2.66663 6.7307 2.94758 6.23847 3.44767C5.74625 3.94777 5.46973 4.62605 5.46973 5.33329V26.6666C5.46973 27.3739 5.74625 28.0521 6.23847 28.5522C6.7307 29.0523 7.39829 29.3333 8.0944 29.3333H23.8424C24.5385 29.3333 25.2061 29.0523 25.6983 28.5522C26.1906 28.0521 26.4671 27.3739 26.4671 26.6666V10.6666L18.5931 2.66663Z" stroke="#333333" stroke-width="2" stroke-linecap="round" stroke-linejoin="round"/>
<path d="M18.5938 2.66663V10.6666H26.4678" stroke="#333333" stroke-width="2" stroke-linecap="round" stroke-linejoin="round"/>
<path d="M21.2184 17.3334H10.7197" stroke="#333333" stroke-width="2" stroke-linecap="round" stroke-linejoin="round"/>
<path d="M21.2184 22.6666H10.7197" stroke="#333333" stroke-width="2" stroke-linecap="round" stroke-linejoin="round"/>
<path d="M13.3444 12H12.0321H10.7197" stroke="#333333" stroke-width="2" stroke-linecap="round" stroke-linejoin="round"/>
</svg>
