<?xml version="1.0" encoding="utf-8"?>
<!-- Generator: Adobe Illustrator 16.0.0, SVG Export Plug-In . SVG Version: 6.00 Build 0)  -->
<!DOCTYPE svg PUBLIC "-//W3C//DTD SVG 1.1//EN" "http://www.w3.org/Graphics/SVG/1.1/DTD/svg11.dtd">
<svg version="1.1" id="Layer_1" xmlns="http://www.w3.org/2000/svg" xmlns:xlink="http://www.w3.org/1999/xlink" x="0px" y="0px"
	 width="259.25px" height="192px" viewBox="58.75 -120 259.25 192" enable-background="new 58.75 -120 259.25 192"
	 xml:space="preserve">
<path fill="#003ED0" d="M66.98,48.586c3.629,3.629,8.928,6.105,16.301,6.105c10.368,0,15.379-5.299,15.379-12.326
	c0-8.525-8.064-10.426-14.4-11.866c-4.435-1.037-7.661-1.843-7.661-4.435c0-2.304,1.958-3.917,5.645-3.917
	c3.744,0,7.891,1.325,11.001,4.205l4.55-5.991c-3.801-3.513-8.87-5.356-14.976-5.356c-9.043,0-14.573,5.184-14.573,11.578
	c0,8.583,8.064,10.31,14.343,11.75c4.435,1.036,7.776,2.016,7.776,4.896c0,2.189-2.189,4.32-6.682,4.32
	c-5.299,0-9.504-2.361-12.211-5.184L66.98,48.586z M102.209,40.061c0,8.928,6.393,14.631,14.861,14.631
	c4.32,0,8.64-1.268,11.462-3.859l-3.226-4.723c-1.785,1.728-4.838,2.764-7.43,2.764c-4.723,0-7.546-2.938-8.006-6.451h20.678V40.81
	c0-9.101-5.645-15.322-13.939-15.322C108.142,25.488,102.209,31.997,102.209,40.061z M116.609,31.306
	c4.838,0,6.681,3.514,6.854,6.163h-13.709C110.1,34.704,112.058,31.306,116.609,31.306z M135.832,54h7.315V35.625
	c1.21-1.786,4.435-3.11,6.854-3.11c0.807,0,1.498,0.058,2.016,0.173v-7.143c-3.456,0-6.912,1.958-8.87,4.436v-3.802h-7.315V54z
	 M163.788,54h7.892l11.174-27.821h-7.892l-7.257,19.354l-7.258-19.354h-7.833L163.788,54z"/>
<path fill="#1C252C" d="M204.609,54.691c8.754,0,13.594-4.666,16.357-9.447l-7.027-3.398c-1.612,3.169-5.068,5.588-9.33,5.588
	c-6.683,0-11.75-5.357-11.75-12.614c0-7.258,5.067-12.615,11.75-12.615c4.262,0,7.718,2.477,9.33,5.587l7.027-3.456
	c-2.707-4.781-7.604-9.389-16.357-9.389c-11.232,0-20.16,8.064-20.16,19.872C184.449,46.627,193.377,54.691,204.609,54.691z
	 M225.663,54h7.315V35.625c1.209-1.786,4.435-3.11,6.854-3.11c0.806,0,1.497,0.058,2.017,0.173v-7.143
	c-3.457,0-6.912,1.958-8.871,4.436v-3.802h-7.315V54z M263.123,54h7.316V36.029c0-8.006-5.818-10.541-12.154-10.541
	c-4.378,0-8.756,1.383-12.154,4.378l2.766,4.896c2.361-2.189,5.127-3.283,8.121-3.283c3.687,0,6.105,1.843,6.105,4.666v3.859
	c-1.844-2.246-5.126-3.397-8.813-3.397c-4.436,0-9.677,2.361-9.677,8.869c0,6.221,5.241,9.217,9.677,9.217
	c3.629,0,6.912-1.325,8.813-3.571V54z M263.123,47.318c-1.209,1.613-3.514,2.42-5.875,2.42c-2.88,0-5.241-1.498-5.241-4.09
	c0-2.65,2.361-4.205,5.241-4.205c2.361,0,4.666,0.807,5.875,2.419V47.318z M279.307,54h7.373V32.573h5.646v-6.394h-5.646v-1.382
	c0-2.649,1.383-4.032,3.456-4.032c0.864,0,1.729,0.173,2.362,0.576l1.497-5.184c-1.325-0.691-3.226-1.152-5.3-1.152
	c-5.471,0-9.389,3.629-9.389,9.677v1.498h-4.607v6.394h4.607V54z M305.869,54.691c3.053,0,5.011-0.807,6.105-1.785l-1.555-5.53
	c-0.404,0.403-1.439,0.807-2.535,0.807c-1.612,0-2.533-1.325-2.533-3.054V32.573h5.645v-6.394h-5.645v-7.603h-7.373v7.603h-4.608
	v6.394h4.608v14.515C297.979,52.041,300.743,54.691,305.869,54.691z"/>
<path fill="#003ED0" stroke="#003ED0" stroke-width="19.575" stroke-linecap="round" stroke-linejoin="round" d="M226.094-64.904
	h-6.404c-1.902-7.363-5.832-14.049-11.342-19.293c-5.514-5.242-12.383-8.834-19.834-10.369c-7.451-1.533-15.18-0.945-22.314,1.693
	c-7.135,2.643-13.385,7.23-18.041,13.246c-4.654,6.016-7.531,13.217-8.297,20.783c-0.77,7.57,0.602,15.201,3.955,22.029
	c3.35,6.83,8.553,12.578,15.01,16.6c6.457,4.02,13.914,6.148,21.521,6.143h45.746c6.74,0,13.205-2.678,17.971-7.443
	c4.766-4.77,7.445-11.234,7.445-17.973c0-6.74-2.68-13.205-7.445-17.971S232.834-64.904,226.094-64.904z"/>
<defs>
	<filter id="Adobe_OpacityMaskFilter" filterUnits="userSpaceOnUse" x="63.385" y="-95.401" width="205.285" height="118.848">
		<feColorMatrix  type="matrix" values="1 0 0 0 0  0 1 0 0 0  0 0 1 0 0  0 0 0 1 0"/>
	</filter>
</defs>
<mask maskUnits="userSpaceOnUse" x="63.385" y="-95.401" width="205.285" height="118.848" id="mask0">
	<path fill="#003ED0" filter="url(#Adobe_OpacityMaskFilter)" d="M225.584-64.895h-6.299c-1.869-7.367-5.732-14.053-11.152-19.299
		c-5.418-5.244-12.174-8.838-19.5-10.373c-7.326-1.533-14.928-0.945-21.939,1.695c-7.018,2.641-13.16,7.23-17.74,13.248
		c-4.576,6.018-7.402,13.221-8.158,20.791s0.59,15.203,3.889,22.033c3.295,6.83,8.41,12.582,14.758,16.604
		c6.35,4.021,13.682,6.15,21.162,6.145h44.98c6.625,0,12.984-2.678,17.668-7.445c4.686-4.77,7.32-11.234,7.32-17.977
		s-2.635-13.209-7.32-17.977C238.568-62.217,232.209-64.895,225.584-64.895z"/>
</mask>
<g mask="url(#mask0)">
	<g>
		<path fill="#167DF2" d="M63.387-87.891l5.701-2.625c5.703-2.824,17.107-7.779,28.512-2.676
			c11.406,5.301,22.809,21.156,34.215,31.709c11.406,10.752,22.809,15.705,34.215,18.533c11.406,2.625,22.807,2.625,34.213-2.676
			c11.406-5.105,22.807-16.004,34.213-15.857c11.406-0.146,22.809,10.752,28.512,15.857l5.703,5.301V7.242h-5.703
			c-5.703,0-17.105,0-28.512,0s-22.807,0-34.213,0s-22.807,0-34.213,0s-22.809,0-34.215,0s-22.809,0-34.215,0
			c-11.404,0-22.809,0-28.512,0h-5.701V-87.891z"/>
	</g>
	<g opacity="0.8">
		<path fill="#2E8FFF" d="M63.385-71.684l5.703-2.627c5.703-2.822,17.107-7.777,28.512-2.674
			c11.404,5.301,22.809,21.156,34.215,31.709c11.404,10.752,22.809,15.705,34.215,18.533c11.402,2.623,22.807,2.623,34.213-2.676
			c11.404-5.105,22.807-16.008,34.213-15.857c11.404-0.15,22.809,10.752,28.512,15.857l5.703,5.299v47.566h-5.703
			c-5.703,0-17.107,0-28.512,0c-11.406,0-22.809,0-34.213,0c-11.406,0-22.811,0-34.213,0c-11.406,0-22.811,0-34.215,0
			c-11.406,0-22.811,0-34.215,0s-22.809,0-28.512,0h-5.703V-71.684z"/>
	</g>
</g>
</svg>
