<svg width="98" height="99" viewBox="0 0 98 99" fill="none" xmlns="http://www.w3.org/2000/svg">
<path opacity="0.5" d="M43.9734 24.3984H17.8917V45.2354H43.9734V24.3984Z" fill="#5AC8E1"/>
<path opacity="0.2" d="M70.3385 24.3984H44.2568V45.2354H70.3385V24.3984Z" fill="#5AC8E1"/>
<path d="M48.6339 98.1213C75.4936 98.1213 97.2678 76.3471 97.2678 49.4874C97.2678 22.6276 75.4936 0.853516 48.6339 0.853516C21.7741 0.853516 0 22.6276 0 49.4874C0 76.3471 21.7741 98.1213 48.6339 98.1213Z" fill="url(#paint0_linear)"/>
<path d="M48.634 96.8087C74.7689 96.8087 95.9553 75.6222 95.9553 49.4874C95.9553 23.3525 74.7689 2.16602 48.634 2.16602C22.4992 2.16602 1.31274 23.3525 1.31274 49.4874C1.31274 75.6222 22.4992 96.8087 48.634 96.8087Z" fill="#003ED0"/>
<path d="M48.6336 87.9367C69.8678 87.9367 87.0815 70.723 87.0815 49.4889C87.0815 28.2547 69.8678 11.041 48.6336 11.041C27.3995 11.041 10.1858 28.2547 10.1858 49.4889C10.1858 70.723 27.3995 87.9367 48.6336 87.9367Z" fill="white"/>
<path d="M48.634 51.7878C49.9038 51.7878 50.9332 50.7584 50.9332 49.4886C50.9332 48.2188 49.9038 47.1895 48.634 47.1895C47.3642 47.1895 46.3348 48.2188 46.3348 49.4886C46.3348 50.7584 47.3642 51.7878 48.634 51.7878Z" fill="url(#paint1_linear)"/>
<path d="M49.5016 49.7716L48.0841 49.2953L60.8415 19.4375L62.259 20.1037L49.5016 49.7716Z" fill="url(#paint2_linear)"/>
<path d="M60.9929 19.712L48.506 49.2871L49.4149 49.6708L61.9018 20.0957L60.9929 19.712Z" fill="#2196F3"/>
<path d="M56.589 65.364L48.3676 50.0553L49.5015 49.4883L58.0064 64.5136L56.589 65.364Z" fill="url(#paint3_linear)"/>
<path d="M49.3913 49.5914L48.5244 50.0625L56.7394 65.18L57.6063 64.709L49.3913 49.5914Z" fill="#2196F3"/>
<path d="M84.4543 51.4622C84.9994 51.4622 85.4413 51.0204 85.4413 50.4753C85.4413 49.9302 84.9994 49.4883 84.4543 49.4883C83.9092 49.4883 83.4673 49.9302 83.4673 50.4753C83.4673 51.0204 83.9092 51.4622 84.4543 51.4622Z" fill="#508ACD"/>
<path d="M18.8892 32.4158C19.2431 31.8029 19.0331 31.0192 18.4202 30.6654C17.8073 30.3115 17.0236 30.5215 16.6698 31.1344C16.3159 31.7473 16.5259 32.531 17.1388 32.8848C17.7517 33.2387 18.5354 33.0287 18.8892 32.4158Z" fill="#508ACD"/>
<path d="M18.7488 69.36C19.3617 69.0061 19.5717 68.2224 19.2178 67.6096C18.864 66.9967 18.0803 66.7867 17.4674 67.1406C16.8545 67.4944 16.6445 68.2781 16.9984 68.891C17.3522 69.5038 18.1359 69.7138 18.7488 69.36Z" fill="#508ACD"/>
<path d="M12.8171 51.7563C13.5248 51.7563 14.0985 51.1825 14.0985 50.4748C14.0985 49.7671 13.5248 49.1934 12.8171 49.1934C12.1093 49.1934 11.5356 49.7671 11.5356 50.4748C11.5356 51.1825 12.1093 51.7563 12.8171 51.7563Z" fill="#508ACD"/>
<path d="M31.4975 19.7389C32.1103 19.3851 32.3203 18.6014 31.9665 17.9885C31.6126 17.3756 30.8289 17.1656 30.2161 17.5195C29.6032 17.8733 29.3932 18.657 29.747 19.2699C30.1009 19.8828 30.8846 20.0928 31.4975 19.7389Z" fill="#508ACD"/>
<path d="M49.2427 15.1412C49.8556 14.7874 50.0656 14.0037 49.7117 13.3908C49.3579 12.7779 48.5742 12.568 47.9613 12.9218C47.3484 13.2756 47.1384 14.0593 47.4923 14.6722C47.8461 15.2851 48.6298 15.4951 49.2427 15.1412Z" fill="#508ACD"/>
<path d="M66.9875 19.7409C67.6003 19.387 67.8103 18.6033 67.4565 17.9904C67.1026 17.3775 66.3189 17.1675 65.706 17.5214C65.0932 17.8753 64.8832 18.659 65.237 19.2718C65.5909 19.8847 66.3746 20.0947 66.9875 19.7409Z" fill="#508ACD"/>
<path d="M80.1317 32.8854C80.7446 32.5315 80.9546 31.7479 80.6008 31.135C80.2469 30.5221 79.4632 30.3121 78.8503 30.6659C78.2374 31.0198 78.0275 31.8035 78.3813 32.4164C78.7352 33.0292 79.5188 33.2392 80.1317 32.8854Z" fill="#508ACD"/>
<path d="M79.8047 69.3619C80.4176 69.0081 80.6276 68.2244 80.2738 67.6115C79.9199 66.9986 79.1362 66.7887 78.5233 67.1425C77.9104 67.4964 77.7004 68.28 78.0543 68.8929C78.4081 69.5058 79.1918 69.7158 79.8047 69.3619Z" fill="#508ACD"/>
<path d="M66.3302 82.1764C66.9431 81.8225 67.1531 81.0389 66.7992 80.426C66.4454 79.8131 65.6617 79.6031 65.0488 79.957C64.4359 80.3108 64.2259 81.0945 64.5798 81.7074C64.9336 82.3202 65.7173 82.5302 66.3302 82.1764Z" fill="#508ACD"/>
<path d="M49.241 86.1217C49.8539 85.7679 50.0639 84.9842 49.71 84.3713C49.3562 83.7584 48.5725 83.5484 47.9596 83.9023C47.3467 84.2561 47.1367 85.0398 47.4906 85.6527C47.8444 86.2656 48.6281 86.4756 49.241 86.1217Z" fill="#508ACD"/>
<path d="M32.1548 82.1784C32.7677 81.8245 32.9777 81.0408 32.6238 80.4279C32.27 79.8151 31.4863 79.6051 30.8734 79.9589C30.2605 80.3128 30.0505 81.0964 30.4044 81.7093C30.7582 82.3222 31.5419 82.5322 32.1548 82.1784Z" fill="#508ACD"/>
<path d="M48.6345 14.9838C49.1796 14.9838 49.6215 14.5419 49.6215 13.9968C49.6215 13.4517 49.1796 13.0098 48.6345 13.0098C48.0894 13.0098 47.6475 13.4517 47.6475 13.9968C47.6475 14.5419 48.0894 14.9838 48.6345 14.9838Z" fill="#508ACD"/>
<path d="M67.235 19.2455C67.5076 18.7734 67.3458 18.1698 66.8738 17.8972C66.4017 17.6247 65.798 17.7864 65.5255 18.2585C65.2529 18.7306 65.4147 19.3342 65.8868 19.6068C66.3588 19.8793 66.9625 19.7176 67.235 19.2455Z" fill="#508ACD"/>
<path d="M79.8625 32.5989C80.3346 32.3263 80.4964 31.7227 80.2238 31.2506C79.9513 30.7785 79.3476 30.6167 78.8755 30.8893C78.4035 31.1619 78.2417 31.7655 78.5143 32.2376C78.7868 32.7097 79.3905 32.8714 79.8625 32.5989Z" fill="#508ACD"/>
<path d="M80.0185 68.7436C80.291 68.2715 80.1293 67.6678 79.6572 67.3953C79.1851 67.1227 78.5815 67.2845 78.3089 67.7566C78.0364 68.2286 78.1981 68.8323 78.6702 69.1048C79.1423 69.3774 79.7459 69.2156 80.0185 68.7436Z" fill="#508ACD"/>
<path d="M66.1834 81.8547C66.6554 81.5822 66.8172 80.9785 66.5446 80.5064C66.2721 80.0343 65.6684 79.8726 65.1963 80.1452C64.7243 80.4177 64.5625 81.0214 64.8351 81.4935C65.1076 81.9655 65.7113 82.1273 66.1834 81.8547Z" fill="#508ACD"/>
<path d="M31.3817 19.6086C31.8538 19.3361 32.0155 18.7324 31.743 18.2603C31.4704 17.7883 30.8668 17.6265 30.3947 17.8991C29.9226 18.1716 29.7609 18.7753 30.0334 19.2474C30.306 19.7194 30.9096 19.8812 31.3817 19.6086Z" fill="#508ACD"/>
<path d="M18.7557 32.2377C19.0282 31.7656 18.8665 31.162 18.3944 30.8894C17.9223 30.6168 17.3187 30.7786 17.0461 31.2507C16.7736 31.7228 16.9353 32.3264 17.4074 32.599C17.8795 32.8715 18.4831 32.7098 18.7557 32.2377Z" fill="#508ACD"/>
<path d="M85.0634 51.6178C85.6763 51.264 85.8863 50.4803 85.5324 49.8674C85.1786 49.2545 84.3949 49.0445 83.782 49.3984C83.1691 49.7522 82.9591 50.5359 83.313 51.1488C83.6668 51.7617 84.4505 51.9717 85.0634 51.6178Z" fill="#508ACD"/>
<path d="M18.6018 69.1048C19.0739 68.8322 19.2356 68.2285 18.9631 67.7564C18.6905 67.2843 18.0869 67.1226 17.6148 67.3951C17.1427 67.6677 16.981 68.2714 17.2535 68.7435C17.5261 69.2156 18.1297 69.3773 18.6018 69.1048Z" fill="#508ACD"/>
<path d="M32.4333 81.4955C32.7058 81.0234 32.5441 80.4198 32.072 80.1472C31.5999 79.8747 30.9963 80.0364 30.7237 80.5085C30.4512 80.9806 30.6129 81.5842 31.085 81.8568C31.5571 82.1293 32.1607 81.9676 32.4333 81.4955Z" fill="#508ACD"/>
<path d="M12.8173 51.4622C13.3625 51.4622 13.8044 51.0204 13.8044 50.4753C13.8044 49.9302 13.3625 49.4883 12.8173 49.4883C12.2722 49.4883 11.8303 49.9302 11.8303 50.4753C11.8303 51.0204 12.2722 51.4622 12.8173 51.4622Z" fill="#508ACD"/>
<path d="M48.6345 85.9623C49.1796 85.9623 49.6215 85.5204 49.6215 84.9753C49.6215 84.4302 49.1796 83.9883 48.6345 83.9883C48.0894 83.9883 47.6475 84.4302 47.6475 84.9753C47.6475 85.5204 48.0894 85.9623 48.6345 85.9623Z" fill="#508ACD"/>
<path opacity="0.2" d="M12.159 53.1035C12.1616 44.6311 14.9621 36.3968 20.1255 29.6797C25.2889 22.9626 32.5262 18.1388 40.7129 15.9576C48.8997 13.7765 57.5776 14.3601 65.3986 17.6178C73.2195 20.8756 79.7456 26.6251 83.9631 33.9731C81.8936 29.1658 78.8645 24.8316 75.0613 21.2359C71.2581 17.6402 66.761 14.8587 61.8452 13.0618C56.9295 11.265 51.6987 10.4905 46.4732 10.7859C41.2477 11.0813 36.1375 12.4403 31.4556 14.7797C26.7737 17.1191 22.6186 20.3897 19.2449 24.3911C15.8712 28.3924 13.3498 33.0404 11.8352 38.0503C10.3207 43.0602 9.84474 48.3266 10.4366 53.5269C11.0285 58.7272 12.6758 63.7518 15.2775 68.2932C13.2137 63.4954 12.1524 58.3263 12.159 53.1035V53.1035Z" fill="#003ED0"/>
<path d="M48.6339 51.1323C49.542 51.1323 50.2782 50.3961 50.2782 49.488C50.2782 48.5799 49.542 47.8438 48.6339 47.8438C47.7258 47.8438 46.9896 48.5799 46.9896 49.488C46.9896 50.3961 47.7258 51.1323 48.6339 51.1323Z" fill="#508ACD"/>
<defs>
<linearGradient id="paint0_linear" x1="16686.3" y1="64202.4" x2="16686.3" y2="30829.9" gradientUnits="userSpaceOnUse">
<stop stop-color="#808080" stop-opacity="0.25"/>
<stop offset="0.54" stop-color="#808080" stop-opacity="0.12"/>
<stop offset="1" stop-color="#808080" stop-opacity="0.1"/>
</linearGradient>
<linearGradient id="paint1_linear" x1="835.177" y1="2330.76" x2="835.177" y2="2256.13" gradientUnits="userSpaceOnUse">
<stop stop-color="#808080" stop-opacity="0.25"/>
<stop offset="0.54" stop-color="#808080" stop-opacity="0.12"/>
<stop offset="1" stop-color="#808080" stop-opacity="0.1"/>
</linearGradient>
<linearGradient id="paint2_linear" x1="2806.65" y1="14868" x2="2806.65" y2="11622.2" gradientUnits="userSpaceOnUse">
<stop stop-color="#808080" stop-opacity="0.25"/>
<stop offset="0.54" stop-color="#808080" stop-opacity="0.12"/>
<stop offset="1" stop-color="#808080" stop-opacity="0.1"/>
</linearGradient>
<linearGradient id="paint3_linear" x1="1856.72" y1="8693.84" x2="1856.72" y2="7804.8" gradientUnits="userSpaceOnUse">
<stop stop-color="#808080" stop-opacity="0.25"/>
<stop offset="0.54" stop-color="#808080" stop-opacity="0.12"/>
<stop offset="1" stop-color="#808080" stop-opacity="0.1"/>
</linearGradient>
</defs>
</svg>
