<svg width="1166" height="245" viewBox="0 0 1166 245" fill="none" xmlns="http://www.w3.org/2000/svg">
<g opacity="0.4">
<path opacity="0.1" d="M0 27.3088L32.3889 17.9075C64.7778 7.79662 129.556 -9.94169 194.333 8.32879C259.111 27.3088 323.889 84.0714 388.667 121.854C453.444 160.346 518.222 178.085 583 188.195C647.778 197.597 712.556 197.597 777.333 178.617C842.111 160.346 906.889 121.322 971.667 121.854C1036.44 121.322 1101.22 160.346 1133.61 178.617L1166 197.597V367.885H1133.61C1101.22 367.885 1036.44 367.885 971.667 367.885C906.889 367.885 842.111 367.885 777.333 367.885C712.556 367.885 647.778 367.885 583 367.885C518.222 367.885 453.444 367.885 388.667 367.885C323.889 367.885 259.111 367.885 194.333 367.885C129.556 367.885 64.7778 367.885 32.3889 367.885H0V27.3088Z" fill="#828282"/>
<path opacity="0.1" d="M0 138.651L32.3889 132.323C64.7778 125.518 129.556 113.578 194.333 125.876C259.111 138.651 323.889 176.856 388.667 202.287C453.444 228.195 518.222 240.135 583 246.94C647.778 253.268 712.556 253.268 777.333 240.493C842.111 228.195 906.889 201.929 971.667 202.287C1036.44 201.929 1101.22 228.195 1133.61 240.493L1166 253.268V367.885H1133.61C1101.22 367.885 1036.44 367.885 971.667 367.885C906.889 367.885 842.111 367.885 777.333 367.885C712.556 367.885 647.778 367.885 583 367.885C518.222 367.885 453.444 367.885 388.667 367.885C323.889 367.885 259.111 367.885 194.333 367.885C129.556 367.885 64.7778 367.885 32.3889 367.885H0V138.651Z" fill="#828282"/>
<path opacity="0.1" d="M0 228.161L32.3889 224.304C64.7778 220.156 129.556 212.879 194.333 220.374C259.111 228.161 323.889 251.448 388.667 266.949C453.444 282.741 518.222 290.018 583 294.166C647.778 298.023 712.556 298.023 777.333 290.236C842.111 282.741 906.889 266.731 971.667 266.949C1036.44 266.731 1101.22 282.741 1133.61 290.236L1166 298.023V367.884H1133.61C1101.22 367.884 1036.44 367.884 971.667 367.884C906.889 367.884 842.111 367.884 777.333 367.884C712.556 367.884 647.778 367.884 583 367.884C518.222 367.884 453.444 367.884 388.667 367.884C323.889 367.884 259.111 367.884 194.333 367.884C129.556 367.884 64.7778 367.884 32.3889 367.884H0V228.161Z" fill="#828282"/>
</g>
</svg>
