<svg width="44" height="44" viewBox="0 0 44 44" fill="none" xmlns="http://www.w3.org/2000/svg">
<g filter="url(#filter0_d_637_32523)">
<rect x="6" y="3" width="32" height="32" rx="4" fill="#1452E4" shape-rendering="crispEdges"/>
<path d="M18.22 19.7199C18.0793 19.5793 18.0002 19.3887 18 19.1899V18.8099C18.0023 18.6114 18.0811 18.4216 18.22 18.2799L23.36 13.1499C23.4539 13.0552 23.5817 13.002 23.715 13.002C23.8483 13.002 23.9761 13.0552 24.07 13.1499L24.78 13.8599C24.8741 13.952 24.9271 14.0782 24.9271 14.2099C24.9271 14.3415 24.8741 14.4677 24.78 14.5599L20.33 18.9999L24.78 23.4399C24.8747 23.5337 24.9279 23.6615 24.9279 23.7949C24.9279 23.9282 24.8747 24.056 24.78 24.1499L24.07 24.8499C23.9761 24.9445 23.8483 24.9978 23.715 24.9978C23.5817 24.9978 23.4539 24.9445 23.36 24.8499L18.22 19.7199Z" fill="white"/>
</g>
<defs>
<filter id="filter0_d_637_32523" x="0" y="0" width="44" height="44" filterUnits="userSpaceOnUse" color-interpolation-filters="sRGB">
<feFlood flood-opacity="0" result="BackgroundImageFix"/>
<feColorMatrix in="SourceAlpha" type="matrix" values="0 0 0 0 0 0 0 0 0 0 0 0 0 0 0 0 0 0 127 0" result="hardAlpha"/>
<feOffset dy="3"/>
<feGaussianBlur stdDeviation="3"/>
<feComposite in2="hardAlpha" operator="out"/>
<feColorMatrix type="matrix" values="0 0 0 0 0 0 0 0 0 0 0 0 0 0 0 0 0 0 0.1 0"/>
<feBlend mode="normal" in2="BackgroundImageFix" result="effect1_dropShadow_637_32523"/>
<feBlend mode="normal" in="SourceGraphic" in2="effect1_dropShadow_637_32523" result="shape"/>
</filter>
</defs>
</svg>
