<svg width="25" height="25" viewBox="0 0 25 25" fill="none" xmlns="http://www.w3.org/2000/svg">
<path d="M8.5762 7.57129C8.90945 7.45852 9.21261 7.27124 9.46262 7.02371C9.71263 6.77618 9.90291 6.4749 10.019 6.14278C10.1099 5.89815 10.129 5.63263 10.0741 5.3775C9.98251 5.33601 9.88571 5.30718 9.78635 5.29179C9.70239 5.26882 9.61616 5.25513 9.52922 5.25098C9.39051 5.38799 9.26163 5.53461 9.14352 5.68973C8.99627 5.87584 8.83961 6.05429 8.67415 6.22441C8.50412 6.39124 8.32566 6.54927 8.13948 6.69786C7.97998 6.81752 7.82926 6.94846 7.68848 7.08968C7.69402 7.18697 7.70975 7.28341 7.73541 7.37742C7.74901 7.46087 7.77444 7.54195 7.81092 7.61823C8.06525 7.67612 8.33085 7.65983 8.5762 7.57129Z" fill="#2B2B2B"/>
<path d="M17.3773 11.6628C17.4693 11.7026 17.566 11.7307 17.665 11.7465C17.7491 11.7694 17.8352 11.7838 17.9221 11.7894C18.1609 11.5853 18.4058 11.2057 18.7078 10.8772C19.0099 10.5486 19.3568 10.2649 19.5384 9.99964C19.5218 9.9028 19.4958 9.8078 19.4609 9.71598C19.4391 9.6346 19.4069 9.5564 19.3649 9.48334C19.1272 9.4446 18.8833 9.4758 18.6629 9.57313C18.3641 9.69623 18.0962 9.88394 17.8785 10.1228C17.6608 10.3617 17.4987 10.6458 17.4038 10.9547C17.3268 11.1832 17.3176 11.4292 17.3773 11.6628Z" fill="#2B2B2B"/>
<path d="M17.8794 6.90389C18.0956 7.14404 18.3626 7.33297 18.661 7.45692C18.8811 7.5553 19.1249 7.5879 19.363 7.5508C19.4118 7.4633 19.4495 7.37007 19.4753 7.27326C19.509 7.1917 19.5343 7.10691 19.5508 7.02021C19.361 6.76512 19.008 6.48349 18.71 6.1529C18.4121 5.8223 18.157 5.44476 17.9182 5.23865C17.8202 5.24623 17.7231 5.26332 17.6284 5.28967C17.5453 5.3036 17.4644 5.3283 17.3876 5.36313C17.3262 5.59636 17.334 5.8424 17.4101 6.07127C17.5027 6.38022 17.6631 6.66465 17.8794 6.90389Z" fill="#2B2B2B"/>
<path d="M10.5538 11.5732L10.962 11.2058L11.166 11.0201L11.217 10.9732L11.2844 10.9059C11.3331 10.8591 11.3781 10.8086 11.4191 10.7548C11.6699 10.4341 11.8023 10.0365 11.7938 9.62941C11.7853 9.22229 11.6365 8.83059 11.3725 8.52054C11.1086 8.21049 10.7456 8.00111 10.3451 7.9278C9.94453 7.8545 9.53095 7.92176 9.17427 8.11822C9.11713 8.15087 9.06203 8.1876 9.00898 8.22434C8.95592 8.26107 8.89673 8.31005 8.86612 8.33862L8.66205 8.51616L8.26411 8.86717L7.51108 9.54877C6.54581 10.4385 5.73768 11.2099 5.23158 11.765C5.19688 11.8038 5.25198 11.9303 5.35402 12.0446C5.45606 12.1589 5.54585 12.2058 5.58462 12.1793C6.21521 11.7711 7.11517 11.0997 8.1437 10.2896L8.93959 9.66101L9.34774 9.32837L9.55181 9.15899C9.58854 9.12838 9.59875 9.12634 9.6212 9.10593L9.6865 9.06716C9.77679 9.02129 9.87607 8.99586 9.9773 8.99269C10.0785 8.98951 10.1792 9.00867 10.2722 9.04879C10.3646 9.09001 10.4466 9.15135 10.5123 9.22831C10.5779 9.30528 10.6256 9.39594 10.6518 9.49367C10.6773 9.59167 10.6803 9.6942 10.6606 9.79353C10.6408 9.89287 10.5987 9.98641 10.5375 10.0671C10.5233 10.0879 10.5068 10.107 10.4885 10.1243L10.4579 10.1569L10.4069 10.2038L10.2028 10.3936L9.8069 10.7712C9.28243 11.2712 8.78654 11.7609 8.31513 12.2221L8.1437 12.3936L8.05799 12.4793C8.00902 12.7282 8.16207 11.9262 7.94983 13.0364V13.0486L7.96208 13.0711L7.98657 13.118C8.04764 13.2395 8.10214 13.3641 8.14983 13.4915C8.24133 13.7306 8.30967 13.978 8.3539 14.2302C8.41941 14.6464 8.42422 15.0698 8.36819 15.4873C8.36819 15.5363 8.48247 15.6118 8.63552 15.6506C8.78858 15.6893 8.89061 15.6771 8.91102 15.6302C9.08534 15.1649 9.16446 14.6694 9.14366 14.1731C9.13418 13.8568 9.089 13.5425 9.00898 13.2364C8.98653 13.1547 8.96204 13.0711 8.93551 12.9894L8.98245 12.9486C9.48651 12.5201 10.013 12.0568 10.5538 11.5732Z" fill="#2B2B2B"/>
<path d="M22 4.22852C21.9851 4.00925 21.9157 3.79717 21.7981 3.61151C21.6805 3.42585 21.5184 3.27247 21.3266 3.1653C21.1339 3.05925 20.9179 3.00247 20.698 3H19.5634H18.0614L15.0982 3.01224L9.50255 3.0653L6.96592 3.10408C6.8453 3.10278 6.72471 3.10823 6.60471 3.1204C6.3737 3.15454 6.15778 3.25567 5.98367 3.41128C5.80956 3.56689 5.68491 3.77014 5.62515 3.99588C5.60594 4.06801 5.59364 4.14181 5.58842 4.21628V4.39178V4.6734L5.60066 5.2244C5.61563 5.81349 5.63128 6.36925 5.6476 6.89168C5.39455 7.07943 5.09048 7.32432 4.74968 7.6141L4.20888 8.08551L4.06603 8.21407L3.9089 8.36509C3.80165 8.47413 3.70081 8.58928 3.60687 8.70997C3.19584 9.23869 2.92742 9.86406 2.82731 10.5262C2.8016 10.6999 2.78729 10.8751 2.78445 11.0507V11.518V12.4547C2.78445 14.7873 2.86812 17.1198 3.03546 18.4381L2.4763 18.4586H2.43141C2.37143 18.4617 2.31267 18.4766 2.25851 18.5026C2.20434 18.5285 2.15585 18.5649 2.11582 18.6097C2.0758 18.6545 2.04503 18.7067 2.02529 18.7634C2.00555 18.8202 1.99723 18.8802 2.00081 18.9402C2.04775 20.1809 2.11509 21.185 2.20488 21.8666C2.20488 21.9196 2.34365 21.9605 2.49875 21.9564C2.65385 21.9523 2.74568 21.9135 2.7518 21.8666C2.82527 21.2727 2.88649 20.4381 2.93138 19.4299C5.5272 19.5218 8.874 19.5238 11.4759 19.4299C11.5208 20.4319 11.58 21.2666 11.6535 21.8584C11.6535 21.9135 11.7963 21.9543 11.9535 21.9503C12.1106 21.9462 12.2045 21.9135 12.2045 21.8666C12.2902 21.1748 12.3555 20.1667 12.4086 18.9422C12.413 18.8208 12.369 18.7025 12.2864 18.6134C12.2038 18.5242 12.0892 18.4715 11.9678 18.4667H11.931L11.0168 18.4361C11.0603 18.2896 11.0937 18.1403 11.1168 17.9892L11.1413 17.9749C11.237 17.9165 11.3296 17.8531 11.4188 17.7851C11.9715 17.3676 12.3722 16.7806 12.5596 16.1138C12.6576 15.7948 12.6716 15.456 12.6004 15.1301C12.507 15.0912 12.4076 15.0691 12.3065 15.0648C12.2205 15.0482 12.1324 15.0448 12.0453 15.0546C11.8188 15.4077 11.529 16.0525 11.0719 16.577C10.9621 16.7094 10.8449 16.8354 10.7209 16.9545C10.6617 17.0158 10.5984 17.0688 10.5392 17.126L10.4474 17.2055L10.425 17.226H10.4148L10.1637 17.6668V17.7341C10.1919 17.9636 10.2397 18.1903 10.3066 18.4116C8.16995 18.3626 5.72311 18.3667 3.63544 18.4259C3.7987 17.1056 3.88237 14.7852 3.88237 12.4629V11.5262V11.065C3.87678 10.4357 4.0571 9.81879 4.40071 9.29158C4.46398 9.19159 4.53336 9.09975 4.60479 9.00996L4.71703 8.87731L4.84559 8.73446L5.32312 8.19367C5.45169 8.04265 5.57005 7.90184 5.67821 7.76715C5.6925 8.1753 5.70882 8.58345 5.72719 8.93241C5.73075 8.96813 5.74136 9.00279 5.75841 9.03438C5.77545 9.06597 5.79859 9.09387 5.82649 9.11645C5.85439 9.13904 5.8865 9.15587 5.92095 9.16596C5.95539 9.17605 5.9915 9.17922 6.02718 9.17526C6.09262 9.17353 6.15515 9.14786 6.20292 9.1031C6.25069 9.05834 6.28038 8.9976 6.28635 8.93241C6.33329 7.93041 6.3741 6.67536 6.41084 5.23052L6.42308 4.67952V4.3979V4.32648V4.28974C6.42584 4.26892 6.43062 4.24841 6.43737 4.22852C6.46387 4.14869 6.52016 4.08217 6.5945 4.04281C6.68225 4.002 6.69858 4.00404 6.95163 4.01016L9.48826 4.04894L15.0962 4.1122H18.0593H19.5613H20.6878C20.7206 4.1127 20.7528 4.1211 20.7817 4.13669C20.8096 4.15307 20.8333 4.17586 20.8507 4.20318C20.868 4.23051 20.8787 4.26158 20.8817 4.29383V5.01012C20.8817 5.51214 20.8817 6.0128 20.8817 6.5121L20.896 9.47525L20.9184 12.3445V12.6935C20.9196 12.7501 20.9014 12.8054 20.8669 12.8503C20.8324 12.8952 20.7836 12.927 20.7286 12.9404C20.7062 12.9424 20.6837 12.9424 20.6613 12.9404H20.4919H20.1552H19.4899C15.9696 12.9894 12.9596 13.0608 10.9515 13.1547C10.9166 13.1582 10.8827 13.1687 10.8518 13.1854C10.821 13.2022 10.7938 13.2249 10.7717 13.2522C10.7497 13.2795 10.7334 13.311 10.7236 13.3447C10.7138 13.3784 10.7108 13.4137 10.7147 13.4486C10.7165 13.5124 10.7415 13.5734 10.7851 13.62C10.8287 13.6666 10.8879 13.6956 10.9515 13.7016C12.9555 13.7975 15.9696 13.8689 19.4899 13.9159H20.1552H20.4919H20.6613C20.7523 13.9164 20.8432 13.9082 20.9327 13.8914C21.2189 13.8338 21.4766 13.6794 21.6624 13.4542C21.8482 13.229 21.9508 12.9467 21.9531 12.6547V12.3057L21.9755 9.43647L22 6.52231C22 6.02301 22 5.52235 22 5.02033V4.31627V4.22852Z" fill="#2B2B2B"/>
<path d="M19.8916 15.273C19.7569 15.2261 19.6467 15.2036 19.6324 15.222C19.5125 15.3925 19.4034 15.5704 19.3059 15.7546L19.2181 15.9199L19.1732 16.0056C19.1651 16.0201 19.1555 16.0338 19.1447 16.0465C19.1085 16.0864 19.0629 16.1166 19.012 16.1342C18.9633 16.1476 18.9118 16.1476 18.863 16.1342C18.8392 16.1274 18.816 16.1185 18.7937 16.1077L18.5712 16.0158C18.2712 15.8934 17.959 15.775 17.6488 15.6608C16.3978 15.2036 15.1122 14.8445 14.4244 14.7894C14.4 14.7894 14.3387 14.9057 14.2877 15.0506C14.2367 15.1955 14.2204 15.2873 14.2387 15.3016C14.7959 15.7097 16.0142 16.2567 17.2651 16.7138C17.5774 16.8281 17.8917 16.9383 18.1998 17.0383L18.4284 17.1117C18.5544 17.1526 18.6857 17.1746 18.8181 17.177C19.0705 17.1814 19.3182 17.1088 19.5283 16.9689C19.7186 16.841 19.8681 16.6611 19.9589 16.4505C19.9777 16.4045 19.9941 16.3575 20.0079 16.3097L20.0303 16.2158L20.0691 16.0342C20.1131 15.8323 20.1445 15.6278 20.163 15.422C20.163 15.3893 20.0385 15.3363 19.8916 15.273Z" fill="#2B2B2B"/>
<path d="M17.7999 18.3973C17.6958 18.3014 17.5958 18.2341 17.5958 18.2422C17.4427 18.3264 17.296 18.4219 17.1571 18.5279C17.0754 18.5871 16.9918 18.6545 16.904 18.732L16.8387 18.7871L16.8061 18.8055C16.7857 18.8144 16.7645 18.8212 16.7428 18.8259C16.7028 18.8347 16.6614 18.8346 16.6215 18.8254C16.5816 18.8162 16.5443 18.7982 16.5122 18.7728L16.3081 18.5688L16.0102 18.281C15.1939 17.5219 14.3327 16.8321 13.8001 16.5933C13.7817 16.5933 13.6797 16.6709 13.5756 16.7852C13.4715 16.8994 13.4184 16.9749 13.4266 16.9892C13.696 17.5055 14.447 18.3361 15.2429 19.0973L15.5469 19.3789L15.7 19.5157L15.7428 19.5524L15.8102 19.6075C15.8563 19.6432 15.9047 19.6759 15.9551 19.7054C16.144 19.8145 16.3583 19.8719 16.5765 19.8719C16.7946 19.8719 17.0089 19.8145 17.1979 19.7054C17.2824 19.656 17.3605 19.5963 17.4305 19.5279C17.4632 19.4952 17.4958 19.4585 17.5224 19.4259L17.5734 19.3565C17.6387 19.2646 17.6999 19.1769 17.755 19.0932C17.8526 18.9482 17.9392 18.7961 18.0142 18.6381C18.004 18.6014 17.9183 18.4953 17.7999 18.3973Z" fill="#2B2B2B"/>
<path d="M14.5764 9.69366C14.373 9.8573 14.135 9.97246 13.8805 10.0304C13.6697 10.0727 13.4539 10.0844 13.2397 10.0651C13.2152 10.0651 13.1479 10.1814 13.0948 10.3263C13.0418 10.4712 13.0316 10.5651 13.0581 10.5793C13.3245 10.7321 13.6246 10.8162 13.9315 10.8242C14.3488 10.8349 14.7605 10.7274 15.1192 10.514C15.545 10.2573 15.8775 9.87119 16.0682 9.41204C16.275 8.91365 16.3068 8.3599 16.1586 7.84108C16.0104 7.32225 15.6908 6.86893 15.2519 6.55501C14.8478 6.26496 14.3615 6.11192 13.8642 6.11829C13.4466 6.1227 13.0392 6.2474 12.6908 6.47746C12.4342 6.64532 12.2237 6.87473 12.0785 7.14478C12.0622 7.17539 12.154 7.27743 12.2826 7.3713C12.4112 7.46518 12.4989 7.51007 12.5173 7.49579C12.6859 7.3611 12.8737 7.25242 13.0744 7.17335C13.319 7.08702 13.5805 7.05975 13.8377 7.09377C14.1196 7.12725 14.3863 7.23973 14.607 7.41824C14.8365 7.60528 15.0031 7.8581 15.0845 8.1427C15.1672 8.42714 15.1593 8.73023 15.0621 9.01001C14.9677 9.27903 14.7993 9.51597 14.5764 9.69366Z" fill="#2B2B2B"/>
</svg>
