<svg width="72" height="72" viewBox="0 0 72 72" fill="none"
    xmlns="http://www.w3.org/2000/svg">
    <path d="M36 36C42.6 36 48 30.6 48 24C48 17.4 42.6 12 36 12C29.4 12 24 17.4 24 24C24 30.6 29.4 36 36 36ZM36 20C38.2 20 40 21.8 40 24C40 26.2 38.2 28 36 28C33.8 28 32 26.2 32 24C32 21.8 33.8 20 36 20ZM60 54.32C60 44.32 44.12 40 36 40C27.88 40 12 44.32 12 54.32V60H60V54.32ZM21.92 52C24.88 49.96 30.84 48 36 48C41.16 48 47.12 49.96 50.08 52H21.92ZM64 0H8C3.56 0 0 3.6 0 8V64C0 68.4 3.56 72 8 72H64C68.4 72 72 68.4 72 64V8C72 3.6 68.4 0 64 0ZM64 64H8V8H64V64Z" fill="#003ED0"/>
</svg>
