<svg width="25" height="25" viewBox="0 0 25 25" fill="none" xmlns="http://www.w3.org/2000/svg">
<path d="M22.6142 19.458L22.6002 18.172V18.16C22.5994 18.1015 22.5871 18.0438 22.5639 17.9901C22.5407 17.9364 22.5072 17.8878 22.4652 17.8471C22.4232 17.8064 22.3736 17.7744 22.3192 17.7529C22.2648 17.7314 22.2067 17.7209 22.1482 17.722L20.9202 17.744C21.0942 16.344 21.1822 13.722 21.1842 11.096C21.1842 10.416 21.1842 9.734 21.1682 9.076V8.586V8.4V8.324C21.1628 8.20399 21.1426 8.08509 21.1082 7.97C21.0298 7.6953 20.8737 7.44911 20.6587 7.26105C20.4437 7.07299 20.1789 6.95108 19.8962 6.91C19.8439 6.90202 19.7911 6.89735 19.7382 6.896C19.6862 6.896 19.6282 6.896 19.6002 6.896L19.1802 6.916L18.4022 6.964C17.9702 6.994 17.6022 7.03 17.2762 7.07C17.2902 6.986 17.3022 6.902 17.3102 6.814C17.3447 6.35704 17.3075 5.8975 17.2002 5.452C17.098 4.97681 16.9117 4.5237 16.6502 4.114C16.0909 3.23765 15.2265 2.59986 14.2242 2.324C13.177 2.03011 12.058 2.13559 11.0842 2.62C10.2837 3.02211 9.62834 3.66366 9.20932 4.45546C8.7903 5.24726 8.62842 6.14994 8.74618 7.038C8.49018 7.012 8.20818 6.988 7.89618 6.966L7.09618 6.918L6.66818 6.898H6.44818C6.41618 6.898 6.34618 6.898 6.29618 6.898C6.24618 6.898 6.18618 6.91 6.13018 6.916C5.9001 6.95618 5.68253 7.04939 5.49472 7.18825C5.30692 7.32711 5.15403 7.5078 5.04818 7.716C4.99339 7.82536 4.95176 7.94083 4.92418 8.06C4.91218 8.12 4.90018 8.182 4.89618 8.244C4.89218 8.306 4.89618 8.38 4.89618 8.41V8.91C4.88418 9.582 4.88018 10.274 4.88018 10.968C4.88018 13.602 4.96618 16.234 5.13618 17.674L3.91618 17.662C3.84916 17.6604 3.7825 17.6722 3.72009 17.6967C3.65768 17.7212 3.60078 17.7579 3.55273 17.8046C3.50468 17.8514 3.46644 17.9072 3.44024 17.9689C3.41405 18.0306 3.40043 18.097 3.40018 18.164L3.38818 19.564V19.928C3.38956 20.0936 3.41242 20.2583 3.45618 20.418C3.54664 20.745 3.72311 21.0418 3.96723 21.2775C4.21134 21.5132 4.51417 21.6791 4.84418 21.758C4.9272 21.7778 5.01136 21.7925 5.09618 21.802H5.22418H5.70418H7.20018H13.2822L19.2442 21.8H20.6662H20.7542H20.8662C20.9454 21.7963 21.0243 21.7869 21.1022 21.772C21.258 21.7433 21.4093 21.6943 21.5522 21.626C21.8346 21.4938 22.0789 21.2922 22.2622 21.04C22.4457 20.7895 22.562 20.4962 22.6002 20.188C22.6113 20.1138 22.6173 20.039 22.6182 19.964C22.6182 19.886 22.6182 19.846 22.6182 19.786L22.6142 19.458ZM9.98618 5.418C10.2649 4.62431 10.8376 3.96785 11.5862 3.584C12.3219 3.21122 13.1691 3.12223 13.9662 3.334C14.7275 3.53129 15.3904 4.00003 15.8302 4.652C16.0397 4.96131 16.1927 5.30529 16.2822 5.668C16.3737 6.0196 16.4108 6.38316 16.3922 6.746C16.3504 7.41895 16.1096 8.06429 15.7002 8.6C15.3465 9.07009 14.8802 9.44357 14.3442 9.686L14.3202 9.696C14.2601 9.72118 14.2089 9.76379 14.1733 9.81833C14.1376 9.87288 14.1191 9.93685 14.1202 10.002L14.1422 10.686L13.6002 11.304C13.5611 11.3601 13.5453 11.4292 13.5561 11.4967C13.5669 11.5642 13.6035 11.6249 13.6582 11.666C13.6811 11.6855 13.7067 11.7017 13.7342 11.714L13.7222 11.726L13.7082 11.714C13.6842 11.692 13.6622 11.662 13.6342 11.636C13.6191 11.6234 13.6013 11.6143 13.5823 11.6095C13.5632 11.6048 13.5432 11.6044 13.524 11.6084C13.5047 11.6125 13.4866 11.6208 13.4711 11.6329C13.4555 11.6449 13.4429 11.6604 13.4342 11.678C13.4166 11.7079 13.4056 11.7412 13.4018 11.7757C13.398 11.8101 13.4015 11.845 13.4122 11.878C13.4245 11.9173 13.4442 11.954 13.4702 11.986C13.4769 11.9982 13.4849 12.0096 13.4942 12.02L13.8562 12.42L13.9702 12.544L14.0002 12.578V12.6C14.0009 12.6053 14.0009 12.6107 14.0002 12.616C14.0042 12.628 14.0044 12.641 14.0009 12.6531C13.9973 12.6653 13.9901 12.6761 13.9802 12.684C13.8302 12.82 13.6762 12.964 13.3942 13.232L13.3822 13.244C13.3155 13.31 13.2709 13.3952 13.2548 13.4876C13.2387 13.5801 13.2518 13.6753 13.2922 13.76C13.3127 13.8026 13.3397 13.8417 13.3722 13.876L13.3982 13.904L13.4462 13.956L13.6462 14.178L14.0722 14.632V14.974L13.4942 15.52L13.1322 15.864L13.0382 15.954L12.9702 15.882L12.5942 15.482L12.2082 15.082L12.0782 14.948C12.1042 13.41 12.1262 11.748 12.1402 9.994C12.1411 9.88987 12.1112 9.7878 12.0543 9.70061C11.9973 9.61342 11.9159 9.54502 11.8202 9.504H11.8082C11.4381 9.34373 11.0995 9.11889 10.8082 8.84C10.3584 8.40784 10.0418 7.85592 9.89576 7.2495C9.74973 6.64308 9.78042 6.00753 9.98418 5.418H9.98618ZM21.6682 19.786C21.6682 19.836 21.6682 19.908 21.6682 19.94C21.6669 19.9763 21.6629 20.0124 21.6562 20.048C21.6343 20.1939 21.575 20.3317 21.4842 20.448C21.3951 20.5657 21.2773 20.6586 21.1422 20.718C21.0753 20.7481 21.0047 20.7689 20.9322 20.78C20.8958 20.7863 20.8591 20.7896 20.8222 20.79H20.6722L19.2502 20.778L13.2882 20.746H7.20018H5.70418H5.20018C5.16322 20.742 5.12651 20.7359 5.09018 20.728C4.94106 20.6992 4.80271 20.63 4.69018 20.528C4.58149 20.4253 4.5021 20.2955 4.46018 20.152C4.43964 20.0811 4.42822 20.0078 4.42618 19.934V19.584V18.68C6.82618 18.658 8.91818 18.628 10.7262 18.59V18.722C10.7264 18.7894 10.7344 18.8565 10.7502 18.922C10.7812 19.0492 10.8422 19.1672 10.9282 19.266C11.0141 19.3649 11.1225 19.4417 11.2442 19.49C11.3034 19.5133 11.3652 19.5294 11.4282 19.538C11.4808 19.5426 11.5336 19.5426 11.5862 19.538H11.9702L13.3482 19.506L14.5062 19.47C14.6497 19.4651 14.7885 19.4178 14.9053 19.3342C15.022 19.2506 15.1114 19.1343 15.1622 19C15.184 18.9354 15.1967 18.8681 15.2002 18.8C15.2017 18.7707 15.2017 18.7413 15.2002 18.712V18.674C15.1936 18.6244 15.1822 18.5755 15.1662 18.528C15.1374 18.4638 15.1018 18.4028 15.0602 18.346C15.0179 18.2739 14.9676 18.2068 14.9102 18.146C14.8202 18.056 14.7102 18.114 14.6822 18.298C14.6662 18.4 14.6542 18.498 14.6482 18.616V18.698C14.6493 18.7086 14.6493 18.7194 14.6482 18.73C14.6449 18.7432 14.6402 18.7559 14.6342 18.768C14.6211 18.792 14.6012 18.8115 14.577 18.8239C14.5527 18.8364 14.5253 18.8413 14.4982 18.838L13.3402 18.802L11.9622 18.77H11.5782C11.5322 18.77 11.5462 18.77 11.5382 18.77C11.5326 18.7664 11.5278 18.7616 11.5242 18.756C11.5225 18.7501 11.5225 18.7439 11.5242 18.738V18.616V18.178C11.5242 18.074 11.4837 17.974 11.4113 17.8993C11.3389 17.8246 11.2402 17.7811 11.1362 17.778H11.1202C9.54818 17.7433 7.74818 17.7147 5.72018 17.692C5.89018 16.254 5.97418 13.618 5.97618 10.98C5.97618 10.286 5.97618 9.594 5.96018 8.922V8.422V8.342C5.96018 8.322 5.96018 8.302 5.96018 8.282C5.96728 8.24287 5.97869 8.20463 5.99418 8.168C6.02502 8.09419 6.07217 8.02832 6.13209 7.97533C6.19202 7.92233 6.26316 7.88359 6.34018 7.862C6.38276 7.85111 6.4263 7.84442 6.47018 7.842H6.69018L7.11818 7.822L7.91818 7.774C8.28418 7.748 8.61218 7.72 8.89818 7.688C8.95782 7.90383 9.03473 8.11452 9.12818 8.318C9.35973 8.81562 9.68343 9.26487 10.0822 9.642C10.3872 9.9273 10.7314 10.1677 11.1042 10.356C11.1042 11.98 11.1242 13.534 11.1422 14.972V15.066C11.1422 15.084 11.1422 15.102 11.1422 15.12C11.1455 15.1557 11.1515 15.1912 11.1602 15.226C11.1849 15.3306 11.2327 15.4283 11.3002 15.512L11.3362 15.552L11.3602 15.576L11.5602 15.776L11.9602 16.164L12.3602 16.542L12.5602 16.728L12.6082 16.774L12.6322 16.796L12.6682 16.828L12.7162 16.866C12.817 16.9366 12.9371 16.9744 13.0602 16.9744C13.1833 16.9744 13.3033 16.9366 13.4042 16.866C13.4364 16.8441 13.4665 16.8194 13.4942 16.792L13.5162 16.768L13.6062 16.674L13.7822 16.49L14.1282 16.13L14.7822 15.444L14.7962 15.428C14.8638 15.357 14.9005 15.262 14.8982 15.164L14.8842 14.502V14.482C14.8817 14.389 14.8429 14.3008 14.7762 14.236L14.2102 13.686L14.0802 13.562C14.2542 13.38 14.3662 13.26 14.4802 13.144C14.5794 13.043 14.6445 12.9135 14.6664 12.7736C14.6883 12.6337 14.6658 12.4905 14.6022 12.364C14.5755 12.3111 14.5419 12.262 14.5022 12.218L14.4722 12.188L14.4542 12.172L14.4202 12.14L14.2962 12.024L13.9402 11.72C13.9581 11.7131 13.9749 11.7037 13.9902 11.692L14.6982 11.028C14.7257 11.0023 14.7478 10.9714 14.7633 10.937C14.7787 10.9027 14.7872 10.8656 14.7882 10.828V10.8L14.8002 10.238C15.3527 10.0001 15.8464 9.64402 16.2465 9.19483C16.6466 8.74564 16.9435 8.21424 17.1162 7.638C17.4542 7.684 17.8802 7.724 18.3682 7.76L19.1462 7.808L19.5662 7.828C19.5915 7.82625 19.6169 7.82625 19.6422 7.828C19.6618 7.83049 19.6812 7.8345 19.7002 7.84C19.7381 7.84972 19.7749 7.86312 19.8102 7.88C19.8805 7.91518 19.9421 7.96555 19.9905 8.02747C20.0389 8.08938 20.073 8.1613 20.0902 8.238C20.0991 8.276 20.1032 8.31498 20.1022 8.354V8.58V9.07C20.0902 9.73 20.0862 10.41 20.0862 11.09C20.0862 13.726 20.1762 16.356 20.3502 17.752C18.1502 17.81 16.3322 17.902 15.0082 17.968C14.8582 17.968 14.8342 18.072 14.9542 18.18C15.0763 18.2839 15.2268 18.3487 15.3862 18.366C17.0102 18.444 19.1502 18.566 21.6922 18.61L21.6802 19.452L21.6682 19.786Z" fill="#2B2B2B"/>
<path d="M12.238 6.54C12.4512 6.65964 12.6999 6.70002 12.94 6.654C12.968 6.654 12.986 6.516 12.984 6.362C12.9887 6.27595 12.9806 6.18968 12.96 6.106C12.85 6.061 12.7546 5.98665 12.684 5.89106C12.6135 5.79547 12.5706 5.68233 12.56 5.564C12.556 5.50681 12.5639 5.44941 12.583 5.39538C12.6022 5.34135 12.6323 5.29184 12.6714 5.24993C12.7105 5.20802 12.7578 5.17459 12.8104 5.15174C12.8629 5.12889 12.9197 5.1171 12.977 5.1171C13.0343 5.1171 13.091 5.12889 13.1436 5.15174C13.1962 5.17459 13.2435 5.20802 13.2826 5.24993C13.3217 5.29184 13.3518 5.34135 13.3709 5.39538C13.3901 5.44941 13.398 5.50681 13.394 5.564C13.3901 5.68526 13.3466 5.80189 13.27 5.896C13.1968 5.98682 13.1047 6.06054 13 6.112C12.9805 6.20669 12.9751 6.30373 12.984 6.4C12.984 6.536 13.002 6.642 13.026 6.646C13.2641 6.69339 13.5113 6.65514 13.724 6.538C13.8725 6.45799 14.0033 6.34895 14.1088 6.21736C14.2143 6.08577 14.2922 5.93432 14.338 5.772C14.3945 5.57511 14.4058 5.36803 14.3712 5.16615C14.3366 4.96427 14.2569 4.7728 14.138 4.606C14.0076 4.42315 13.8354 4.274 13.6359 4.1709C13.4364 4.0678 13.2151 4.01371 12.9905 4.01313C12.7659 4.01254 12.5444 4.06547 12.3443 4.16752C12.1443 4.26958 11.9714 4.41783 11.84 4.6C11.7195 4.76602 11.6379 4.95702 11.6012 5.15885C11.5645 5.36068 11.5736 5.56819 11.628 5.766C11.6724 5.92938 11.7494 6.08212 11.8542 6.21511C11.959 6.34809 12.0895 6.45859 12.238 6.54Z" fill="#2B2B2B"/>
</svg>
