<svg width="237" height="188" viewBox="0 0 237 188" fill="none" xmlns="http://www.w3.org/2000/svg">
<g clip-path="url(#clip0)">
<path d="M236.893 0H10.0956V149.97H236.893V0Z" fill="url(#paint0_linear)"/>
<path d="M234.341 17.7188H12.08V145.434H234.341V17.7188Z" fill="white"/>
<path d="M234.341 3.11914H12.08V17.7192H234.341V3.11914Z" fill="#003ED0"/>
<path d="M231.79 26.9316H15.1985V138.346H231.79V26.9316Z" fill="url(#paint1_linear)"/>
<path opacity="0.5" d="M43.9734 28.916H17.8917V49.753H43.9734V28.916Z" fill="#003ED0"/>
<path d="M70.3385 28.916H44.2568V49.753H70.3385V28.916Z" fill="white"/>
<path opacity="0.2" d="M96.7038 28.916H70.6221V49.753H96.7038V28.916Z" fill="#003ED0"/>
<path d="M123.069 28.916H96.9873V49.753H123.069V28.916Z" fill="white"/>
<path d="M149.434 28.916H123.353V49.753H149.434V28.916Z" fill="white"/>
<path opacity="0.5" d="M175.799 28.916H149.718V49.753H175.799V28.916Z" fill="#003ED0"/>
<path d="M202.165 28.916H176.083V49.753H202.165V28.916Z" fill="white"/>
<path opacity="0.2" d="M228.53 28.916H202.448V49.753H228.53V28.916Z" fill="#003ED0"/>
<path opacity="0.2" d="M43.9734 50.1797H17.8917V71.0167H43.9734V50.1797Z" fill="#003ED0"/>
<path opacity="0.2" d="M70.3385 50.1797H44.2568V71.0167H70.3385V50.1797Z" fill="#003ED0"/>
<path d="M96.7038 50.1797H70.6221V71.0167H96.7038V50.1797Z" fill="white"/>
<path d="M149.434 50.1797H123.353V71.0167H149.434V50.1797Z" fill="white"/>
<path opacity="0.2" d="M175.799 50.1797H149.718V71.0167H175.799V50.1797Z" fill="#003ED0"/>
<path opacity="0.5" d="M202.165 50.1797H176.083V71.0167H202.165V50.1797Z" fill="#003ED0"/>
<path d="M228.53 50.1797H202.448V71.0167H228.53V50.1797Z" fill="white"/>
<path d="M43.9734 71.1582H17.8917V91.9952H43.9734V71.1582Z" fill="white"/>
<path d="M70.3385 71.1582H44.2568V91.9952H70.3385V71.1582Z" fill="white"/>
<path opacity="0.2" d="M96.7038 71.1582H70.6221V91.9952H96.7038V71.1582Z" fill="#003ED0"/>
<path d="M123.069 71.1582H96.9873V91.9952H123.069V71.1582Z" fill="white"/>
<path opacity="0.2" d="M149.434 71.1582H123.353V91.9952H149.434V71.1582Z" fill="#003ED0"/>
<path d="M175.799 71.1582H149.718V91.9952H175.799V71.1582Z" fill="white"/>
<path d="M202.165 71.1582H176.083V91.9952H202.165V71.1582Z" fill="white"/>
<path opacity="0.2" d="M228.53 71.1582H202.448V91.9952H228.53V71.1582Z" fill="#003ED0"/>
<path d="M43.9734 92.1367H17.8917V112.974H43.9734V92.1367Z" fill="white"/>
<path d="M123.069 92.1367H96.9873V112.974H123.069V92.1367Z" fill="white"/>
<path d="M149.434 92.1367H123.353V112.974H149.434V92.1367Z" fill="white"/>
<path d="M202.165 92.1367H176.083V112.974H202.165V92.1367Z" fill="white"/>
<path opacity="0.5" d="M228.53 92.1367H202.448V112.974H228.53V92.1367Z" fill="#003ED0"/>
<path opacity="0.5" d="M43.9734 113.398H17.8917V134.235H43.9734V113.398Z" fill="#5AC8E1"/>
<path opacity="0.2" d="M70.3385 113.398H44.2568V134.235H70.3385V113.398Z" fill="#5AC8E1"/>
<path d="M96.7038 113.398H70.6221V134.235H96.7038V113.398Z" fill="white"/>
<path opacity="0.2" d="M149.434 113.398H123.353V134.235H149.434V113.398Z" fill="#003ED0"/>
<path d="M175.799 113.398H149.718V134.235H175.799V113.398Z" fill="white"/>
<path opacity="0.2" d="M202.165 113.398H176.083V134.235H202.165V113.398Z" fill="#003ED0"/>
<path d="M228.53 113.398H202.448V134.235H228.53V113.398Z" fill="white"/>
<path d="M48.6339 187.121C75.4936 187.121 97.2678 165.347 97.2678 138.487C97.2678 111.628 75.4936 89.8535 48.6339 89.8535C21.7741 89.8535 0 111.628 0 138.487C0 165.347 21.7741 187.121 48.6339 187.121Z" fill="url(#paint2_linear)"/>
<path d="M48.634 185.809C74.7689 185.809 95.9553 164.622 95.9553 138.487C95.9553 112.353 74.7689 91.166 48.634 91.166C22.4992 91.166 1.31274 112.353 1.31274 138.487C1.31274 164.622 22.4992 185.809 48.634 185.809Z" fill="#003ED0"/>
<path d="M48.6336 176.937C69.8678 176.937 87.0815 159.723 87.0815 138.489C87.0815 117.255 69.8678 100.041 48.6336 100.041C27.3995 100.041 10.1858 117.255 10.1858 138.489C10.1858 159.723 27.3995 176.937 48.6336 176.937Z" fill="white"/>
<path d="M48.634 140.788C49.9038 140.788 50.9332 139.758 50.9332 138.489C50.9332 137.219 49.9038 136.189 48.634 136.189C47.3642 136.189 46.3348 137.219 46.3348 138.489C46.3348 139.758 47.3642 140.788 48.634 140.788Z" fill="url(#paint3_linear)"/>
<path d="M49.5016 138.772L48.0841 138.295L60.8415 108.438L62.259 109.104L49.5016 138.772Z" fill="url(#paint4_linear)"/>
<path d="M60.9929 108.712L48.506 138.287L49.4149 138.671L61.9018 109.096L60.9929 108.712Z" fill="#2196F3"/>
<path d="M56.589 154.364L48.3676 139.055L49.5015 138.488L58.0064 153.514L56.589 154.364Z" fill="url(#paint5_linear)"/>
<path d="M49.3913 138.591L48.5244 139.062L56.7394 154.18L57.6063 153.709L49.3913 138.591Z" fill="#2196F3"/>
<path d="M84.4543 140.462C84.9994 140.462 85.4413 140.02 85.4413 139.475C85.4413 138.93 84.9994 138.488 84.4543 138.488C83.9092 138.488 83.4673 138.93 83.4673 139.475C83.4673 140.02 83.9092 140.462 84.4543 140.462Z" fill="#508ACD"/>
<path d="M18.8892 121.416C19.2431 120.803 19.0331 120.019 18.4202 119.665C17.8073 119.312 17.0236 119.522 16.6698 120.134C16.3159 120.747 16.5259 121.531 17.1388 121.885C17.7517 122.239 18.5354 122.029 18.8892 121.416Z" fill="#508ACD"/>
<path d="M18.7488 158.36C19.3617 158.006 19.5717 157.222 19.2178 156.61C18.864 155.997 18.0803 155.787 17.4674 156.141C16.8545 156.494 16.6445 157.278 16.9984 157.891C17.3522 158.504 18.1359 158.714 18.7488 158.36Z" fill="#508ACD"/>
<path d="M12.8171 140.756C13.5248 140.756 14.0985 140.183 14.0985 139.475C14.0985 138.767 13.5248 138.193 12.8171 138.193C12.1093 138.193 11.5356 138.767 11.5356 139.475C11.5356 140.183 12.1093 140.756 12.8171 140.756Z" fill="#508ACD"/>
<path d="M31.4975 108.739C32.1103 108.385 32.3203 107.601 31.9665 106.988C31.6126 106.376 30.8289 106.166 30.2161 106.519C29.6032 106.873 29.3932 107.657 29.747 108.27C30.1009 108.883 30.8846 109.093 31.4975 108.739Z" fill="#508ACD"/>
<path d="M49.2427 104.141C49.8556 103.787 50.0656 103.004 49.7117 102.391C49.3579 101.778 48.5742 101.568 47.9613 101.922C47.3484 102.276 47.1384 103.059 47.4923 103.672C47.8461 104.285 48.6298 104.495 49.2427 104.141Z" fill="#508ACD"/>
<path d="M66.9875 108.741C67.6003 108.387 67.8103 107.603 67.4565 106.99C67.1026 106.378 66.3189 106.168 65.706 106.521C65.0932 106.875 64.8832 107.659 65.237 108.272C65.5909 108.885 66.3746 109.095 66.9875 108.741Z" fill="#508ACD"/>
<path d="M80.1317 121.885C80.7446 121.532 80.9546 120.748 80.6008 120.135C80.2469 119.522 79.4632 119.312 78.8503 119.666C78.2374 120.02 78.0275 120.803 78.3813 121.416C78.7352 122.029 79.5188 122.239 80.1317 121.885Z" fill="#508ACD"/>
<path d="M79.8047 158.362C80.4176 158.008 80.6276 157.224 80.2738 156.612C79.9199 155.999 79.1362 155.789 78.5233 156.143C77.9104 156.496 77.7004 157.28 78.0543 157.893C78.4081 158.506 79.1918 158.716 79.8047 158.362Z" fill="#508ACD"/>
<path d="M66.3302 171.176C66.9431 170.823 67.1531 170.039 66.7992 169.426C66.4454 168.813 65.6617 168.603 65.0488 168.957C64.4359 169.311 64.2259 170.094 64.5798 170.707C64.9336 171.32 65.7173 171.53 66.3302 171.176Z" fill="#508ACD"/>
<path d="M49.241 175.122C49.8539 174.768 50.0639 173.984 49.71 173.371C49.3562 172.758 48.5725 172.548 47.9596 172.902C47.3467 173.256 47.1367 174.04 47.4906 174.653C47.8444 175.266 48.6281 175.476 49.241 175.122Z" fill="#508ACD"/>
<path d="M32.1548 171.178C32.7677 170.825 32.9777 170.041 32.6238 169.428C32.27 168.815 31.4863 168.605 30.8734 168.959C30.2605 169.313 30.0505 170.096 30.4044 170.709C30.7582 171.322 31.5419 171.532 32.1548 171.178Z" fill="#508ACD"/>
<path d="M48.6345 103.984C49.1796 103.984 49.6215 103.542 49.6215 102.997C49.6215 102.452 49.1796 102.01 48.6345 102.01C48.0894 102.01 47.6475 102.452 47.6475 102.997C47.6475 103.542 48.0894 103.984 48.6345 103.984Z" fill="#508ACD"/>
<path d="M67.235 108.246C67.5076 107.773 67.3458 107.17 66.8738 106.897C66.4017 106.625 65.798 106.786 65.5255 107.258C65.2529 107.731 65.4147 108.334 65.8868 108.607C66.3588 108.879 66.9625 108.718 67.235 108.246Z" fill="#508ACD"/>
<path d="M79.8625 121.599C80.3346 121.326 80.4964 120.723 80.2238 120.251C79.9513 119.778 79.3476 119.617 78.8755 119.889C78.4035 120.162 78.2417 120.766 78.5143 121.238C78.7868 121.71 79.3905 121.871 79.8625 121.599Z" fill="#508ACD"/>
<path d="M80.0185 157.744C80.291 157.271 80.1293 156.668 79.6572 156.395C79.1851 156.123 78.5815 156.284 78.3089 156.757C78.0364 157.229 78.1981 157.832 78.6702 158.105C79.1423 158.377 79.7459 158.216 80.0185 157.744Z" fill="#508ACD"/>
<path d="M66.1834 170.855C66.6554 170.582 66.8172 169.979 66.5446 169.506C66.2721 169.034 65.6684 168.873 65.1963 169.145C64.7243 169.418 64.5625 170.021 64.8351 170.493C65.1076 170.966 65.7113 171.127 66.1834 170.855Z" fill="#508ACD"/>
<path d="M31.3817 108.609C31.8538 108.336 32.0155 107.732 31.743 107.26C31.4704 106.788 30.8668 106.627 30.3947 106.899C29.9226 107.172 29.7609 107.775 30.0334 108.247C30.306 108.719 30.9096 108.881 31.3817 108.609Z" fill="#508ACD"/>
<path d="M18.7557 121.238C19.0282 120.766 18.8665 120.162 18.3944 119.889C17.9223 119.617 17.3187 119.779 17.0461 120.251C16.7736 120.723 16.9353 121.326 17.4074 121.599C17.8795 121.872 18.4831 121.71 18.7557 121.238Z" fill="#508ACD"/>
<path d="M85.0634 140.618C85.6763 140.264 85.8863 139.48 85.5324 138.867C85.1786 138.254 84.3949 138.044 83.782 138.398C83.1691 138.752 82.9591 139.536 83.313 140.149C83.6668 140.762 84.4505 140.972 85.0634 140.618Z" fill="#508ACD"/>
<path d="M18.6018 158.105C19.0739 157.832 19.2356 157.229 18.9631 156.756C18.6905 156.284 18.0869 156.123 17.6148 156.395C17.1427 156.668 16.981 157.271 17.2535 157.743C17.5261 158.216 18.1297 158.377 18.6018 158.105Z" fill="#508ACD"/>
<path d="M32.4333 170.496C32.7058 170.023 32.5441 169.42 32.072 169.147C31.5999 168.875 30.9963 169.036 30.7237 169.509C30.4512 169.981 30.6129 170.584 31.085 170.857C31.5571 171.129 32.1607 170.968 32.4333 170.496Z" fill="#508ACD"/>
<path d="M12.8173 140.462C13.3625 140.462 13.8044 140.02 13.8044 139.475C13.8044 138.93 13.3625 138.488 12.8173 138.488C12.2722 138.488 11.8303 138.93 11.8303 139.475C11.8303 140.02 12.2722 140.462 12.8173 140.462Z" fill="#508ACD"/>
<path d="M48.6345 174.962C49.1796 174.962 49.6215 174.52 49.6215 173.975C49.6215 173.43 49.1796 172.988 48.6345 172.988C48.0894 172.988 47.6475 173.43 47.6475 173.975C47.6475 174.52 48.0894 174.962 48.6345 174.962Z" fill="#508ACD"/>
<path opacity="0.2" d="M12.159 142.103C12.1616 133.631 14.9621 125.397 20.1255 118.68C25.2889 111.963 32.5262 107.139 40.7129 104.958C48.8997 102.776 57.5776 103.36 65.3986 106.618C73.2195 109.876 79.7456 115.625 83.9631 122.973C81.8936 118.166 78.8645 113.832 75.0613 110.236C71.2581 106.64 66.761 103.859 61.8452 102.062C56.9295 100.265 51.6987 99.4905 46.4732 99.7859C41.2477 100.081 36.1375 101.44 31.4556 103.78C26.7737 106.119 22.6186 109.39 19.2449 113.391C15.8712 117.392 13.3498 122.04 11.8352 127.05C10.3207 132.06 9.84474 137.327 10.4366 142.527C11.0285 147.727 12.6758 152.752 15.2775 157.293C13.2137 152.495 12.1524 147.326 12.159 142.103Z" fill="#003ED0"/>
<path d="M48.6339 140.132C49.542 140.132 50.2782 139.396 50.2782 138.488C50.2782 137.58 49.542 136.844 48.6339 136.844C47.7258 136.844 46.9896 137.58 46.9896 138.488C46.9896 139.396 47.7258 140.132 48.6339 140.132Z" fill="#508ACD"/>
</g>
<defs>
<linearGradient id="paint0_linear" x1="123.494" y1="149.97" x2="123.494" y2="0" gradientUnits="userSpaceOnUse">
<stop stop-color="#808080" stop-opacity="0.25"/>
<stop offset="0.54" stop-color="#808080" stop-opacity="0.12"/>
<stop offset="1" stop-color="#808080" stop-opacity="0.1"/>
</linearGradient>
<linearGradient id="paint1_linear" x1="94364.6" y1="54397.1" x2="94364.6" y2="10611.3" gradientUnits="userSpaceOnUse">
<stop stop-color="#808080" stop-opacity="0.25"/>
<stop offset="0.54" stop-color="#808080" stop-opacity="0.12"/>
<stop offset="1" stop-color="#808080" stop-opacity="0.1"/>
</linearGradient>
<linearGradient id="paint2_linear" x1="16686.3" y1="64291.4" x2="16686.3" y2="30918.9" gradientUnits="userSpaceOnUse">
<stop stop-color="#808080" stop-opacity="0.25"/>
<stop offset="0.54" stop-color="#808080" stop-opacity="0.12"/>
<stop offset="1" stop-color="#808080" stop-opacity="0.1"/>
</linearGradient>
<linearGradient id="paint3_linear" x1="835.177" y1="2419.76" x2="835.177" y2="2345.13" gradientUnits="userSpaceOnUse">
<stop stop-color="#808080" stop-opacity="0.25"/>
<stop offset="0.54" stop-color="#808080" stop-opacity="0.12"/>
<stop offset="1" stop-color="#808080" stop-opacity="0.1"/>
</linearGradient>
<linearGradient id="paint4_linear" x1="2806.65" y1="14957" x2="2806.65" y2="11711.2" gradientUnits="userSpaceOnUse">
<stop stop-color="#808080" stop-opacity="0.25"/>
<stop offset="0.54" stop-color="#808080" stop-opacity="0.12"/>
<stop offset="1" stop-color="#808080" stop-opacity="0.1"/>
</linearGradient>
<linearGradient id="paint5_linear" x1="1856.72" y1="8782.84" x2="1856.72" y2="7893.8" gradientUnits="userSpaceOnUse">
<stop stop-color="#808080" stop-opacity="0.25"/>
<stop offset="0.54" stop-color="#808080" stop-opacity="0.12"/>
<stop offset="1" stop-color="#808080" stop-opacity="0.1"/>
</linearGradient>
<clipPath id="clip0">
<rect width="236.893" height="187.122" fill="white"/>
</clipPath>
</defs>
</svg>
