<svg width="335" height="211" viewBox="0 0 335 211" fill="none" xmlns="http://www.w3.org/2000/svg">
<g clip-path="url(#clip0)">
<path d="M158.955 10.354H0V100.592H158.955V10.354Z" fill="url(#paint0_linear)"/>
<path d="M156.836 23.4893H1.69629V98.4792H156.836V23.4893Z" fill="white"/>
<path d="M66.1235 29.8442H12.292V86.615H66.1235V29.8442Z" fill="url(#paint1_linear)"/>
<path d="M64.8551 31.1152H13.9883V85.344H64.8551V31.1152Z" fill="#E0E0E0"/>
<path opacity="0.2" d="M156.836 12.0498H1.69629V23.4889H156.836V12.0498Z" fill="#003ED0"/>
<path d="M144.541 47.001H85.623V50.814H144.541V47.001Z" fill="#E0E0E0"/>
<path d="M144.541 63.0991H85.623V66.9122H144.541V63.0991Z" fill="#F5F5F5"/>
<path opacity="0.2" d="M119.958 55.0522H85.2017V58.8653H119.958V55.0522Z" fill="#003ED0"/>
<path opacity="0.2" d="M108.938 71.1504H85.2017V74.9634H108.938V71.1504Z" fill="#003ED0"/>
<path d="M136.911 71.1504H113.175V74.9634H136.911V71.1504Z" fill="#508ACD"/>
<path d="M327.878 10.354H168.923V100.592H327.878V10.354Z" fill="url(#paint2_linear)"/>
<path d="M325.76 23.4893H170.62V98.4792H325.76V23.4893Z" fill="white"/>
<path d="M235.047 29.8442H181.215V86.615H235.047V29.8442Z" fill="url(#paint3_linear)"/>
<path opacity="0.8" d="M233.778 31.1152H182.912V85.344H233.778V31.1152Z" fill="#003ED0"/>
<path d="M222.543 52.5289C222.163 49.3077 221.594 46.079 220.36 43.0665C219.126 40.054 217.145 37.2843 214.385 35.5732C213.401 34.9142 212.263 34.5219 211.082 34.435C208.923 34.3591 206.926 35.816 205.814 37.6675C205.437 38.3089 205.108 38.9772 204.83 39.667C203.801 39.8422 202.861 40.3578 202.16 41.1311C201.459 41.9045 201.039 42.8907 200.966 43.9315C198.685 44.9027 196.765 46.5633 195.476 48.6803C194.187 50.7973 193.593 53.2645 193.778 55.7358C193.963 58.2071 194.918 60.5586 196.508 62.4602C198.098 64.3619 200.243 65.7184 202.644 66.3394V68.3616C200.1 69.0262 197.848 70.513 196.238 72.5902C194.628 74.6675 193.75 77.2186 193.742 79.8463V85.3553H217.494V79.8349C217.486 77.2072 216.608 74.6561 214.998 72.5789C213.388 70.5016 211.136 69.0149 208.592 68.3502V66.328C211.14 65.6696 213.397 64.184 215.008 62.1046C216.619 60.0251 217.494 57.4696 217.494 54.8395C217.494 54.813 217.494 54.7826 217.494 54.756L218.83 57.7268C220.102 60.5572 221.404 63.5924 220.907 66.6581C223.344 62.4884 223.142 57.317 222.543 52.5289Z" fill="white"/>
<path opacity="0.2" d="M325.76 12.0498H170.62V23.4889H325.76V12.0498Z" fill="#003ED0"/>
<path d="M313.465 47.001H254.547V50.814H313.465V47.001Z" fill="#E0E0E0"/>
<path d="M313.465 63.0991H254.547V66.9122H313.465V63.0991Z" fill="#F5F5F5"/>
<path opacity="0.2" d="M288.882 55.0522H254.125V58.8653H288.882V55.0522Z" fill="#003ED0"/>
<path opacity="0.2" d="M277.862 71.1504H254.125V74.9634H277.862V71.1504Z" fill="#003ED0"/>
<path d="M305.835 71.1504H282.099V74.9634H305.835V71.1504Z" fill="#508ACD"/>
<path d="M327.878 120.762H168.923V211H327.878V120.762Z" fill="url(#paint4_linear)"/>
<path d="M325.76 133.897H170.62V208.887H325.76V133.897Z" fill="white"/>
<path d="M235.047 140.252H181.215V197.023H235.047V140.252Z" fill="url(#paint5_linear)"/>
<path opacity="0.8" d="M233.778 141.523H182.912V195.752H233.778V141.523Z" fill="#003ED0"/>
<path opacity="0.2" d="M325.76 122.458H170.62V133.897H325.76V122.458Z" fill="#003ED0"/>
<path d="M313.465 157.409H254.547V161.222H313.465V157.409Z" fill="#E0E0E0"/>
<path d="M313.465 173.507H254.547V177.32H313.465V173.507Z" fill="#F5F5F5"/>
<path opacity="0.2" d="M288.882 165.46H254.125V169.273H288.882V165.46Z" fill="#003ED0"/>
<path opacity="0.2" d="M277.862 181.558H254.125V185.371H277.862V181.558Z" fill="#003ED0"/>
<path d="M305.835 181.558H282.099V185.371H305.835V181.558Z" fill="#508ACD"/>
<path d="M158.955 120.762H0V211H158.955V120.762Z" fill="url(#paint6_linear)"/>
<path d="M156.836 133.897H1.69629V208.887H156.836V133.897Z" fill="white"/>
<path d="M66.5029 141.011H12.6714V197.782H66.5029V141.011Z" fill="url(#paint7_linear)"/>
<path opacity="0.8" d="M64.8551 141.523H13.9883V195.752H64.8551V141.523Z" fill="#003ED0"/>
<path opacity="0.2" d="M156.836 122.458H1.69629V133.897H156.836V122.458Z" fill="#003ED0"/>
<path d="M144.541 157.409H85.623V161.222H144.541V157.409Z" fill="#E0E0E0"/>
<path d="M144.541 173.507H85.623V177.32H144.541V173.507Z" fill="#F5F5F5"/>
<path opacity="0.2" d="M119.958 165.46H85.2017V169.273H119.958V165.46Z" fill="#003ED0"/>
<path opacity="0.2" d="M108.938 181.558H85.2017V185.371H108.938V181.558Z" fill="#003ED0"/>
<path d="M136.911 181.558H113.175V185.371H136.911V181.558Z" fill="#508ACD"/>
<path d="M42.3253 179.308V177.385C45.188 176.646 47.6828 174.889 49.3422 172.443C51.0015 169.998 51.7115 167.031 51.3389 164.099C50.9664 161.168 49.537 158.473 47.3185 156.519C45.1001 154.566 42.245 153.488 39.2885 153.488C36.3319 153.488 33.4768 154.566 31.2584 156.519C29.04 158.473 27.6105 161.168 27.238 164.099C26.8654 167.031 27.5754 169.998 29.2347 172.443C30.8941 174.889 33.3889 176.646 36.2516 177.385V179.308C33.7519 179.984 31.5433 181.461 29.9658 183.514C28.3883 185.566 27.5292 188.08 27.5207 190.668V195.98H51.0562V190.668C51.0477 188.08 50.1886 185.566 48.6111 183.514C47.0336 181.461 44.8251 179.984 42.3253 179.308Z" fill="white"/>
<path d="M39.2888 175.871C46.4169 175.871 52.1953 170.095 52.1953 162.971C52.1953 155.846 46.4169 150.071 39.2888 150.071C32.1608 150.071 26.3823 155.846 26.3823 162.971C26.3823 170.095 32.1608 175.871 39.2888 175.871Z" fill="white"/>
<path d="M52.1613 163.866C52.1613 163.866 51.4362 177.771 57.1303 179.289C57.1303 179.289 45.3626 185.739 43.085 171.701L52.1613 163.866Z" fill="white"/>
<path d="M26.4163 163.866C26.4163 163.866 27.1413 177.771 21.4473 179.289C21.4473 179.289 33.215 185.739 35.4926 171.701L26.4163 163.866Z" fill="white"/>
<path d="M29.7038 53.6974C28.9536 52.2476 28.6086 50.6222 28.7054 48.9928C28.8124 47.3542 29.5562 45.8223 30.778 44.7244C32.1408 43.5635 33.9895 43.1537 35.7736 43.0095C37.5578 42.8654 39.3685 42.9526 41.126 42.6074C42.5783 42.3135 43.9576 41.7342 45.1841 40.9031C46.4105 40.072 47.4595 39.0057 48.2702 37.7661C48.4464 39.1336 48.4336 40.5187 48.2322 41.8827C47.9665 43.2334 47.2718 44.5613 46.0988 45.2974C47.5185 44.641 47.3667 46.1814 47.0554 47.1033C47.7615 47.9532 49.4697 48.0936 49.557 49.1939C49.6997 50.2906 49.5774 51.4056 49.2002 52.4454C48.7712 53.4584 49.2306 55.2454 48.1335 55.3251" fill="white"/>
<path d="M29.7038 53.6974C28.9536 52.2476 28.6086 50.6222 28.7054 48.9928C28.8124 47.3542 29.5562 45.8223 30.778 44.7244C32.1408 43.5635 33.9895 43.1537 35.7736 43.0095C37.5578 42.8654 39.3685 42.9526 41.126 42.6074C42.5783 42.3135 43.9576 41.7342 45.1841 40.9031C46.4105 40.072 47.4595 39.0057 48.2702 37.7661C48.4464 39.1336 48.4336 40.5187 48.2322 41.8827C47.9665 43.2334 47.2718 44.5613 46.0988 45.2974C47.5185 44.641 47.3667 46.1814 47.0554 47.1033C47.7615 47.9532 49.4697 48.0936 49.557 49.1939C49.6997 50.2906 49.5774 51.4056 49.2002 52.4454C48.7712 53.4584 49.2306 55.2454 48.1335 55.3251" stroke="white" stroke-miterlimit="10"/>
<path d="M46.9004 44.7661C46.9004 44.7661 53.1449 45.3087 48.6997 54.5776L46.9004 44.7661Z" fill="white"/>
<path d="M42.3253 68.9007V66.9771C45.188 66.2384 47.6828 64.4815 49.3422 62.0357C51.0015 59.59 51.7115 56.6233 51.3389 53.6918C50.9664 50.7603 49.537 48.0652 47.3185 46.1118C45.1001 44.1583 42.245 43.0806 39.2885 43.0806C36.3319 43.0806 33.4768 44.1583 31.2584 46.1118C29.04 48.0652 27.6105 50.7603 27.238 53.6918C26.8654 56.6233 27.5754 59.59 29.2347 62.0357C30.8941 64.4815 33.3889 66.2384 36.2516 66.9771V68.9007C33.7519 69.576 31.5433 71.0536 29.9658 73.106C28.3883 75.1585 27.5292 77.6721 27.5207 80.2602V85.5719H51.0562V80.2602C51.0477 77.6721 50.1886 75.1585 48.6111 73.106C47.0336 71.0536 44.8251 69.576 42.3253 68.9007Z" fill="white"/>
<path d="M210.49 179.357V177.434C213.352 176.695 215.847 174.938 217.507 172.492C219.166 170.046 219.876 167.08 219.503 164.148C219.131 161.217 217.701 158.522 215.483 156.568C213.265 154.615 210.41 153.537 207.453 153.537C204.496 153.537 201.641 154.615 199.423 156.568C197.204 158.522 195.775 161.217 195.403 164.148C195.03 167.08 195.74 170.046 197.399 172.492C199.059 174.938 201.553 176.695 204.416 177.434V179.357C201.916 180.033 199.708 181.51 198.13 183.563C196.553 185.615 195.694 188.129 195.685 190.717V196.028H219.221V190.717C219.212 188.129 218.353 185.615 216.776 183.563C215.198 181.51 212.99 180.033 210.49 179.357Z" fill="white"/>
<path d="M207.453 177.009C214.581 177.009 220.36 171.233 220.36 164.109C220.36 156.984 214.581 151.209 207.453 151.209C200.325 151.209 194.547 156.984 194.547 164.109C194.547 171.233 200.325 177.009 207.453 177.009Z" fill="white"/>
<path d="M208.213 150.651C209.249 150.393 210.335 150.272 211.303 149.824C212.153 149.416 212.871 148.777 213.377 147.981C213.882 147.185 214.154 146.263 214.161 145.321C214.723 146.088 215.155 146.941 215.441 147.848C215.624 148.324 215.67 148.842 215.574 149.343C215.519 149.591 215.385 149.815 215.192 149.98C214.999 150.146 214.757 150.244 214.503 150.261C215.505 150.458 216.583 150.64 217.517 150.238C218.451 149.836 219.066 148.55 218.432 147.749C219.013 148.344 219.492 149.029 219.852 149.779C220.028 150.156 220.11 150.57 220.092 150.985C220.073 151.401 219.954 151.806 219.745 152.165C219.172 153.023 218.018 153.266 216.986 153.247C217.894 153.302 218.805 153.325 219.719 153.315C220.23 153.355 220.742 153.244 221.192 152.996C221.613 152.708 221.829 152.063 221.495 151.676C221.984 152.774 222.139 153.991 221.941 155.176C221.743 156.361 221.202 157.462 220.383 158.342C219.305 159.461 217.779 160.178 217.02 161.533C216.56 162.349 216.439 163.305 216.154 164.189C215.816 165.253 215.25 166.23 214.495 167.053C213.691 168.003 212.56 168.616 211.326 168.772C209.629 168.901 208.061 167.831 206.9 166.587C205.738 165.342 204.808 163.87 203.483 162.792C201.585 161.237 198.829 160.869 197.049 159.237C198.07 157.318 200.348 155.417 202.006 154.017C203.79 152.435 205.914 151.283 208.213 150.651Z" fill="white"/>
<path d="M148.994 35.1106C158.638 35.1106 166.456 27.2967 166.456 17.6578C166.456 8.01894 158.638 0.205078 148.994 0.205078C139.351 0.205078 131.533 8.01894 131.533 17.6578C131.533 27.2967 139.351 35.1106 148.994 35.1106Z" fill="url(#paint8_linear)"/>
<path d="M317.538 35.1106C327.182 35.1106 335 27.2967 335 17.6578C335 8.01894 327.182 0.205078 317.538 0.205078C307.895 0.205078 300.077 8.01894 300.077 17.6578C300.077 27.2967 307.895 35.1106 317.538 35.1106Z" fill="url(#paint9_linear)"/>
<path d="M148.994 145.518C158.638 145.518 166.456 137.704 166.456 128.065C166.456 118.426 158.638 110.612 148.994 110.612C139.351 110.612 131.533 118.426 131.533 128.065C131.533 137.704 139.351 145.518 148.994 145.518Z" fill="url(#paint10_linear)"/>
<path d="M317.538 145.518C327.182 145.518 335 137.704 335 128.065C335 118.426 327.182 110.612 317.538 110.612C307.895 110.612 300.077 118.426 300.077 128.065C300.077 137.704 307.895 145.518 317.538 145.518Z" fill="url(#paint11_linear)"/>
<path d="M148.994 33.5924C157.799 33.5924 164.937 26.458 164.937 17.6573C164.937 8.85657 157.799 1.72217 148.994 1.72217C140.189 1.72217 133.051 8.85657 133.051 17.6573C133.051 26.458 140.189 33.5924 148.994 33.5924Z" fill="white"/>
<path d="M148.994 144.001C157.799 144.001 164.937 136.866 164.937 128.065C164.937 119.265 157.799 112.13 148.994 112.13C140.189 112.13 133.051 119.265 133.051 128.065C133.051 136.866 140.189 144.001 148.994 144.001Z" fill="white"/>
<path d="M317.538 144.001C326.343 144.001 333.481 136.866 333.481 128.065C333.481 119.265 326.343 112.13 317.538 112.13C308.733 112.13 301.595 119.265 301.595 128.065C301.595 136.866 308.733 144.001 317.538 144.001Z" fill="white"/>
<path d="M317.538 33.5924C326.343 33.5924 333.481 26.458 333.481 17.6573C333.481 8.85657 326.343 1.72217 317.538 1.72217C308.733 1.72217 301.595 8.85657 301.595 17.6573C301.595 26.458 308.733 33.5924 317.538 33.5924Z" fill="white"/>
<path d="M333.493 3.48296L327.901 0L317.155 17.1303L309.893 12.6684L306.279 18.4506L316.832 24.8322L319.459 26.5092L333.493 3.48296Z" fill="url(#paint12_linear)"/>
<path d="M333.106 3.42623L328.042 0.353027L317.417 17.8323L309.969 13.3098L306.89 18.3711L316.87 24.4189L319.425 25.9327L333.106 3.42623Z" fill="#003ED0"/>
<path d="M333.493 112.752L327.901 109.27L317.155 126.4L309.893 121.938L306.279 127.72L316.832 134.102L319.459 135.779L333.493 112.752Z" fill="url(#paint13_linear)"/>
<path d="M333.106 112.695L328.042 109.622L317.417 127.101L309.969 122.579L306.89 127.64L316.87 133.688L319.425 135.202L333.106 112.695Z" fill="#003ED0"/>
<path d="M164.19 112.752L158.598 109.27L147.852 126.4L140.59 121.938L136.976 127.72L147.529 134.102L150.156 135.779L164.19 112.752Z" fill="url(#paint14_linear)"/>
<path d="M163.802 112.695L158.738 109.622L148.113 127.101L140.665 122.579L137.587 127.64L147.567 133.688L150.121 135.202L163.802 112.695Z" fill="#003ED0"/>
</g>
<defs>
<linearGradient id="paint0_linear" x1="79.4776" y1="100.592" x2="79.4776" y2="10.354" gradientUnits="userSpaceOnUse">
<stop stop-color="#808080" stop-opacity="0.25"/>
<stop offset="0.54" stop-color="#808080" stop-opacity="0.12"/>
<stop offset="1" stop-color="#808080" stop-opacity="0.1"/>
</linearGradient>
<linearGradient id="paint1_linear" x1="5572.55" y1="12990" x2="5572.55" y2="4495.43" gradientUnits="userSpaceOnUse">
<stop stop-color="#808080" stop-opacity="0.25"/>
<stop offset="0.54" stop-color="#808080" stop-opacity="0.12"/>
<stop offset="1" stop-color="#808080" stop-opacity="0.1"/>
</linearGradient>
<linearGradient id="paint2_linear" x1="104184" y1="23935.2" x2="104184" y2="2472.96" gradientUnits="userSpaceOnUse">
<stop stop-color="#808080" stop-opacity="0.25"/>
<stop offset="0.54" stop-color="#808080" stop-opacity="0.12"/>
<stop offset="1" stop-color="#808080" stop-opacity="0.1"/>
</linearGradient>
<linearGradient id="paint3_linear" x1="29696.5" y1="12990" x2="29696.5" y2="4495.43" gradientUnits="userSpaceOnUse">
<stop stop-color="#808080" stop-opacity="0.25"/>
<stop offset="0.54" stop-color="#808080" stop-opacity="0.12"/>
<stop offset="1" stop-color="#808080" stop-opacity="0.1"/>
</linearGradient>
<linearGradient id="paint4_linear" x1="104184" y1="50305" x2="104184" y2="28842.7" gradientUnits="userSpaceOnUse">
<stop stop-color="#808080" stop-opacity="0.25"/>
<stop offset="0.54" stop-color="#808080" stop-opacity="0.12"/>
<stop offset="1" stop-color="#808080" stop-opacity="0.1"/>
</linearGradient>
<linearGradient id="paint5_linear" x1="29696.5" y1="29620.7" x2="29696.5" y2="21126.1" gradientUnits="userSpaceOnUse">
<stop stop-color="#808080" stop-opacity="0.25"/>
<stop offset="0.54" stop-color="#808080" stop-opacity="0.12"/>
<stop offset="1" stop-color="#808080" stop-opacity="0.1"/>
</linearGradient>
<linearGradient id="paint6_linear" x1="33280.4" y1="50305" x2="33280.4" y2="28842.7" gradientUnits="userSpaceOnUse">
<stop stop-color="#808080" stop-opacity="0.25"/>
<stop offset="0.54" stop-color="#808080" stop-opacity="0.12"/>
<stop offset="1" stop-color="#808080" stop-opacity="0.1"/>
</linearGradient>
<linearGradient id="paint7_linear" x1="5626.76" y1="29735.1" x2="5626.76" y2="21240.5" gradientUnits="userSpaceOnUse">
<stop stop-color="#808080" stop-opacity="0.25"/>
<stop offset="0.54" stop-color="#808080" stop-opacity="0.12"/>
<stop offset="1" stop-color="#808080" stop-opacity="0.1"/>
</linearGradient>
<linearGradient id="paint8_linear" x1="13839" y1="3230.36" x2="13839" y2="19.0539" gradientUnits="userSpaceOnUse">
<stop stop-color="#808080" stop-opacity="0.25"/>
<stop offset="0.54" stop-color="#808080" stop-opacity="0.12"/>
<stop offset="1" stop-color="#808080" stop-opacity="0.1"/>
</linearGradient>
<linearGradient id="paint9_linear" x1="29513.6" y1="3230.36" x2="29513.6" y2="19.0539" gradientUnits="userSpaceOnUse">
<stop stop-color="#808080" stop-opacity="0.25"/>
<stop offset="0.54" stop-color="#808080" stop-opacity="0.12"/>
<stop offset="1" stop-color="#808080" stop-opacity="0.1"/>
</linearGradient>
<linearGradient id="paint10_linear" x1="13839" y1="13498.3" x2="13839" y2="10287" gradientUnits="userSpaceOnUse">
<stop stop-color="#808080" stop-opacity="0.25"/>
<stop offset="0.54" stop-color="#808080" stop-opacity="0.12"/>
<stop offset="1" stop-color="#808080" stop-opacity="0.1"/>
</linearGradient>
<linearGradient id="paint11_linear" x1="29513.6" y1="13498.3" x2="29513.6" y2="10287" gradientUnits="userSpaceOnUse">
<stop stop-color="#808080" stop-opacity="0.25"/>
<stop offset="0.54" stop-color="#808080" stop-opacity="0.12"/>
<stop offset="1" stop-color="#808080" stop-opacity="0.1"/>
</linearGradient>
<linearGradient id="paint12_linear" x1="321.505" y1="26.3121" x2="318.813" y2="0.984997" gradientUnits="userSpaceOnUse">
<stop stop-opacity="0.12"/>
<stop offset="0.55" stop-opacity="0.09"/>
<stop offset="1" stop-opacity="0.02"/>
</linearGradient>
<linearGradient id="paint13_linear" x1="28191.4" y1="27632.2" x2="28191.4" y2="25852.6" gradientUnits="userSpaceOnUse">
<stop stop-opacity="0.12"/>
<stop offset="0.55" stop-opacity="0.09"/>
<stop offset="1" stop-opacity="0.02"/>
</linearGradient>
<linearGradient id="paint14_linear" x1="15952.8" y1="26381.5" x2="15952.8" y2="24601.9" gradientUnits="userSpaceOnUse">
<stop stop-opacity="0.12"/>
<stop offset="0.55" stop-opacity="0.09"/>
<stop offset="1" stop-opacity="0.02"/>
</linearGradient>
<clipPath id="clip0">
<rect width="335" height="211" fill="white"/>
</clipPath>
</defs>
</svg>
