<svg width="221" height="227" viewBox="0 0 221 227" fill="none" xmlns="http://www.w3.org/2000/svg">
<g clip-path="url(#clip0)">
<path d="M94.6482 14.6323L0.0195923 41.2466L35.0105 165.659L129.639 139.045L94.6482 14.6323Z" fill="url(#paint0_linear)"/>
<path d="M95.2626 15.6136L-0.00256348 41.8003L13.09 89.4299L108.355 63.2432L95.2626 15.6136Z" fill="url(#paint1_linear)"/>
<path d="M94.2377 17.0638L1.62305 42.522L35.1734 164.575L127.788 139.117L94.2377 17.0638Z" fill="#EEEEEE"/>
<path d="M94.3111 16.9192L1.48309 42.436L14.2704 88.9552L107.098 63.4384L94.3111 16.9192Z" fill="#003ED0"/>
<path d="M62.584 89.7913L37.403 96.7131L37.9308 98.6331L63.1117 91.7112L62.584 89.7913Z" fill="#BDBDBD"/>
<path d="M64.6964 97.4756L39.5154 104.397L40.0432 106.317L65.2242 99.3955L64.6964 97.4756Z" fill="#F5F5F5"/>
<path d="M104.187 82.4887L38.46 100.556L38.9877 102.476L104.715 84.4086L104.187 82.4887Z" fill="#69F0AE"/>
<path d="M67.8284 42.9046L42.6475 49.8264L43.1752 51.7463L68.3561 44.8245L67.8284 42.9046Z" fill="white"/>
<path d="M84.3657 42.9478L43.8196 54.0933L44.3473 56.0132L84.8934 44.8677L84.3657 42.9478Z" fill="white"/>
<path opacity="0.2" d="M77.3066 50.8586L53.9315 57.284C53.4328 57.4211 53.1397 57.9365 53.2768 58.4352L53.3667 58.7625C53.5038 59.2612 54.0192 59.5543 54.5179 59.4172L77.893 52.9919C78.3917 52.8548 78.6848 52.3394 78.5477 51.8407L78.4578 51.5134C78.3207 51.0147 77.8053 50.7215 77.3066 50.8586Z" fill="black"/>
<path d="M28.4768 106.4C30.9526 105.719 32.4079 103.161 31.7273 100.685C31.0468 98.209 28.4881 96.7537 26.0124 97.4343C23.5366 98.1148 22.0813 100.673 22.7619 103.149C23.4424 105.625 26.0011 107.08 28.4768 106.4Z" fill="#69F0AE"/>
<path d="M67.6918 108.358L42.5109 115.28L43.0386 117.199L68.2196 110.278L67.6918 108.358Z" fill="#BDBDBD"/>
<path d="M69.8007 116.042L44.6198 122.964L45.1475 124.884L70.3285 117.962L69.8007 116.042Z" fill="#F5F5F5"/>
<path d="M109.291 101.055L43.5643 119.123L44.0921 121.042L109.819 102.975L109.291 101.055Z" fill="#E0E0E0"/>
<path d="M33.5802 124.967C36.0559 124.286 37.5112 121.728 36.8307 119.252C36.1502 116.776 33.5915 115.321 31.1158 116.001C28.64 116.682 27.1847 119.241 27.8653 121.716C28.5458 124.192 31.1045 125.647 33.5802 124.967Z" fill="#E0E0E0"/>
<path d="M72.7932 126.922L47.6122 133.844L48.1399 135.764L73.3209 128.842L72.7932 126.922Z" fill="#BDBDBD"/>
<path d="M74.9055 134.604L49.7245 141.526L50.2522 143.446L75.4332 136.524L74.9055 134.604Z" fill="#F5F5F5"/>
<path d="M114.393 119.62L48.666 137.687L49.1937 139.607L114.921 121.539L114.393 119.62Z" fill="#E0E0E0"/>
<path d="M38.6845 143.533C41.1602 142.853 42.6155 140.294 41.935 137.819C41.2544 135.343 38.6958 133.888 36.22 134.568C33.7443 135.249 32.289 137.807 32.9695 140.283C33.6501 142.759 36.2087 144.214 38.6845 143.533Z" fill="#E0E0E0"/>
<path d="M11.889 63.7097C12.5392 65.9635 13.7957 67.9956 15.5213 69.5844C17.247 71.1732 19.3757 72.2579 21.6754 72.7201C23.9751 73.1823 26.3576 73.0044 28.5632 72.2057C30.7687 71.4071 32.7127 70.0183 34.1833 68.1908C35.6538 66.3633 36.5945 64.1672 36.9028 61.8418C37.2111 59.5164 36.8751 57.1511 35.9315 55.0035C34.988 52.8559 33.473 51.0086 31.5517 49.6628C29.6304 48.3171 27.3766 47.5245 25.0359 47.3716L25.9451 50.5447C26.2599 51.6506 26.1243 52.8362 25.5678 53.8424C25.0113 54.8486 24.0792 55.5937 22.9751 55.9149C21.8691 56.2298 20.6836 56.0941 19.6773 55.5376C18.6711 54.9811 17.926 54.049 17.6048 52.9449L16.6956 49.7718C14.5574 51.318 12.9484 53.4862 12.0882 55.9807C11.2279 58.4751 11.1584 61.1743 11.889 63.7097Z" fill="url(#paint2_linear)"/>
<path d="M36.2488 55.6121C35.626 53.3502 34.3941 51.3026 32.6874 49.6927C30.9808 48.0829 28.8649 46.9725 26.5704 46.4826C24.276 45.9927 21.8911 46.1422 19.6758 46.9148C17.4605 47.6873 15.4998 49.0533 14.0076 50.8637C12.5153 52.6741 11.5487 54.8594 11.2132 57.1814C10.8777 59.5035 11.1862 61.8731 12.105 64.0318C13.0238 66.1906 14.5177 68.0556 16.4237 69.4236C18.3298 70.7916 20.5748 71.61 22.914 71.7897L22.0382 68.6075C21.7366 67.4984 21.8861 66.315 22.4539 65.3157C23.0217 64.3164 23.9617 63.5823 25.0688 63.2736C26.1779 62.972 27.3613 63.1214 28.3606 63.6892C29.3599 64.257 30.094 65.1971 30.4027 66.3042L31.2786 69.4864C33.4336 67.9659 35.0673 65.8178 35.9567 63.3349C36.8462 60.852 36.9482 58.1551 36.2488 55.6121Z" fill="#508ACD"/>
<path d="M24.7306 62.0682C27.3532 61.3473 28.8949 58.6368 28.1739 56.0142C27.453 53.3916 24.7426 51.85 22.12 52.5709C19.4974 53.2918 17.9557 56.0023 18.6767 58.6249C19.3976 61.2475 22.108 62.7891 24.7306 62.0682Z" fill="white" stroke="white" stroke-miterlimit="10"/>
<path d="M25.0627 63.2736C23.9556 63.5823 23.0155 64.3165 22.4477 65.3158C21.8799 66.3151 21.7305 67.4985 22.0321 68.6075L22.9079 71.7897C25.8794 72.0155 28.837 71.2024 31.2755 69.4895L30.3996 66.3073C30.0916 65.1989 29.3573 64.2576 28.3572 63.6891C27.3571 63.1207 26.1726 62.9713 25.0627 63.2736Z" fill="white" stroke="white" stroke-miterlimit="10"/>
<path d="M18.5682 58.3642C17.9852 57.7328 17.5831 56.956 17.4044 56.1154C17.2301 55.2678 17.3943 54.3856 17.8621 53.6576C18.3924 52.8787 19.2713 52.412 20.1593 52.0907C21.0473 51.7695 21.9777 51.5604 22.8202 51.1391C23.5167 50.787 24.1364 50.3 24.6431 49.7063C25.1498 49.1127 25.5336 48.4243 25.772 47.6812C26.0522 48.3515 26.2388 49.0572 26.3266 49.7784C26.3687 50.1393 26.3366 50.505 26.2324 50.8531C26.1282 51.2012 25.954 51.5244 25.7205 51.8028C26.3509 51.2694 26.4873 52.0756 26.46 52.5878C26.9358 52.9211 27.8238 52.7544 28.0238 53.3C28.2495 53.8367 28.343 54.4198 28.2966 55.0002C28.2208 55.576 28.7026 56.4185 28.1571 56.6125" fill="white"/>
<path d="M18.5682 58.3642C17.9852 57.7328 17.5831 56.956 17.4044 56.1154C17.2301 55.2678 17.3943 54.3856 17.8621 53.6576C18.3924 52.8787 19.2713 52.412 20.1593 52.0907C21.0473 51.7695 21.9777 51.5604 22.8202 51.1391C23.5167 50.787 24.1364 50.3 24.6431 49.7063C25.1498 49.1127 25.5336 48.4243 25.772 47.6812C26.0522 48.3515 26.2388 49.0572 26.3266 49.7784C26.3687 50.1393 26.3366 50.505 26.2324 50.8531C26.1282 51.2012 25.954 51.5244 25.7205 51.8028C26.3509 51.2694 26.4873 52.0756 26.46 52.5878C26.9358 52.9211 27.8238 52.7544 28.0238 53.3C28.2495 53.8367 28.343 54.4198 28.2966 55.0002C28.2208 55.576 28.7026 56.4185 28.1571 56.6125" stroke="white" stroke-miterlimit="10"/>
<path d="M25.9447 51.6147C25.9447 51.6147 29.339 50.9934 28.3298 56.5606L25.9447 51.6147Z" fill="white"/>
<path d="M193.285 216.463H161.333V86.6094H221L193.285 216.463Z" fill="url(#paint3_linear)"/>
<path d="M191.694 216.463H160.372V86.6094H218.861L191.694 216.463Z" fill="#BDBDBD"/>
<path d="M199.163 46.2357L101.14 56.6248L114.799 185.499L212.822 175.11L199.163 46.2357Z" fill="url(#paint4_linear)"/>
<path d="M199.263 46.1031L101.015 56.5161L106.221 105.637L204.469 95.2243L199.263 46.1031Z" fill="url(#paint5_linear)"/>
<path d="M198.016 47.3655L102.501 57.4888L115.842 183.364L211.357 173.241L198.016 47.3655Z" fill="#F5F5F5"/>
<path d="M198.113 47.2352L102.378 57.3818L107.463 105.358L203.198 95.2112L198.113 47.2352Z" fill="#003ED0"/>
<path d="M155.005 114.008L129.036 116.76L129.245 118.74L155.215 115.988L155.005 114.008Z" fill="#BDBDBD"/>
<path d="M155.845 121.931L129.875 124.683L130.085 126.663L156.055 123.911L155.845 121.931Z" fill="#F5F5F5"/>
<path d="M197.239 113.538L129.454 120.722L129.664 122.702L197.449 115.518L197.239 113.538Z" fill="#508ACD"/>
<path d="M167.773 68.5891L141.803 71.3416L142.013 73.3216L167.983 70.5692L167.773 68.5891Z" fill="white"/>
<path d="M184.084 71.3125L142.268 75.7444L142.478 77.7244L184.294 73.2925L184.084 71.3125Z" fill="white"/>
<path opacity="0.2" d="M175.834 77.9696L151.727 80.5246C151.213 80.5791 150.84 81.0402 150.894 81.5545L150.93 81.8921C150.985 82.4064 151.446 82.7791 151.96 82.7246L176.067 80.1696C176.581 80.1151 176.954 79.654 176.9 79.1397L176.864 78.8021C176.809 78.2878 176.348 77.9151 175.834 77.9696Z" fill="black"/>
<path d="M118.656 124.872C121.209 124.602 123.06 122.312 122.789 119.759C122.518 117.206 120.229 115.355 117.676 115.626C115.123 115.897 113.272 118.186 113.543 120.739C113.813 123.292 116.103 125.143 118.656 124.872Z" fill="#69F0AE"/>
<path d="M157.036 133.153L131.067 135.906L131.277 137.886L157.246 135.133L157.036 133.153Z" fill="#BDBDBD"/>
<path d="M157.875 141.076L131.905 143.828L132.115 145.808L158.085 143.056L157.875 141.076Z" fill="#F5F5F5"/>
<path d="M199.271 132.683L131.485 139.867L131.695 141.847L199.48 134.663L199.271 132.683Z" fill="#E0E0E0"/>
<path d="M120.687 144.017C123.241 143.747 125.091 141.457 124.82 138.904C124.55 136.351 122.261 134.5 119.707 134.771C117.154 135.042 115.304 137.331 115.574 139.884C115.845 142.437 118.134 144.288 120.687 144.017Z" fill="#E0E0E0"/>
<path d="M159.063 152.298L133.094 155.051L133.304 157.031L159.273 154.278L159.063 152.298Z" fill="#BDBDBD"/>
<path d="M159.903 160.221L133.933 162.974L134.143 164.954L160.113 162.201L159.903 160.221Z" fill="#F5F5F5"/>
<path d="M201.299 151.828L133.514 159.013L133.723 160.993L201.509 153.808L201.299 151.828Z" fill="#E0E0E0"/>
<path d="M122.714 163.163C125.267 162.892 127.118 160.603 126.847 158.05C126.577 155.496 124.287 153.646 121.734 153.917C119.181 154.187 117.33 156.476 117.601 159.03C117.872 161.583 120.161 163.433 122.714 163.163Z" fill="#E0E0E0"/>
<path d="M109.193 80.0662C109.467 82.3966 110.375 84.6072 111.819 86.4567C113.263 88.3062 115.188 89.7237 117.382 90.5546C119.576 91.3855 121.957 91.5979 124.264 91.1686C126.571 90.7393 128.715 89.6848 130.464 88.12C132.213 86.5553 133.498 84.5405 134.18 82.2953C134.862 80.0501 134.914 77.6608 134.331 75.3879C133.748 73.115 132.552 71.0458 130.874 69.406C129.196 67.7662 127.099 66.6188 124.813 66.0889L125.201 69.368C125.329 70.5065 125.002 71.6494 124.292 72.5487C123.583 73.448 122.547 74.0311 121.41 74.1716C120.267 74.3032 119.119 73.9774 118.217 73.2653C117.314 72.5532 116.729 71.5127 116.591 70.3712L116.203 67.092C113.841 68.2699 111.901 70.1482 110.646 72.4703C109.391 74.7923 108.884 77.445 109.193 80.0662Z" fill="url(#paint6_linear)"/>
<path d="M134.542 76.0266C134.294 73.6939 133.41 71.4741 131.987 69.6091C130.564 67.7441 128.656 66.3056 126.472 65.4502C124.288 64.5949 121.911 64.3556 119.6 64.7585C117.289 65.1614 115.133 66.1909 113.366 67.7349C111.6 69.2789 110.292 71.2781 109.584 73.5146C108.876 75.7511 108.796 78.139 109.352 80.418C109.907 82.6971 111.078 84.7798 112.737 86.4391C114.395 88.0984 116.477 89.2707 118.755 89.8282L118.407 86.546C118.289 85.4021 118.628 84.2579 119.351 83.3635C120.074 82.4691 121.121 81.8972 122.265 81.7727C123.409 81.6547 124.553 81.9942 125.447 82.7171C126.342 83.44 126.913 84.4875 127.038 85.6307L127.386 88.9129C129.76 87.7621 131.721 85.9071 133.001 83.601C134.282 81.2948 134.82 78.6498 134.542 76.0266Z" fill="#5AC8E1"/>
<path d="M122.142 80.5193C124.846 80.2326 126.807 77.8076 126.52 75.1029C126.233 72.3982 123.808 70.4379 121.104 70.7246C118.399 71.0113 116.439 73.4363 116.725 76.141C117.012 78.8457 119.437 80.8059 122.142 80.5193Z" fill="white" stroke="white" stroke-miterlimit="10"/>
<path d="M122.265 81.7725C121.122 81.8969 120.074 82.4688 119.351 83.3632C118.629 84.2576 118.289 85.4018 118.407 86.5457L118.756 89.8279C121.651 90.534 124.702 90.2126 127.387 88.9187L127.038 85.6365C126.915 84.4922 126.344 83.4431 125.45 82.719C124.555 81.9948 123.41 81.6545 122.265 81.7725Z" fill="white" stroke="white" stroke-miterlimit="10"/>
<path d="M116.652 75.8752C116.178 75.1573 115.907 74.3249 115.867 73.4658C115.832 72.6022 116.137 71.7593 116.715 71.117C117.364 70.4321 118.31 70.1139 119.237 69.9412C120.164 69.7684 121.107 69.726 122.016 69.4229C122.76 69.1883 123.451 68.8082 124.047 68.3046C124.643 67.801 125.133 67.1839 125.489 66.4893C125.657 67.1955 125.728 67.9216 125.698 68.6471C125.681 69.0103 125.59 69.3661 125.431 69.6929C125.271 70.0196 125.047 70.3104 124.771 70.5473C125.477 70.123 125.483 70.9382 125.377 71.4413C125.792 71.8474 126.695 71.8262 126.804 72.399C126.942 72.9645 126.942 73.5549 126.804 74.1204C126.635 74.675 126.977 75.5873 126.404 75.6873" fill="white"/>
<path d="M116.652 75.8752C116.178 75.1573 115.907 74.3249 115.867 73.4658C115.832 72.6022 116.137 71.7593 116.715 71.117C117.364 70.4321 118.31 70.1139 119.237 69.9412C120.164 69.7684 121.107 69.726 122.016 69.4229C122.76 69.1883 123.451 68.8082 124.047 68.3046C124.643 67.801 125.133 67.1839 125.489 66.4893C125.657 67.1955 125.728 67.9216 125.698 68.6471C125.681 69.0103 125.59 69.3661 125.431 69.6929C125.271 70.0196 125.047 70.3104 124.771 70.5473C125.477 70.123 125.483 70.9382 125.377 71.4413C125.792 71.8474 126.695 71.8262 126.804 72.399C126.942 72.9645 126.942 73.5549 126.804 74.1204C126.635 74.675 126.977 75.5873 126.404 75.6873" stroke="white" stroke-miterlimit="10"/>
<path d="M125.026 70.4109C125.026 70.4109 128.475 70.3473 126.58 75.6782L125.026 70.4109Z" fill="white"/>
<path d="M165.337 0.121094H66.7653V129.717H165.337V0.121094Z" fill="url(#paint7_linear)"/>
<path d="M165.449 0H66.6499V49.3963H165.449V0Z" fill="url(#paint8_linear)"/>
<path d="M164.076 1.12427H68.0258V127.705H164.076V1.12427Z" fill="#F5F5F5"/>
<path d="M164.188 1.00635H67.9172V49.251H164.188V1.00635Z" fill="#003ED0"/>
<path d="M114.279 62.8613H88.164V64.8525H114.279V62.8613Z" fill="#BDBDBD"/>
<path d="M114.279 70.8291H88.164V72.8202H114.279V70.8291Z" fill="#F5F5F5"/>
<path d="M156.329 66.8467H88.164V68.8378H156.329V66.8467Z" fill="#508ACD"/>
<path d="M131.764 19.0444H105.649V21.0356H131.764V19.0444Z" fill="white"/>
<path d="M147.699 23.4695H105.649V25.4606H147.699V23.4695Z" fill="white"/>
<path opacity="0.2" d="M138.795 29.2244H114.553C114.035 29.2244 113.616 29.6436 113.616 30.1608V30.5003C113.616 31.0174 114.035 31.4367 114.553 31.4367H138.795C139.312 31.4367 139.731 31.0174 139.731 30.5003V30.1608C139.731 29.6436 139.312 29.2244 138.795 29.2244Z" fill="black"/>
<path d="M76.9899 69.8349C79.5575 69.8349 81.639 67.7534 81.639 65.1859C81.639 62.6183 79.5575 60.5369 76.9899 60.5369C74.4224 60.5369 72.3409 62.6183 72.3409 65.1859C72.3409 67.7534 74.4224 69.8349 76.9899 69.8349Z" fill="#508ACD"/>
<path d="M114.279 82.1152H88.164V84.1063H114.279V82.1152Z" fill="#BDBDBD"/>
<path d="M114.279 90.0828H88.164V92.0739H114.279V90.0828Z" fill="#F5F5F5"/>
<path d="M156.329 86.1003H88.164V88.0915H156.329V86.1003Z" fill="#E0E0E0"/>
<path d="M76.9899 89.0885C79.5575 89.0885 81.639 87.0071 81.639 84.4395C81.639 81.872 79.5575 79.7905 76.9899 79.7905C74.4224 79.7905 72.3409 81.872 72.3409 84.4395C72.3409 87.0071 74.4224 89.0885 76.9899 89.0885Z" fill="#E0E0E0"/>
<path d="M114.279 101.372H88.164V103.363H114.279V101.372Z" fill="#BDBDBD"/>
<path d="M114.279 109.336H88.164V111.327H114.279V109.336Z" fill="#F5F5F5"/>
<path d="M156.329 105.354H88.164V107.345H156.329V105.354Z" fill="#E0E0E0"/>
<path d="M76.9899 108.342C79.5575 108.342 81.639 106.261 81.639 103.693C81.639 101.125 79.5575 99.0439 76.9899 99.0439C74.4224 99.0439 72.3409 101.125 72.3409 103.693C72.3409 106.261 74.4224 108.342 76.9899 108.342Z" fill="#E0E0E0"/>
<path d="M72.3137 24.2844C72.3431 26.6299 73.0159 28.9224 74.2585 30.9118C75.5012 32.9013 77.2662 34.5115 79.3611 35.5669C81.456 36.6223 83.8004 37.0824 86.1387 36.8971C88.4771 36.7117 90.7198 35.888 92.6222 34.5157C94.5246 33.1435 96.0139 31.2753 96.9276 29.1149C97.8414 26.9545 98.1445 24.5847 97.8041 22.2638C97.4636 19.9429 96.4926 17.76 94.9968 15.9531C93.5011 14.1461 91.538 12.7844 89.3216 12.0164L89.361 15.3167C89.3748 16.4704 88.9298 17.5824 88.124 18.4082C87.3181 19.2339 86.2173 19.7059 85.0636 19.7202C83.914 19.7308 82.807 19.286 81.9842 18.4831C81.1614 17.6802 80.6898 16.5844 80.6722 15.4349L80.6328 12.1346C78.1657 13.0594 76.0434 14.7219 74.5548 16.8959C73.0663 19.0699 72.2837 21.6498 72.3137 24.2844Z" fill="url(#paint9_linear)"/>
<path d="M97.9387 22.9357C97.9377 20.5899 97.2927 18.2894 96.0741 16.285C94.8555 14.2806 93.11 12.6491 91.028 11.5685C88.9459 10.4879 86.6071 9.99955 84.2666 10.1567C81.9261 10.3139 79.6736 11.1106 77.7548 12.4599C75.8359 13.8092 74.3242 15.6594 73.3846 17.8088C72.4449 19.9581 72.1133 22.3242 72.4259 24.6491C72.7386 26.9739 73.6834 29.1684 75.1574 30.9932C76.6315 32.818 78.5782 34.2031 80.7853 34.9977V31.6943C80.7885 30.5442 81.2468 29.4422 82.06 28.629C82.8732 27.8159 83.9752 27.3576 85.1252 27.3544C86.2752 27.3576 87.3772 27.8159 88.1904 28.629C89.0036 29.4422 89.4619 30.5442 89.4651 31.6943V34.9946C91.9465 34.1005 94.0917 32.4627 95.6081 30.3046C97.1245 28.1466 97.9384 25.5733 97.9387 22.9357Z" fill="#508ACD"/>
<path d="M85.1298 26.0998C87.8497 26.0998 90.0546 23.8949 90.0546 21.175C90.0546 18.4551 87.8497 16.2502 85.1298 16.2502C82.4099 16.2502 80.205 18.4551 80.205 21.175C80.205 23.8949 82.4099 26.0998 85.1298 26.0998Z" fill="white" stroke="white" stroke-miterlimit="10"/>
<path d="M85.1218 27.3545C83.9718 27.3577 82.8698 27.816 82.0566 28.6291C81.2434 29.4423 80.7851 30.5443 80.7819 31.6944V34.9947C83.5878 36.0004 86.6558 36.0004 89.4617 34.9947V31.6944C89.4585 30.5443 89.0002 29.4423 88.187 28.6291C87.3738 27.816 86.2718 27.3577 85.1218 27.3545Z" fill="white" stroke="white" stroke-miterlimit="10"/>
<path d="M80.1629 20.8992C79.7683 20.1351 79.5872 19.2786 79.6386 18.4202C79.6947 17.5569 80.0863 16.7498 80.7296 16.1714C81.4479 15.5653 82.4207 15.3441 83.3602 15.2622C84.2997 15.1804 85.2513 15.2319 86.1787 15.0501C86.9433 14.895 87.6696 14.5895 88.3152 14.1515C88.9608 13.7134 89.513 13.1515 89.9397 12.4983C90.0319 13.2182 90.0248 13.9473 89.9185 14.6652C89.8633 15.0243 89.7354 15.3684 89.5426 15.6764C89.3498 15.9844 89.0961 16.2498 88.7972 16.4563C89.5457 16.1108 89.4639 16.92 89.3033 17.4079C89.673 17.8565 90.5761 17.9292 90.6216 18.5111C90.697 19.0887 90.6326 19.6759 90.4337 20.2234C90.2064 20.7568 90.4489 21.6993 89.87 21.7387" fill="white"/>
<path d="M80.1629 20.8992C79.7683 20.1351 79.5872 19.2786 79.6386 18.4202C79.6947 17.5569 80.0863 16.7498 80.7296 16.1714C81.4479 15.5653 82.4207 15.3441 83.3602 15.2622C84.2997 15.1804 85.2513 15.2319 86.1787 15.0501C86.9433 14.895 87.6696 14.5895 88.3152 14.1515C88.9608 13.7134 89.513 13.1515 89.9397 12.4983C90.0319 13.2182 90.0248 13.9473 89.9185 14.6652C89.8633 15.0243 89.7354 15.3684 89.5426 15.6764C89.3498 15.9844 89.0961 16.2498 88.7972 16.4563C89.5457 16.1108 89.4639 16.92 89.3033 17.4079C89.673 17.8565 90.5761 17.9292 90.6216 18.5111C90.697 19.0887 90.6326 19.6759 90.4337 20.2234C90.2064 20.7568 90.4489 21.6993 89.87 21.7387" stroke="white" stroke-miterlimit="10"/>
<path d="M89.0645 16.3503C89.0645 16.3503 92.5012 16.6534 90.0555 21.7509L89.0645 16.3503Z" fill="white"/>
<path d="M57.7611 92.3556L36.1921 77.2539H6.32819V92.3556V99.7533V226.128H192.973V92.3556H57.7611Z" fill="url(#paint10_linear)"/>
<path d="M7.92444 93.8831V101.066V223.737H191.693V93.8831H58.5664" fill="white"/>
<path d="M58.5664 93.883L37.3277 79.2239H7.92444V93.883" fill="#BDBDBD"/>
<path d="M150.423 113.046H49.1996V204.571H150.423V113.046Z" fill="url(#paint11_linear)"/>
<path d="M149.501 113.712H50.5754V202.907H149.501V113.712Z" fill="white"/>
<path d="M120.173 180.471H81.2778V183.656H120.173V180.471Z" fill="#BDBDBD"/>
<path d="M142.534 186.845H57.5425V190.03H142.534V186.845Z" fill="#E0E0E0"/>
<path d="M142.534 193.218H57.5425V196.403H142.534V193.218Z" fill="#E0E0E0"/>
<path d="M75.8353 147.816C75.8907 152.245 77.1608 156.574 79.507 160.33C81.8533 164.087 85.1857 167.128 89.1411 169.121C93.0965 171.114 97.5231 171.984 101.939 171.634C106.354 171.285 110.589 169.73 114.182 167.14C117.774 164.549 120.587 161.022 122.313 156.943C124.039 152.864 124.613 148.39 123.971 144.007C123.329 139.625 121.497 135.502 118.674 132.09C115.851 128.677 112.145 126.104 107.96 124.653L108.036 130.887C108.056 133.058 107.216 135.148 105.7 136.702C104.184 138.255 102.115 139.146 99.944 139.179C97.7732 139.199 95.6827 138.359 94.129 136.843C92.5754 135.327 91.6849 133.257 91.6522 131.087L91.5764 124.853C86.9082 126.595 82.8914 129.735 80.0741 133.845C77.2569 137.955 75.7766 142.834 75.8353 147.816Z" fill="url(#paint12_linear)"/>
<path d="M124.235 145.274C124.234 140.844 123.017 136.499 120.716 132.713C118.416 128.927 115.12 125.845 111.188 123.804C107.256 121.762 102.84 120.839 98.4195 121.136C93.9992 121.432 89.7452 122.936 86.1212 125.484C82.4972 128.032 79.6422 131.526 77.8677 135.586C76.0931 139.645 75.4669 144.113 76.0575 148.504C76.6481 152.894 78.4328 157.039 81.2169 160.485C84.0011 163.931 87.6778 166.546 91.8464 168.046V161.812C91.8551 159.644 92.7201 157.568 94.2527 156.035C95.7854 154.503 97.8616 153.638 100.029 153.629C102.197 153.638 104.273 154.503 105.805 156.035C107.338 157.568 108.203 159.644 108.212 161.812V168.046C112.902 166.361 116.958 163.27 119.825 159.194C122.693 155.119 124.233 150.257 124.235 145.274Z" fill="#BDBDBD"/>
<path d="M100.854 149.353C100.854 148.549 100.203 147.898 99.3994 147.898C98.5959 147.898 97.9446 148.549 97.9446 149.353V156.702C97.9446 157.505 98.5959 158.157 99.3994 158.157C100.203 158.157 100.854 157.505 100.854 156.702V149.353Z" fill="white" stroke="white" stroke-miterlimit="10"/>
<path d="M99.4142 149.277C104.551 149.277 108.715 145.113 108.715 139.976C108.715 134.839 104.551 130.675 99.4142 130.675C94.2774 130.675 90.1132 134.839 90.1132 139.976C90.1132 145.113 94.2774 149.277 99.4142 149.277Z" fill="white" stroke="white" stroke-miterlimit="10"/>
<path d="M99.3979 151.647C97.2304 151.656 95.1542 152.521 93.6216 154.053C92.0889 155.586 91.224 157.662 91.2152 159.83V166.064C96.5125 167.962 102.305 167.962 107.602 166.064V159.842C107.596 157.669 106.73 155.586 105.192 154.05C103.655 152.514 101.571 151.65 99.3979 151.647Z" fill="white" stroke="white" stroke-miterlimit="10"/>
<path d="M90.0346 139.461C89.2893 138.018 88.9469 136.402 89.0436 134.781C89.1505 133.152 89.8901 131.63 91.1044 130.538C92.4591 129.384 94.2957 128.975 96.0716 128.832C97.8476 128.69 99.6448 128.775 101.39 128.432C102.834 128.14 104.205 127.563 105.424 126.737C106.643 125.91 107.686 124.849 108.491 123.616C108.603 124.98 108.715 126.365 108.452 127.711C108.188 129.056 107.497 130.375 106.33 131.093C107.743 130.438 107.588 131.972 107.282 132.89C107.982 133.736 109.682 133.875 109.77 134.969C109.858 136.063 109.843 137.194 109.416 138.203C108.988 139.212 109.446 140.988 108.355 141.067" fill="white"/>
<path d="M90.0346 139.461C89.2893 138.018 88.9469 136.402 89.0436 134.781C89.1505 133.152 89.8901 131.63 91.1044 130.538C92.4591 129.384 94.2957 128.975 96.0716 128.832C97.8476 128.69 99.6448 128.775 101.39 128.432C102.834 128.14 104.205 127.563 105.424 126.737C106.643 125.91 107.686 124.849 108.491 123.616C108.603 124.98 108.715 126.365 108.452 127.711C108.188 129.056 107.497 130.375 106.33 131.093C107.743 130.438 107.588 131.972 107.282 132.89C107.982 133.736 109.682 133.875 109.77 134.969C109.858 136.063 109.843 137.194 109.416 138.203C108.988 139.212 109.446 140.988 108.355 141.067" stroke="white" stroke-miterlimit="10"/>
<path d="M106.845 130.869C106.845 130.869 113.334 131.436 108.715 141.067L106.845 130.869Z" fill="white"/>
</g>
<defs>
<linearGradient id="paint0_linear" x1="82.3233" y1="152.352" x2="47.3324" y2="27.9399" gradientUnits="userSpaceOnUse">
<stop stop-color="#808080" stop-opacity="0.25"/>
<stop offset="0.54" stop-color="#808080" stop-opacity="0.12"/>
<stop offset="1" stop-color="#808080" stop-opacity="0.1"/>
</linearGradient>
<linearGradient id="paint1_linear" x1="60.7218" y1="76.3336" x2="47.6292" y2="28.704" gradientUnits="userSpaceOnUse">
<stop stop-color="#B3B3B3" stop-opacity="0.25"/>
<stop offset="0.54" stop-color="#B3B3B3" stop-opacity="0.1"/>
<stop offset="1" stop-color="#B3B3B3" stop-opacity="0.05"/>
</linearGradient>
<linearGradient id="paint2_linear" x1="28.1372" y1="73.2994" x2="20.1239" y2="49.57" gradientUnits="userSpaceOnUse">
<stop stop-opacity="0.12"/>
<stop offset="0.55" stop-opacity="0.09"/>
<stop offset="1" stop-opacity="0.02"/>
</linearGradient>
<linearGradient id="paint3_linear" x1="37798.2" y1="92834.5" x2="37798.2" y2="37196.2" gradientUnits="userSpaceOnUse">
<stop stop-color="#808080" stop-opacity="0.25"/>
<stop offset="0.54" stop-color="#808080" stop-opacity="0.12"/>
<stop offset="1" stop-color="#808080" stop-opacity="0.1"/>
</linearGradient>
<linearGradient id="paint4_linear" x1="81576.1" y1="79089" x2="75735.3" y2="23979.8" gradientUnits="userSpaceOnUse">
<stop stop-color="#808080" stop-opacity="0.25"/>
<stop offset="0.54" stop-color="#808080" stop-opacity="0.12"/>
<stop offset="1" stop-color="#808080" stop-opacity="0.1"/>
</linearGradient>
<linearGradient id="paint5_linear" x1="74672.5" y1="12403" x2="73824" y2="4397.2" gradientUnits="userSpaceOnUse">
<stop stop-color="#B3B3B3" stop-opacity="0.25"/>
<stop offset="0.54" stop-color="#B3B3B3" stop-opacity="0.1"/>
<stop offset="1" stop-color="#B3B3B3" stop-opacity="0.05"/>
</linearGradient>
<linearGradient id="paint6_linear" x1="-16432.4" y1="-6323.09" x2="-16763.3" y2="-8387.3" gradientUnits="userSpaceOnUse">
<stop stop-opacity="0.12"/>
<stop offset="0.55" stop-opacity="0.09"/>
<stop offset="1" stop-opacity="0.02"/>
</linearGradient>
<linearGradient id="paint7_linear" x1="37811.7" y1="55471.1" x2="37811.7" y2="51.9621" gradientUnits="userSpaceOnUse">
<stop stop-color="#808080" stop-opacity="0.25"/>
<stop offset="0.54" stop-color="#808080" stop-opacity="0.12"/>
<stop offset="1" stop-color="#808080" stop-opacity="0.1"/>
</linearGradient>
<linearGradient id="paint8_linear" x1="37898.7" y1="8051.11" x2="37898.7" y2="0" gradientUnits="userSpaceOnUse">
<stop stop-color="#B3B3B3" stop-opacity="0.25"/>
<stop offset="0.54" stop-color="#B3B3B3" stop-opacity="0.1"/>
<stop offset="1" stop-color="#B3B3B3" stop-opacity="0.05"/>
</linearGradient>
<linearGradient id="paint9_linear" x1="-18653" y1="-12077.5" x2="-18757.2" y2="-14134.8" gradientUnits="userSpaceOnUse">
<stop stop-opacity="0.12"/>
<stop offset="0.55" stop-opacity="0.09"/>
<stop offset="1" stop-opacity="0.02"/>
</linearGradient>
<linearGradient id="paint10_linear" x1="61377" y1="111158" x2="61377" y2="38026.7" gradientUnits="userSpaceOnUse">
<stop stop-color="#808080" stop-opacity="0.25"/>
<stop offset="0.54" stop-color="#808080" stop-opacity="0.12"/>
<stop offset="1" stop-color="#808080" stop-opacity="0.1"/>
</linearGradient>
<linearGradient id="paint11_linear" x1="33386.1" y1="61893.5" x2="33386.1" y2="34252.8" gradientUnits="userSpaceOnUse">
<stop stop-color="#808080" stop-opacity="0.25"/>
<stop offset="0.54" stop-color="#808080" stop-opacity="0.12"/>
<stop offset="1" stop-color="#808080" stop-opacity="0.1"/>
</linearGradient>
<linearGradient id="paint12_linear" x1="-32946.3" y1="-2123.05" x2="-33318" y2="-9456.93" gradientUnits="userSpaceOnUse">
<stop stop-opacity="0.12"/>
<stop offset="0.55" stop-opacity="0.09"/>
<stop offset="1" stop-opacity="0.02"/>
</linearGradient>
<clipPath id="clip0">
<rect width="221" height="226.128" fill="white"/>
</clipPath>
</defs>
</svg>
