<svg width="1366" height="189" viewBox="0 0 1366 189" fill="none" xmlns="http://www.w3.org/2000/svg">
<g opacity="0.7">
<path opacity="0.1" d="M0 44.4159L37.9444 40.4248C75.8889 36.1324 151.778 28.602 227.667 36.3584C303.556 44.4159 379.444 68.5133 455.333 84.5531C531.222 100.894 607.111 108.424 683 112.717C758.889 116.708 834.778 116.708 910.667 108.65C986.556 100.894 1062.44 84.3271 1138.33 84.5531C1214.22 84.3271 1290.11 100.894 1328.06 108.65L1366 116.708V189H1328.06C1290.11 189 1214.22 189 1138.33 189C1062.44 189 986.556 189 910.667 189C834.778 189 758.889 189 683 189C607.111 189 531.222 189 455.333 189C379.444 189 303.556 189 227.667 189C151.778 189 75.8889 189 37.9444 189H0V44.4159Z" fill="#508ACD"/>
<path opacity="0.1" d="M0 91.6773L37.9444 88.9913C75.8889 86.1025 151.778 81.0345 227.667 86.2546C303.556 91.6773 379.444 107.895 455.333 118.69C531.222 129.687 607.111 134.755 683 137.644C758.889 140.33 834.778 140.33 910.667 134.907C986.556 129.687 1062.44 118.538 1138.33 118.69C1214.22 118.538 1290.11 129.687 1328.06 134.907L1366 140.33V188.983H1328.06C1290.11 188.983 1214.22 188.983 1138.33 188.983C1062.44 188.983 986.556 188.983 910.667 188.983C834.778 188.983 758.889 188.983 683 188.983C607.111 188.983 531.222 188.983 455.333 188.983C379.444 188.983 303.556 188.983 227.667 188.983C151.778 188.983 75.8889 188.983 37.9444 188.983H0V91.6773Z" fill="#508ACD"/>
<path opacity="0.1" d="M0 129.673L37.9444 128.036C75.8889 126.275 151.778 123.186 227.667 126.368C303.556 129.673 379.444 139.558 455.333 146.138C531.222 152.841 607.111 155.93 683 157.691C758.889 159.328 834.778 159.328 910.667 156.023C986.556 152.841 1062.44 146.045 1138.33 146.138C1214.22 146.045 1290.11 152.841 1328.06 156.023L1366 159.328V188.983H1328.06C1290.11 188.983 1214.22 188.983 1138.33 188.983C1062.44 188.983 986.556 188.983 910.667 188.983C834.778 188.983 758.889 188.983 683 188.983C607.111 188.983 531.222 188.983 455.333 188.983C379.444 188.983 303.556 188.983 227.667 188.983C151.778 188.983 75.8889 188.983 37.9444 188.983H0V129.673Z" fill="#508ACD"/>
</g>
<circle opacity="0.5" cx="20" cy="4" r="4" fill="#003ED0"/>
<circle opacity="0.5" cx="164" cy="4" r="4" fill="#003ED0"/>
<circle opacity="0.5" cx="92" cy="21" r="3.5" stroke="#003ED0"/>
<circle opacity="0.5" cx="298" cy="20" r="4" fill="#003ED0"/>
<circle opacity="0.5" cx="442" cy="20" r="4" fill="#003ED0"/>
<circle opacity="0.5" cx="370" cy="37" r="3.5" stroke="#003ED0"/>
<circle opacity="0.5" cx="682" cy="69" r="4" transform="rotate(-180 682 69)" fill="#003ED0"/>
<circle opacity="0.5" cx="538" cy="69" r="4" transform="rotate(-180 538 69)" fill="#003ED0"/>
<circle opacity="0.5" cx="610" cy="52" r="3.5" transform="rotate(-180 610 52)" stroke="#003ED0"/>
<circle opacity="0.5" cx="778" cy="52" r="4" fill="#003ED0"/>
<circle opacity="0.5" cx="922" cy="52" r="4" fill="#003ED0"/>
<circle opacity="0.5" cx="850" cy="69" r="3.5" stroke="#003ED0"/>
<circle opacity="0.5" cx="1162" cy="36" r="4" transform="rotate(-180 1162 36)" fill="#003ED0"/>
<circle opacity="0.5" cx="1018" cy="36" r="4" transform="rotate(-180 1018 36)" fill="#003ED0"/>
<circle opacity="0.5" cx="1090" cy="19" r="3.5" transform="rotate(-180 1090 19)" stroke="#003ED0"/>
<circle opacity="0.5" cx="1202" cy="19" r="4" fill="#003ED0"/>
<circle opacity="0.5" cx="1346" cy="19" r="4" fill="#003ED0"/>
<circle opacity="0.5" cx="1274" cy="36" r="3.5" stroke="#003ED0"/>
</svg>
