<svg width="25" height="24" viewBox="0 0 25 24" fill="none" xmlns="http://www.w3.org/2000/svg">
<path d="M18.0497 9.99882H16.9094C16.5708 8.68757 15.8712 7.49757 14.89 6.56405C13.9089 5.63052 12.6855 4.99091 11.359 4.71787C10.0325 4.44484 8.65594 4.54934 7.38584 5.0195C6.11574 5.48966 5.00299 6.30663 4.17403 7.37757C3.34507 8.44851 2.83315 9.73048 2.69642 11.0778C2.55969 12.4252 2.80364 13.7838 3.40056 14.9994C3.99748 16.2151 4.92342 17.2389 6.07318 17.9546C7.22294 18.6703 8.55041 19.0492 9.90474 19.0482H18.0497C19.2497 19.0482 20.4007 18.5715 21.2493 17.7229C22.0979 16.8744 22.5746 15.7235 22.5746 14.5235C22.5746 13.3235 22.0979 12.1726 21.2493 11.3241C20.4007 10.4755 19.2497 9.99882 18.0497 9.99882Z" fill="white" stroke="white" stroke-width="3.48494" stroke-linecap="round" stroke-linejoin="round"/>
<mask id="mask0" mask-type="alpha" maskUnits="userSpaceOnUse" x="2" y="4" width="21" height="16">
<path d="M17.9585 10.0003H16.8374C16.5045 8.68868 15.8166 7.49836 14.8519 6.56459C13.8872 5.63081 12.6844 4.99102 11.3801 4.71791C10.0758 4.44481 8.72237 4.54934 7.47357 5.01962C6.22477 5.48991 5.13068 6.3071 4.31562 7.37833C3.50057 8.44956 2.99722 9.73188 2.86279 11.0796C2.72835 12.4273 2.96822 13.7863 3.55512 15.0023C4.14203 16.2182 5.05245 17.2423 6.18292 17.9582C7.3134 18.6741 8.6186 19.0531 9.95022 19.0521H17.9585C19.1385 19.0521 20.2701 18.5752 21.1045 17.7265C21.9389 16.8777 22.4076 15.7265 22.4076 14.5262C22.4076 13.3258 21.9389 12.1747 21.1045 11.3259C20.2701 10.4771 19.1385 10.0003 17.9585 10.0003Z" fill="white"/>
</mask>
<g mask="url(#mask0)">
<g filter="url(#filter0_d)">
<path d="M-10.9182 5.90644L-9.90297 5.43893C-8.88772 4.93614 -6.85723 4.05405 -4.82673 4.9626C-2.79624 5.90644 -0.765744 8.72912 1.26475 10.608C3.29524 12.5221 5.32574 13.4042 7.35623 13.907C9.38672 14.3745 11.4172 14.3745 13.4477 13.4306C15.4782 12.5221 17.5087 10.5815 19.5392 10.608C21.5697 10.5815 23.6002 12.5221 24.6154 13.4306L25.6307 14.3745V22.8425H24.6154C23.6002 22.8425 21.5697 22.8425 19.5392 22.8425C17.5087 22.8425 15.4782 22.8425 13.4477 22.8425C11.4172 22.8425 9.38672 22.8425 7.35623 22.8425C5.32574 22.8425 3.29524 22.8425 1.26475 22.8425C-0.765744 22.8425 -2.79624 22.8425 -4.82673 22.8425C-6.85723 22.8425 -8.88772 22.8425 -9.90297 22.8425H-10.9182V5.90644Z" fill="white"/>
</g>
<g opacity="0.8" filter="url(#filter1_d)">
<path d="M-10.9182 8.79169L-9.90297 8.32418C-8.88772 7.82139 -6.85723 6.9393 -4.82673 7.84786C-2.79624 8.79169 -0.765744 11.6144 1.26475 13.4932C3.29524 15.4074 5.32574 16.2894 7.35623 16.7922C9.38672 17.2597 11.4172 17.2597 13.4477 16.3159C15.4782 15.4074 17.5087 13.4668 19.5392 13.4932C21.5697 13.4668 23.6002 15.4074 24.6154 16.3159L25.6307 17.2597V25.7278H24.6154C23.6002 25.7278 21.5697 25.7278 19.5392 25.7278C17.5087 25.7278 15.4782 25.7278 13.4477 25.7278C11.4172 25.7278 9.38672 25.7278 7.35623 25.7278C5.32574 25.7278 3.29524 25.7278 1.26475 25.7278C-0.765744 25.7278 -2.79624 25.7278 -4.82673 25.7278C-6.85723 25.7278 -8.88772 25.7278 -9.90297 25.7278H-10.9182V8.79169Z" fill="white"/>
</g>
</g>
<defs>
<filter id="filter0_d" x="-12.3703" y="3.11715" width="39.453" height="21.1774" filterUnits="userSpaceOnUse" color-interpolation-filters="sRGB">
<feFlood flood-opacity="0" result="BackgroundImageFix"/>
<feColorMatrix in="SourceAlpha" type="matrix" values="0 0 0 0 0 0 0 0 0 0 0 0 0 0 0 0 0 0 127 0"/>
<feOffset/>
<feGaussianBlur stdDeviation="0.72603"/>
<feColorMatrix type="matrix" values="0 0 0 0 0 0 0 0 0 0 0 0 0 0 0 0 0 0 0.25 0"/>
<feBlend mode="normal" in2="BackgroundImageFix" result="effect1_dropShadow"/>
<feBlend mode="normal" in="SourceGraphic" in2="effect1_dropShadow" result="shape"/>
</filter>
<filter id="filter1_d" x="-13.8223" y="2.37226" width="42.3571" height="24.0816" filterUnits="userSpaceOnUse" color-interpolation-filters="sRGB">
<feFlood flood-opacity="0" result="BackgroundImageFix"/>
<feColorMatrix in="SourceAlpha" type="matrix" values="0 0 0 0 0 0 0 0 0 0 0 0 0 0 0 0 0 0 127 0"/>
<feOffset dy="-2.17809"/>
<feGaussianBlur stdDeviation="1.45206"/>
<feColorMatrix type="matrix" values="0 0 0 0 0 0 0 0 0 0 0 0 0 0 0 0 0 0 0.15 0"/>
<feBlend mode="normal" in2="BackgroundImageFix" result="effect1_dropShadow"/>
<feBlend mode="normal" in="SourceGraphic" in2="effect1_dropShadow" result="shape"/>
</filter>
</defs>
</svg>
