<svg width="25" height="25" viewBox="0 0 25 25" fill="none" xmlns="http://www.w3.org/2000/svg">
<path d="M3.444 21.9555C3.50198 21.9393 3.55293 21.9043 3.58881 21.8559C3.62469 21.8076 3.64347 21.7487 3.64217 21.6885C3.55821 21.189 3.64105 20.6759 3.8779 20.2282C4.014 19.9674 4.20096 19.7365 4.42775 19.5491C4.65454 19.3617 4.91657 19.2217 5.19837 19.1372L9.98378 18.0942C10.038 18.1651 10.0985 18.2423 10.1632 18.3174C10.2278 18.3925 10.353 18.5031 10.4615 18.6011C10.57 18.6992 10.7014 18.7784 10.8328 18.8702C11.4374 19.2392 12.1313 19.4361 12.8396 19.4397C13.549 19.4451 14.2457 19.2514 14.8505 18.8806C15.2061 18.6665 15.5148 18.3826 15.758 18.0462C16.9178 18.4342 18.5908 18.8806 20.2034 19.2374C20.5193 19.3006 20.8176 19.4321 21.0775 19.6227C21.3373 19.8134 21.5523 20.0585 21.7074 20.3409C21.8405 20.5878 21.9294 20.8561 21.9703 21.1336C22.0014 21.3617 22.0084 21.5924 21.9911 21.822C21.9911 21.8533 22.1142 21.9179 22.2644 21.9638C22.4146 22.0097 22.5126 22.0097 22.5272 21.9763C22.6551 21.7056 22.7315 21.4135 22.7525 21.1148C22.7792 20.7209 22.7201 20.3259 22.5794 19.957C22.4127 19.5207 22.1445 19.1303 21.7971 18.8181C21.4187 18.4766 20.9602 18.2362 20.4641 18.1192C18.9288 17.7354 17.3142 17.3891 16.1147 17.2118C16.0834 16.853 16.0459 16.586 16.0041 16.3774C16.0041 16.3419 15.8581 16.3127 15.6975 16.3169C15.5369 16.3211 15.4367 16.3461 15.4305 16.3774C15.3639 16.7569 15.3193 17.14 15.297 17.5247C15.0059 17.7049 14.7011 17.8618 14.3854 17.9941C13.8955 18.1951 13.3712 18.2986 12.8417 18.2986C12.3112 18.2933 11.7863 18.1893 11.2938 17.992C11.1833 17.9398 11.0727 17.8919 10.9684 17.846C10.8641 17.8001 10.7702 17.7396 10.6763 17.6916L10.4677 17.5664L10.4823 16.3774V15.7516V15.6264C10.484 15.5944 10.484 15.5624 10.4823 15.5304C10.4699 15.4092 10.4338 15.2915 10.376 15.1842L10.1861 14.8942C9.77787 14.2211 9.52356 13.4659 9.44141 12.683C9.44141 11.6024 9.44141 10.501 9.44141 9.39118V8.97397C9.44141 8.89887 9.44141 8.84046 9.44141 8.78205V8.60056C9.44141 8.47957 9.47478 8.36275 9.4873 8.24176C9.49982 8.12077 9.54571 8.00812 9.57074 7.8913C9.70858 7.42988 9.94327 7.00318 10.2591 6.63967C10.7132 6.11397 11.3141 5.73593 11.9845 5.55407C12.655 5.37221 13.3644 5.39482 14.022 5.61899C14.6795 5.84317 15.255 6.25869 15.6747 6.81224C16.0944 7.36578 16.3392 8.03211 16.3775 8.72573L16.388 8.88635V9.06575V9.42038L16.413 10.1192L16.4422 11.4522L16.4589 12.078V12.3847C16.4648 12.4638 16.4648 12.5433 16.4589 12.6225C16.4236 12.919 16.29 13.1952 16.0792 13.4068C15.8854 13.6048 15.6371 13.7406 15.3658 13.7969C15.3019 13.8107 15.237 13.8197 15.1718 13.824C15.105 13.824 15.0195 13.824 14.9444 13.8366L14.6044 13.8532C14.5307 13.4654 14.3112 13.1205 13.9911 12.8895C13.8092 12.7579 13.5999 12.6689 13.3789 12.6292C13.1579 12.5894 12.9308 12.6 12.7144 12.66C12.5356 12.7093 12.3685 12.7939 12.223 12.9089C12.0775 13.0239 11.9566 13.167 11.8675 13.3296C11.7365 13.5635 11.6914 13.8358 11.7402 14.0994C11.7402 14.1286 11.88 14.1495 12.0385 14.1474C12.1257 14.1528 12.2131 14.1437 12.2972 14.1203C12.3517 13.9963 12.4329 13.8858 12.535 13.7969C12.6443 13.7013 12.7823 13.6447 12.9272 13.6363C12.9979 13.6299 13.0692 13.6383 13.1365 13.661C13.2038 13.6836 13.2656 13.7201 13.318 13.7679C13.3705 13.8158 13.4123 13.8741 13.441 13.9391C13.4696 14.0041 13.4844 14.0743 13.4844 14.1453C13.4844 14.2163 13.4696 14.2865 13.441 14.3515C13.4123 14.4165 13.3705 14.4748 13.318 14.5226C13.2656 14.5705 13.2038 14.607 13.1365 14.6296C13.0692 14.6523 12.9979 14.6607 12.9272 14.6543C12.7851 14.6466 12.6495 14.5923 12.5413 14.4999C12.4406 14.4114 12.3608 14.3017 12.3076 14.1787C12.2069 14.1531 12.1026 14.1439 11.9989 14.1516C11.8529 14.1516 11.7402 14.1724 11.734 14.1995C11.6858 14.464 11.7316 14.737 11.8633 14.9714C11.9531 15.1343 12.0747 15.2775 12.2209 15.3925C12.3671 15.5076 12.535 15.592 12.7144 15.641C12.9314 15.7006 13.1591 15.7106 13.3805 15.6701C13.6019 15.6297 13.8113 15.5399 13.9932 15.4074C14.3128 15.1753 14.5315 14.8297 14.6044 14.4415L14.9423 14.4582C15.0216 14.4582 15.0904 14.4582 15.1801 14.4582C15.2749 14.4603 15.3698 14.4554 15.4638 14.4436C15.878 14.3944 16.267 14.2189 16.5778 13.9409C16.9334 13.6316 17.1739 13.211 17.2599 12.7476C17.2599 12.7351 17.2599 12.7205 17.2599 12.708C17.406 12.7393 17.5708 12.7685 17.7543 12.7956C17.8837 12.8144 18.0214 12.8311 18.1715 12.8457H18.2258H18.303C18.3578 12.8497 18.4129 12.8497 18.4678 12.8457C18.5831 12.8335 18.6965 12.8076 18.8057 12.7685C19.0474 12.68 19.262 12.5303 19.4284 12.3339C19.5948 12.1375 19.7073 11.9012 19.7549 11.6483C19.7688 11.5795 19.7772 11.5098 19.7799 11.4397V11.3542V11.2874V11.0204V10.4822V9.94398V9.67697V9.61021V9.52469C19.7772 9.45459 19.7688 9.38483 19.7549 9.31608C19.7206 9.15758 19.66 9.00596 19.5755 8.86758C19.5913 8.53404 19.5788 8.19976 19.5379 7.86836C19.4274 6.93728 19.1179 6.04086 18.6305 5.23993C18.0382 4.27154 17.2119 3.46754 16.2278 2.90183C15.2436 2.33611 14.133 2.02682 12.9981 2.00237C11.8615 1.97224 10.7358 2.22968 9.72523 2.75081C8.7147 3.27194 7.85217 4.03987 7.21767 4.98334C6.69035 5.75853 6.33997 6.6402 6.19133 7.56588C6.16213 7.77448 6.14753 7.97266 6.12875 8.16249C6.11875 8.34662 6.11875 8.53116 6.12875 8.7153V8.82377C6.03247 8.97629 5.96528 9.14534 5.93058 9.32234C5.90967 9.44009 5.8992 9.55946 5.89929 9.67905V9.94607V10.4864V11.0266V11.2937V11.3708V11.4564C5.90198 11.5265 5.91035 11.5962 5.92432 11.665C5.97162 11.9188 6.08421 12.156 6.251 12.3532C6.41779 12.5503 6.63304 12.7006 6.87556 12.7894C6.98541 12.8286 7.09957 12.8545 7.21559 12.8665C7.27113 12.8708 7.32692 12.8708 7.38247 12.8665H7.45548H7.50972C7.65574 12.8519 7.79342 12.8353 7.92693 12.8165C8.06044 12.7977 8.19812 12.7748 8.31702 12.7518C8.31615 12.7685 8.31615 12.7852 8.31702 12.8019C8.42925 13.7557 8.75665 14.6716 9.27452 15.4804C9.30581 15.5304 9.34128 15.5784 9.37465 15.6264L9.42263 15.6952V15.7516V16.3774V17.1888L7.27399 17.7333L6.08494 18.0462L5.51754 18.1943L5.24009 18.2548C5.15039 18.2778 5.03149 18.3174 4.93553 18.3487C4.56082 18.482 4.2173 18.6905 3.92603 18.9613C3.63475 19.2322 3.40187 19.5596 3.24165 19.9237C2.97984 20.5145 2.92903 21.1773 3.09771 21.8011C3.10838 21.8354 3.12622 21.867 3.15006 21.8938C3.1739 21.9206 3.20317 21.942 3.23594 21.9566C3.26871 21.9712 3.30422 21.9787 3.34009 21.9785C3.37597 21.9783 3.41139 21.9704 3.444 21.9555ZM18.4156 11.8506C18.3812 11.8709 18.3449 11.8876 18.3071 11.9007C18.2882 11.9081 18.2687 11.9137 18.2487 11.9174H18.2174H18.1632C18.0193 11.932 17.8816 11.9487 17.746 11.9675C17.5777 11.9911 17.4261 12.0175 17.2912 12.0467L17.3058 11.4209L17.3413 10.1192L17.3538 9.42247V9.06784V8.94476C17.4734 8.9684 17.6034 8.98996 17.7439 9.00943C17.8732 9.0282 18.0109 9.04489 18.1611 9.05949H18.2154H18.2446C18.2645 9.06319 18.2841 9.06878 18.303 9.07618C18.34 9.08943 18.3756 9.10619 18.4094 9.12625C18.4764 9.16695 18.5331 9.22257 18.575 9.28879C18.617 9.35501 18.6431 9.43003 18.6513 9.508V10.4843L18.6639 11.4605C18.656 11.5405 18.6295 11.6175 18.5864 11.6853C18.5432 11.753 18.4847 11.8097 18.4156 11.8506ZM7.92693 11.9758C7.7976 11.957 7.65992 11.9403 7.50972 11.9257H7.45548H7.42419C7.40492 11.922 7.38606 11.9164 7.36787 11.909C7.33083 11.8959 7.29519 11.8792 7.26148 11.859C7.19397 11.8186 7.13678 11.7632 7.09442 11.6969C7.05206 11.6306 7.02569 11.5554 7.01741 11.4772V10.4989L7.00489 9.52051C7.01271 9.44162 7.03885 9.36565 7.08122 9.29865C7.1236 9.23165 7.18104 9.17547 7.24896 9.13459C7.28333 9.11427 7.31967 9.09749 7.35744 9.08453C7.37629 9.07701 7.39586 9.07141 7.41585 9.06784H7.44922H7.50346C7.64948 9.05324 7.78716 9.03655 7.92067 9.01777C8.05418 8.999 8.16891 8.98022 8.27739 8.95936C8.27739 8.97188 8.27739 8.98648 8.27739 8.999V9.41621L8.31076 12.0384C8.19255 12.0106 8.06461 11.9897 7.92693 11.9758ZM8.47556 7.56171C8.43801 7.71816 8.39003 7.87253 8.36292 8.03107C8.36292 8.10408 8.33997 8.17709 8.32954 8.23968C8.20646 8.21464 8.07295 8.1917 7.92693 8.17084C7.78091 8.14997 7.65992 8.13537 7.50972 8.12077H7.45548H7.3783C7.32275 8.1165 7.26696 8.1165 7.21141 8.12077C7.09976 8.13222 6.98984 8.15672 6.8839 8.19378C6.91728 8.0415 6.9444 7.88296 6.98403 7.72233C7.20178 6.88175 7.59455 6.09661 8.13664 5.41828C8.67873 4.73994 9.35793 4.1837 10.1298 3.78595C11.0077 3.34002 11.9824 3.11856 12.9668 3.14136C13.9505 3.16084 14.9136 3.42618 15.7684 3.9132C16.5756 4.36914 17.2661 5.00608 17.7856 5.77396C18.2377 6.4457 18.555 7.19878 18.7202 7.99143C18.7369 8.05819 18.7494 8.12494 18.7619 8.20004C18.6651 8.16783 18.5651 8.14615 18.4636 8.13537C18.408 8.13126 18.3523 8.13126 18.2967 8.13537H18.2195H18.1653C18.0213 8.14997 17.8837 8.16666 17.7481 8.18544C17.6125 8.20421 17.4498 8.23133 17.3309 8.25845C17.2076 7.26473 16.7553 6.34088 16.0459 5.63419C15.4865 5.08127 14.7936 4.68256 14.0345 4.47687C13.2753 4.27117 12.4759 4.2655 11.7139 4.4604C10.952 4.6553 10.2534 5.04414 9.68631 5.58907C9.11919 6.134 8.70279 6.81647 8.47765 7.57005L8.47556 7.56171Z" fill="#2B2B2B"/>
</svg>
