<svg width="30" height="29" viewBox="0 0 30 29" fill="none" xmlns="http://www.w3.org/2000/svg">
<path fill-rule="evenodd" clip-rule="evenodd" d="M10.1451 9.29289C10.5277 8.90237 11.148 8.90237 11.5307 9.29289L14.7568 12.5858L17.983 9.29289C18.3655 8.90237 18.9859 8.90237 19.3685 9.29289C19.7511 9.68342 19.7511 10.3166 19.3685 10.7071L16.1423 14L19.3685 17.2929C19.7511 17.6834 19.7511 18.3166 19.3685 18.7071C18.9859 19.0976 18.3655 19.0976 17.983 18.7071L14.7568 15.4142L11.5307 18.7071C11.148 19.0976 10.5277 19.0976 10.1451 18.7071C9.7625 18.3166 9.7625 17.6834 10.1451 17.2929L13.3713 14L10.1451 10.7071C9.7625 10.3166 9.7625 9.68342 10.1451 9.29289Z" fill="#2B2B2B"/>
<rect x="3.5" y="2.5" width="22.5135" height="23" rx="3.5" stroke="#2B2B2B"/>
</svg>
