<svg width="25" height="25" viewBox="0 0 25 25" fill="none" xmlns="http://www.w3.org/2000/svg">
<path d="M9.65736 9.76264L10.1775 9.68682L10.4099 9.21543L12.4847 5.00872C12.4865 5.00507 12.488 5.00254 12.4891 5.00091C12.4909 5.00047 12.4938 4.99999 12.4979 5C12.505 5.00002 12.5096 5.00157 12.5114 5.00231C12.5123 5.00348 12.5138 5.0058 12.5158 5.00972C12.5159 5.00987 12.5159 5.01003 12.516 5.01018L14.5901 9.21543L14.8225 9.68682L15.3426 9.76264L19.9851 10.4395L19.9858 10.4396C19.9893 10.4401 19.9917 10.4406 19.9933 10.441C19.9945 10.4428 19.9964 10.446 19.998 10.4509C19.9997 10.4561 20 10.46 20 10.462C19.9989 10.4634 19.9971 10.4656 19.9941 10.4684L19.9939 10.4687L16.6352 13.7416L16.2584 14.1087L16.3475 14.6271L17.1418 19.2498C17.1418 19.2498 17.1418 19.2498 17.1418 19.2498C17.1424 19.2533 17.1427 19.256 17.1428 19.2579C17.1415 19.2593 17.1395 19.2613 17.1364 19.2635C17.131 19.2674 17.1265 19.269 17.1243 19.2696C17.1231 19.2691 17.1211 19.2683 17.1185 19.2669L17.1184 19.2668L12.9653 17.0838L12.5 16.8392L12.0347 17.0838L7.88165 19.2668L7.87851 19.2685C7.87674 19.2694 7.87531 19.2701 7.87421 19.2705C7.87208 19.2698 7.86856 19.2683 7.86431 19.2652C7.86066 19.2626 7.85842 19.2602 7.85716 19.2587C7.85725 19.2568 7.8575 19.2539 7.85818 19.25C7.85819 19.2499 7.8582 19.2498 7.85821 19.2498L8.65248 14.6271L8.74156 14.1087L8.36482 13.7416L5.00614 10.4687L5.00586 10.4684C5.00293 10.4656 5.00108 10.4634 5.00001 10.462C5.00002 10.46 5.00033 10.4561 5.00203 10.4509C5.00363 10.446 5.00551 10.4428 5.0067 10.441C5.0083 10.4406 5.01075 10.4401 5.0142 10.4396L5.01493 10.4395L9.65736 9.76264ZM12.5108 5.00145C12.5106 5.00131 12.5107 5.0013 12.5108 5.00146L12.5108 5.00145Z" fill="white" stroke="white" stroke-width="2"/>
</svg>
