<svg width="187" height="211" viewBox="0 0 187 211" fill="none" xmlns="http://www.w3.org/2000/svg">
<g filter="url(#filter0_d_106_596)">
<rect x="15.9889" y="42.9323" width="119.556" height="152.476" rx="5.77247" transform="rotate(-15 15.9889 42.9323)" fill="white" stroke="#97B9EC" stroke-width="0.769662"/>
<rect x="29.7932" y="56.4629" width="28.3787" height="29.5139" rx="1.53932" transform="rotate(-15 29.7932 56.4629)" fill="#EBECFF"/>
<path d="M42.5172 68.5737L39.8603 69.2867L38.6501 64.7773L39.2112 64.6267L40.2871 68.6358L42.383 68.0734L42.5172 68.5737ZM44.5894 68.1046C43.5956 68.3713 42.7668 67.7675 42.5128 66.821C42.2587 65.8744 42.6757 64.9436 43.6696 64.6768C44.6634 64.4101 45.4904 65.0072 45.7444 65.9537C45.9984 66.9002 45.5833 67.8378 44.5894 68.1046ZM44.4679 67.6516C45.1642 67.4647 45.3899 66.7663 45.2103 66.097C45.0325 65.4345 44.4875 64.9429 43.7911 65.1298C43.0948 65.3167 42.8623 66.0169 43.0401 66.6794C43.2197 67.3487 43.7715 67.8385 44.4679 67.6516ZM48.6773 68.3411C48.1229 68.4899 47.7153 68.4833 47.2283 68.2081L47.3836 67.7606C47.7411 68.0125 48.0983 68.0471 48.5648 67.9219C49.1057 67.7768 49.542 67.377 49.3496 66.6604L49.2245 66.1939C49.0767 66.5887 48.745 66.9459 48.2852 67.0692C47.4334 67.2978 46.6611 66.8238 46.3781 65.7691C46.0969 64.7212 46.5176 63.9125 47.3763 63.6821C47.8157 63.5642 48.2659 63.6753 48.6257 63.9628L48.4933 63.4693L49.0003 63.3332L49.8513 66.504C50.1416 67.5857 49.4751 68.127 48.6773 68.3411ZM48.2872 66.5904C48.6928 66.4815 49.0178 66.1261 49.1174 65.795L48.7346 64.3685C48.4826 64.1317 48.0252 63.9935 47.6195 64.1024C46.9637 64.2784 46.7113 64.9042 46.9054 65.6276C47.0978 66.3443 47.6314 66.7664 48.2872 66.5904ZM52.3406 66.0244C51.3467 66.2911 50.5179 65.6873 50.2639 64.7408C50.0099 63.7943 50.4268 62.8634 51.4207 62.5967C52.4145 62.33 53.2415 62.927 53.4955 63.8735C53.7495 64.8201 53.3344 65.7577 52.3406 66.0244ZM52.219 65.5714C52.9154 65.3846 53.1411 64.6862 52.9614 64.0169C52.7836 63.3543 52.2386 62.8628 51.5422 63.0497C50.8459 63.2366 50.6134 63.9367 50.7912 64.5993C50.9708 65.2686 51.5226 65.7583 52.219 65.5714Z" fill="#003ED0"/>
<rect x="89.9309" y="144.941" width="65.8387" height="21.5678" rx="1.53932" transform="rotate(-15 89.9309 144.941)" fill="#6D95D0"/>
<rect x="63.7834" y="47.3555" width="65.8387" height="9.0812" rx="1.53932" transform="rotate(-15 63.7834 47.3555)" fill="#97B9EC"/>
<rect x="69.0715" y="67.0918" width="65.8387" height="9.0812" rx="1.53932" transform="rotate(-15 69.0715 67.0918)" fill="#97B9EC"/>
<rect x="40.3691" y="95.9365" width="101.028" height="9.0812" rx="1.53932" transform="rotate(-15 40.3691 95.9365)" fill="#97B9EC"/>
<rect x="45.658" y="115.673" width="101.028" height="9.0812" rx="1.53932" transform="rotate(-15 45.658 115.673)" fill="#8BB1EB"/>
<rect x="50.6521" y="134.313" width="101.028" height="9.0812" rx="1.53932" transform="rotate(-15 50.6521 134.313)" fill="#7F9FCF"/>
<rect x="55.9414" y="154.049" width="28.3787" height="21.5678" rx="1.53932" transform="rotate(-15 55.9414 154.049)" fill="#6D95D0"/>
</g>
<defs>
<filter id="filter0_d_106_596" x="-9.72748e-05" y="-9.72748e-05" width="186.924" height="210.201" filterUnits="userSpaceOnUse" color-interpolation-filters="sRGB">
<feFlood flood-opacity="0" result="BackgroundImageFix"/>
<feColorMatrix in="SourceAlpha" type="matrix" values="0 0 0 0 0 0 0 0 0 0 0 0 0 0 0 0 0 0 127 0" result="hardAlpha"/>
<feOffset dy="4"/>
<feGaussianBlur stdDeviation="8.45"/>
<feComposite in2="hardAlpha" operator="out"/>
<feColorMatrix type="matrix" values="0 0 0 0 0 0 0 0 0 0 0 0 0 0 0 0 0 0 0.16 0"/>
<feBlend mode="normal" in2="BackgroundImageFix" result="effect1_dropShadow_106_596"/>
<feBlend mode="normal" in="SourceGraphic" in2="effect1_dropShadow_106_596" result="shape"/>
</filter>
</defs>
</svg>
