<svg width="25" height="25" viewBox="0 0 25 25" fill="none" xmlns="http://www.w3.org/2000/svg">
<path d="M20.5469 19.421C20.6373 19.4202 20.7266 19.4016 20.8097 19.3662C20.8928 19.3308 20.9681 19.2794 21.0313 19.2148C21.0945 19.1502 21.1443 19.0738 21.1778 18.9899C21.2114 18.9061 21.2281 18.8164 21.2269 18.726C21.173 14.5325 21.0941 10.339 20.9903 6.14544V6.12148C20.9891 6.06261 20.9763 6.00455 20.9526 5.95065C20.9289 5.89674 20.8948 5.84807 20.8522 5.80741C20.8096 5.76676 20.7593 5.73494 20.7044 5.71379C20.6494 5.69263 20.5908 5.68256 20.532 5.68416L17.0993 5.77701C17.0993 4.78255 17.1172 3.78508 17.1172 2.78163V2.75467C17.1133 2.55181 17.0291 2.35879 16.8831 2.21787C16.7372 2.07695 16.5413 1.99962 16.3384 2.00283C15.9251 2.00283 15.6076 1.98785 15.0834 2.02679C14.6012 2.07862 14.1318 2.21447 13.6965 2.42818C13.0439 2.74595 12.4888 3.2334 12.0893 3.83945C11.6899 4.4455 11.4607 5.14784 11.426 5.87286C11.411 6.23531 11.426 6.51088 11.426 6.79844C11.3316 6.69331 11.2316 6.59332 11.1265 6.4989C10.4139 5.91764 9.51779 5.60869 8.59837 5.62724L3.75783 5.54337C3.60251 5.54328 3.45323 5.60351 3.34146 5.71136C3.2297 5.81921 3.16419 5.96626 3.15876 6.12148V6.14544C3.07688 10.339 3.02396 14.5325 3 18.726C2.99999 18.926 3.07901 19.1179 3.21984 19.2598C3.36067 19.4018 3.55189 19.4823 3.75184 19.4839L8.47855 19.5019H8.77809H9.00874C9.15819 19.5171 9.30635 19.5431 9.45205 19.5797C9.74384 19.6592 10.0195 19.789 10.2668 19.9631C10.7631 20.3193 11.1216 20.8355 11.2822 21.4249C11.3259 21.59 11.4231 21.736 11.5586 21.8401C11.6941 21.9442 11.8602 22.0004 12.0311 22H12.2737C12.4419 21.9994 12.6054 21.9438 12.739 21.8416C12.8726 21.7393 12.969 21.5961 13.0136 21.4339C13.168 20.84 13.5251 20.3187 14.023 19.9601C14.2692 19.7821 14.5451 19.6492 14.8377 19.5677C14.9853 19.5292 15.1355 19.5011 15.2871 19.4839H15.5177H15.8172L20.538 19.433L20.5469 19.421ZM12.8608 7.08899V6.48991C12.8608 6.29222 12.8608 6.08853 12.8788 5.95074C12.9284 5.33882 13.1913 4.76373 13.6216 4.3258C14.0518 3.88787 14.6222 3.61487 15.2331 3.55444C15.32 3.55444 15.4338 3.55444 15.5566 3.55444C15.5566 7.29068 15.6046 11.0259 15.7004 14.7602H15.4368C15.09 14.7737 14.7466 14.8331 14.4154 14.9369C13.7587 15.1507 13.1712 15.5365 12.714 16.0542C12.6751 16.0961 12.6451 16.144 12.6092 16.186C12.6931 13.9394 12.7649 11.6929 12.8129 9.43737L12.8608 7.08899ZM11.1624 18.7051C10.766 18.4217 10.3215 18.2126 9.85044 18.088C9.61555 18.027 9.37615 17.985 9.13454 17.9622H8.77509H8.47556L4.50368 17.9772C4.47772 14.233 4.43079 10.4887 4.3629 6.74452L8.63731 6.65466C9.35196 6.60619 10.0599 6.8191 10.6292 7.25374C10.9738 7.52688 11.254 7.87255 11.45 8.26617L11.4739 9.48529C11.5398 12.4028 11.6337 15.3193 11.7555 18.2348C11.734 18.4337 11.7269 18.6339 11.7345 18.8339L11.7525 19.2383C11.5729 19.0425 11.3753 18.864 11.1624 18.7051ZM15.5147 17.9772H15.1583C14.9178 17.9979 14.6794 18.038 14.4454 18.097C13.9777 18.217 13.5353 18.4199 13.1394 18.6961C12.9221 18.8508 12.7214 19.0275 12.5403 19.2233L12.5613 18.75C12.5712 18.4975 12.6114 18.2471 12.6811 18.0042C12.8234 17.5246 13.0888 17.0906 13.4509 16.7453C13.813 16.4001 14.2591 16.1556 14.7449 16.0362C14.9811 15.9789 15.2238 15.9527 15.4668 15.9583L16.3384 15.9793C16.4171 15.9817 16.4955 15.9685 16.5691 15.9406C16.6427 15.9127 16.7101 15.8706 16.7674 15.8166C16.8247 15.7626 16.8708 15.6979 16.9031 15.6261C16.9353 15.5543 16.9532 15.4769 16.9555 15.3982V15.3652C17.0334 12.4118 17.0723 9.45834 17.0933 6.50489L20.0647 6.58576C19.9728 10.4039 19.9009 14.216 19.849 18.0221L15.8112 17.9802L15.5147 17.9772Z" fill="white"/>
</svg>
