<svg width="25" height="25" viewBox="0 0 25 25" fill="none" xmlns="http://www.w3.org/2000/svg">
<path d="M19.3441 8.38506C19.3159 8.36489 19.1868 8.4536 19.0538 8.58667C18.9207 8.71973 18.832 8.84675 18.8521 8.87497V8.88505C19.179 9.40482 19.5379 9.90376 19.9267 10.379C18.3339 10.1482 16.7109 10.2408 15.1546 10.6512C15.1223 10.6512 15.0981 10.8125 15.0981 11C15.0981 11.1875 15.1223 11.3407 15.1546 11.3467C16.7057 11.755 18.323 11.8476 19.9106 11.6189C19.5225 12.097 19.1643 12.5986 18.838 13.1209C18.8219 13.1532 18.9126 13.2822 19.0396 13.4173C19.1667 13.5524 19.3038 13.6411 19.336 13.6189C20.294 13.0253 21.1802 12.323 21.9771 11.5262C22.0466 11.4569 22.1017 11.3745 22.1394 11.2839C22.177 11.1933 22.1964 11.0961 22.1964 10.9979C22.1964 10.8998 22.177 10.8026 22.1394 10.712C22.1017 10.6213 22.0466 10.539 21.9771 10.4697C21.183 9.6753 20.2995 8.97573 19.3441 8.38506Z" fill="white"/>
<path d="M15.837 7.78029C15.9169 7.78886 15.9973 7.768 16.063 7.72161C16.1286 7.67523 16.1752 7.60649 16.1938 7.52828V7.48997L16.2866 5.79442L16.3067 5.37305C16.3146 5.19093 16.2983 5.00857 16.2583 4.83072C16.1773 4.46516 16.0006 4.12771 15.7462 3.8529C15.4865 3.57431 15.1574 3.36975 14.7926 3.26017C14.608 3.20398 14.4169 3.17213 14.2241 3.16541L13.7987 3.14928L12.1031 3.09485C9.84106 3.03033 7.59511 2.99807 5.3169 3.00009C5.00768 3.00402 4.70228 3.06904 4.41827 3.19139C4.13426 3.31374 3.87723 3.49102 3.66195 3.71304C3.44668 3.93505 3.27741 4.19743 3.16388 4.48508C3.05034 4.77273 2.99478 5.07999 3.00039 5.38918L3.01248 6.23595L3.08708 9.62302C3.15428 11.8824 3.25374 14.1411 3.38546 16.3992C3.38902 16.4336 3.39984 16.4668 3.41722 16.4967C3.4346 16.5266 3.45814 16.5525 3.48627 16.5726C3.45524 16.6052 3.43132 16.6439 3.41605 16.6862C3.40078 16.7286 3.39448 16.7736 3.39756 16.8185V16.873C3.44606 17.3902 3.62019 17.8878 3.90479 18.3225C4.1894 18.7571 4.57588 19.1156 5.03061 19.3669L7.46204 20.5766L12.3148 22.9314C12.4076 22.975 12.5087 22.9984 12.6112 22.9999C12.7932 23.0026 12.9688 22.933 13.0996 22.8064C13.2304 22.6798 13.3056 22.5065 13.3088 22.3245V22.2963C13.3289 21.1169 13.3249 19.9395 13.333 18.7621C13.6475 18.8246 13.966 18.877 14.3148 18.9112C14.6065 18.9208 14.8971 18.8712 15.1691 18.7655C15.4411 18.6598 15.6889 18.5001 15.8976 18.2961C16.1063 18.0922 16.2716 17.8481 16.3835 17.5785C16.4953 17.309 16.5515 17.0196 16.5487 16.7278C16.5366 16.4133 16.5083 16.1794 16.4761 15.8992C16.408 15.3562 16.3084 14.8177 16.1777 14.2863C16.1777 14.254 16.0164 14.2278 15.8289 14.2278C15.6414 14.2278 15.4882 14.254 15.4821 14.2863V14.2964C15.3504 14.8275 15.2508 15.3661 15.1838 15.9093C15.1575 16.1714 15.1313 16.4294 15.1071 16.6855C15.0854 16.8283 15.0354 16.9654 14.96 17.0887C14.883 17.2183 14.7806 17.3309 14.659 17.42C14.5374 17.509 14.3991 17.5726 14.2523 17.6068C13.964 17.6471 13.6475 17.6996 13.333 17.76C13.3471 14.4314 13.333 11.1069 13.2543 7.77626V7.75811C13.2512 7.63851 13.2139 7.52231 13.1467 7.42332C13.0795 7.32433 12.9853 7.2467 12.8753 7.19965C10.7113 6.26955 8.53999 5.36566 6.36124 4.48798C8.29066 4.48798 10.2201 4.45371 12.1475 4.39927L13.841 4.34282L14.2442 4.32871C14.3357 4.32642 14.4271 4.33522 14.5164 4.35492C14.6989 4.39885 14.8669 4.48912 15.0043 4.61701C15.1469 4.7493 15.2519 4.91692 15.3088 5.10289C15.3396 5.20224 15.3565 5.30536 15.3592 5.40934L15.3813 5.83474L15.4721 7.52626C15.4908 7.60616 15.5385 7.6763 15.6058 7.7232C15.6732 7.77009 15.7555 7.79043 15.837 7.78029ZM5.43585 18.5141C5.08824 18.3467 4.78604 18.0981 4.55478 17.7893C4.32353 17.4805 4.17002 17.1206 4.10723 16.7399C4.08914 16.6699 4.04793 16.6081 3.9903 16.5645C4.01541 16.5446 4.03634 16.5199 4.05191 16.4919C4.06748 16.4638 4.07737 16.433 4.08102 16.4012V16.3609C4.21543 14.1028 4.31422 11.8448 4.37739 9.58673L4.454 6.19764V5.35692C4.45939 5.20317 4.5038 5.05332 4.58303 4.92144C4.65 4.81417 4.73941 4.72269 4.84513 4.6533C7.19995 5.85625 9.56821 7.03231 11.9499 8.1815C11.8531 12.5323 11.8363 16.8844 11.8995 21.2378L7.90962 19.5383L5.43585 18.5141Z" fill="white"/>
</svg>
