<svg width="18" height="17" viewBox="0 0 18 17" fill="none" xmlns="http://www.w3.org/2000/svg">
<path fill-rule="evenodd" clip-rule="evenodd" d="M0.666626 8.49996C0.666626 3.89759 4.39759 0.166626 8.99996 0.166626C11.2101 0.166626 13.3297 1.0446 14.8925 2.6074C16.4553 4.17021 17.3333 6.28982 17.3333 8.49996C17.3333 13.1023 13.6023 16.8333 8.99996 16.8333C4.39759 16.8333 0.666626 13.1023 0.666626 8.49996ZM7.47496 12.0666L12.3333 9.03329C12.5151 8.91686 12.6251 8.71585 12.6251 8.49996C12.6251 8.28407 12.5151 8.08306 12.3333 7.96663L7.45829 4.93329C7.26629 4.81223 7.02374 4.80478 6.82466 4.91384C6.62559 5.0229 6.5013 5.23131 6.49996 5.45829V11.5416C6.49727 11.7741 6.62388 11.9889 6.82861 12.0991C7.03333 12.2094 7.28233 12.1969 7.47496 12.0666Z" fill="white"/>
</svg>
