<svg width="11" height="10" viewBox="0 0 11 10" fill="none" xmlns="http://www.w3.org/2000/svg">
<path d="M10.242 9.31344L8.64267 7.71412C9.42319 6.79031 9.81652 5.60061 9.74049 4.39361C9.66446 3.1866 9.12494 2.05567 8.23466 1.23711C7.34439 0.418542 6.17223 -0.0243272 4.9631 0.00103193C3.75397 0.0263911 2.60141 0.518017 1.74624 1.37319C0.891064 2.22836 0.399438 3.38092 0.374079 4.59005C0.34872 5.79918 0.791589 6.97134 1.61015 7.86161C2.42872 8.75189 3.55965 9.29141 4.76666 9.36744C5.97366 9.44347 7.16336 9.05014 8.08717 8.26962L9.68649 9.86894C9.76059 9.94051 9.85982 9.9801 9.96283 9.97921C10.0658 9.97831 10.1644 9.937 10.2372 9.86416C10.31 9.79132 10.3514 9.69279 10.3523 9.58978C10.3532 9.48677 10.3136 9.38754 10.242 9.31344ZM5.07121 8.59098C4.30128 8.59098 3.54864 8.36267 2.90847 7.93492C2.2683 7.50717 1.76935 6.8992 1.47471 6.18788C1.18007 5.47656 1.10298 4.69384 1.25318 3.93871C1.40339 3.18357 1.77414 2.48994 2.31856 1.94552C2.86299 1.4011 3.55662 1.03034 4.31175 0.880136C5.06689 0.72993 5.8496 0.807021 6.56092 1.10166C7.27224 1.3963 7.88022 1.89525 8.30797 2.53542C8.73572 3.17559 8.96403 3.92823 8.96403 4.69816C8.96288 5.73025 8.55238 6.71974 7.82258 7.44953C7.09278 8.17933 6.1033 8.58984 5.07121 8.59098Z" fill="#2B2B2B"/>
</svg>
