<svg width="25" height="25" viewBox="0 0 25 25" fill="none" xmlns="http://www.w3.org/2000/svg">
<path d="M11.8907 20.9963C13.6584 21.0446 15.4071 20.621 16.9568 19.7692C17.9723 19.1562 18.7988 18.2747 19.3451 17.2218C19.8914 16.1689 20.1363 14.9856 20.0528 13.8024C19.963 12.0629 19.2047 10.4254 17.9363 9.23164C17.5274 8.83105 17.0951 8.45512 16.6416 8.10583L16.4052 7.91445L16.6641 7.77935C17.0126 7.62531 17.31 7.3751 17.5213 7.05805C17.7327 6.74101 17.8493 6.37027 17.8574 5.98932C17.8435 5.68537 17.7681 5.3874 17.6358 5.1134C17.5035 4.8394 17.317 4.59507 17.0876 4.39515C16.8582 4.19523 16.5907 4.04388 16.3012 3.95023C16.0117 3.85659 15.7062 3.82259 15.4032 3.85029C15.1144 3.85032 14.8282 3.90376 14.5588 4.00791L14.3337 4.10923L14.2211 4.17678L14.0973 4.04168C13.9699 3.87436 13.8266 3.71978 13.6695 3.5801C13.2557 3.2067 12.7182 3 12.1609 3C11.6036 3 11.066 3.2067 10.6523 3.5801C10.4928 3.71396 10.3526 3.8693 10.2358 4.04168L10.1457 4.18804L9.98808 4.10923L9.77418 4.00791C9.50458 3.90474 9.21849 3.85134 8.92983 3.85029C8.62951 3.82099 8.32637 3.85234 8.03841 3.94249C7.75045 4.03264 7.48355 4.17976 7.25356 4.37509C7.02357 4.57042 6.83519 4.80999 6.69961 5.07955C6.56403 5.34912 6.48402 5.64319 6.46432 5.94429C6.47044 6.26474 6.55464 6.57885 6.70962 6.85939C6.8646 7.13993 7.08569 7.37843 7.3537 7.55419L7.56761 7.7118L7.3537 7.86941C6.86858 8.23852 6.41312 8.64505 5.99148 9.08528C4.69959 10.3216 3.94378 12.0151 3.88623 13.8024C3.88623 18.1705 7.02722 20.9963 11.8907 20.9963ZM6.82458 9.87334C7.21238 9.46319 7.63418 9.08658 8.08548 8.74754L8.50202 8.46609L8.64838 8.36477C8.78511 8.28725 8.89819 8.17403 8.97553 8.0372C9.05287 7.90037 9.09155 7.74508 9.08744 7.58796C9.07812 7.46158 9.03847 7.33931 8.97183 7.23152C8.9052 7.12373 8.81355 7.0336 8.70467 6.96877L8.41196 6.81116C8.20266 6.77307 8.01145 6.66788 7.86724 6.51148C7.72303 6.35508 7.63366 6.15599 7.61264 5.94429C7.61264 5.49397 8.10799 4.99861 8.92983 4.99861C9.07928 5.00298 9.22725 5.02954 9.36889 5.07742H9.57154C9.81502 5.2007 10.0915 5.24316 10.3607 5.19862C10.63 5.15408 10.878 5.02487 11.0689 4.82974V4.7622C11.1661 4.64185 11.2798 4.53574 11.4066 4.44697C11.5043 4.3455 11.6214 4.26478 11.751 4.20965C11.8806 4.15451 12.02 4.12609 12.1609 4.12609C12.3017 4.12609 12.4411 4.15451 12.5707 4.20965C12.7003 4.26478 12.8175 4.3455 12.9152 4.44697C13.0303 4.54627 13.1325 4.65975 13.2191 4.78471C13.4026 4.9967 13.6495 5.14401 13.9232 5.20483C14.1969 5.26565 14.483 5.23677 14.739 5.12245H14.9304C15.0715 5.07263 15.2198 5.04601 15.3694 5.04365C16.18 5.04365 16.6754 5.539 16.6754 5.98932C16.6754 6.43964 16.3489 6.72109 15.831 6.87871H15.7522C15.6613 6.92018 15.5672 6.95407 15.4707 6.98003C15.3062 7.01944 15.1562 7.10499 15.0386 7.22664C14.9209 7.34828 14.8404 7.50097 14.8065 7.66677C14.79 7.82643 14.8194 7.98748 14.8912 8.13104C14.963 8.2746 15.0742 8.39473 15.2118 8.47735L15.3694 8.58993L15.7972 8.8939C16.2514 9.23374 16.6768 9.61027 17.0694 10.0197C18.1373 10.9948 18.7834 12.3476 18.8707 13.7911C18.8707 18.7897 15.0542 19.8367 11.8569 19.8367C8.65964 19.8367 5.03455 18.2606 5.03455 13.8024C5.09731 12.3097 5.73944 10.9003 6.82458 9.87334Z" fill="white"/>
<path d="M10.3457 13.2981C10.4835 13.4639 10.645 13.6065 10.8246 13.7209C11.1395 13.9138 11.4821 14.0529 11.8393 14.133C12.0854 14.181 12.3233 14.2664 12.5455 14.3867C12.7047 14.4678 12.8308 14.6058 12.9006 14.7756C12.9555 14.9493 12.9555 15.1366 12.9006 15.3103C12.8457 15.4812 12.7397 15.6293 12.5983 15.7331C12.4459 15.844 12.2708 15.9163 12.0869 15.9444C11.9149 15.9761 11.7384 15.9689 11.5694 15.9233C11.2808 15.8386 11.0287 15.6537 10.855 15.3991C10.8347 15.3695 10.7008 15.3991 10.5608 15.4604C10.4208 15.5217 10.3579 15.5957 10.3579 15.6422C10.4332 15.8746 10.5537 16.0885 10.7118 16.2703C10.87 16.4521 11.0624 16.5981 11.2771 16.699C11.3177 16.718 11.3604 16.7349 11.405 16.7497C11.3964 16.8903 11.4176 17.0312 11.4671 17.1623C11.5165 17.2934 11.593 17.4116 11.6911 17.5085C11.7885 17.5144 11.886 17.5144 11.9834 17.5085C12.0672 17.5138 12.1512 17.5138 12.235 17.5085C12.3257 17.421 12.3979 17.3147 12.4468 17.1964C12.4957 17.0781 12.5204 16.9504 12.5191 16.8216C12.7295 16.7787 12.9313 16.6986 13.1157 16.5849C13.4524 16.3793 13.7143 16.0634 13.8605 15.6866C13.9379 15.4965 13.9845 15.2943 13.9985 15.0884C14.0153 14.8595 13.988 14.6294 13.9183 14.4117C13.8486 14.1939 13.7379 13.9928 13.5926 13.8202C13.4549 13.6544 13.2933 13.5118 13.1137 13.3975C12.7988 13.2045 12.4562 13.0654 12.099 12.9853C11.8536 12.9323 11.617 12.8418 11.3969 12.7169C11.2383 12.6354 11.113 12.4974 11.0438 12.328C10.9887 12.155 10.9887 11.9682 11.0438 11.7953C11.0987 11.6244 11.2047 11.4763 11.3461 11.3726C11.4978 11.2618 11.6722 11.1894 11.8555 11.1612C12.0262 11.1301 12.2012 11.1373 12.3689 11.1823C12.656 11.2667 12.9067 11.451 13.0792 11.7044C13.0995 11.734 13.2355 11.7044 13.3796 11.641C13.5094 11.5818 13.5967 11.5015 13.5825 11.4529C13.5061 11.2201 13.3845 11.0061 13.2253 10.8243C13.0661 10.6425 12.8727 10.4967 12.6571 10.3961C12.6165 10.377 12.5719 10.3601 12.5272 10.3432C12.5496 9.96699 12.4582 9.56962 12.2512 9.38151C12.1519 9.3747 12.0523 9.3747 11.9529 9.38151C11.8664 9.37527 11.7796 9.37527 11.6932 9.38151C11.5911 9.50314 11.5138 9.64511 11.466 9.79881C11.4182 9.9525 11.4009 10.1147 11.4151 10.2756C11.2004 10.3178 10.9944 10.3986 10.8063 10.5144C10.4697 10.725 10.2098 11.0462 10.0677 11.4275C9.99343 11.6196 9.95023 11.8232 9.93981 12.0299C9.92314 12.2588 9.95045 12.4888 10.0201 12.7066C10.0898 12.9243 10.2005 13.1254 10.3457 13.2981Z" fill="white"/>
</svg>
