<svg width="9" height="9" viewBox="0 0 9 9" fill="none" xmlns="http://www.w3.org/2000/svg">
<path d="M7.59375 5.625H7.03125C6.95666 5.625 6.88512 5.65463 6.83238 5.70738C6.77963 5.76012 6.75 5.83166 6.75 5.90625V7.875H1.125V2.25H3.65625C3.73084 2.25 3.80238 2.22037 3.85512 2.16762C3.90787 2.11488 3.9375 2.04334 3.9375 1.96875V1.40625C3.9375 1.33166 3.90787 1.26012 3.85512 1.20738C3.80238 1.15463 3.73084 1.125 3.65625 1.125H0.84375C0.619974 1.125 0.405362 1.21389 0.247129 1.37213C0.0888948 1.53036 0 1.74497 0 1.96875L0 8.15625C0 8.38003 0.0888948 8.59464 0.247129 8.75287C0.405362 8.91111 0.619974 9 0.84375 9H7.03125C7.25503 9 7.46964 8.91111 7.62787 8.75287C7.78611 8.59464 7.875 8.38003 7.875 8.15625V5.90625C7.875 5.83166 7.84537 5.76012 7.79262 5.70738C7.73988 5.65463 7.66834 5.625 7.59375 5.625ZM8.57812 0H6.32812C5.95248 0 5.76475 0.455449 6.0293 0.720703L6.65736 1.34877L2.37305 5.6315C2.33372 5.6707 2.30251 5.71727 2.28122 5.76855C2.25992 5.81983 2.24896 5.87481 2.24896 5.93033C2.24896 5.98586 2.25992 6.04083 2.28122 6.09211C2.30251 6.14339 2.33372 6.18997 2.37305 6.22916L2.77154 6.62695C2.81074 6.66628 2.85731 6.69749 2.90859 6.71878C2.95987 6.74008 3.01485 6.75104 3.07037 6.75104C3.1259 6.75104 3.18087 6.74008 3.23215 6.71878C3.28343 6.69749 3.33001 6.66628 3.3692 6.62695L7.65141 2.34352L8.2793 2.9707C8.54297 3.23438 9 3.0498 9 2.67188V0.421875C9 0.309987 8.95555 0.202681 8.87644 0.123564C8.79732 0.0444474 8.69001 0 8.57812 0V0Z" fill="black"/>
</svg>
