<svg width="24" height="24" viewBox="0 0 24 24" fill="none" xmlns="http://www.w3.org/2000/svg">
<path d="M10.4 3C10.1096 3.0144 9.86182 3.25542 9.8125 3.4875L9.4875 5.26876C9.32956 5.32802 9.17718 5.39288 9.025 5.4625L7.525 4.43126C7.2955 4.27612 6.95736 4.30938 6.7625 4.50626L4.50001 6.76876C4.30503 6.96516 4.27455 7.30314 4.43125 7.53126L5.4625 9.01876C5.39362 9.16922 5.33364 9.32522 5.275 9.48126L3.49377 9.80626C3.21855 9.8558 2.99851 10.1204 3.00001 10.4V13.6C3.00201 13.8775 3.22059 14.1383 3.49377 14.1875L5.275 14.5125C5.33518 14.6697 5.39894 14.825 5.46876 14.975L4.43125 16.4625C4.27455 16.6906 4.30503 17.0286 4.50001 17.225L6.7625 19.4875C6.95808 19.6875 7.3007 19.7209 7.53124 19.5625L9.025 18.5312C9.17786 18.6006 9.32974 18.6663 9.4875 18.725L9.8125 20.5063C9.86166 20.7794 10.1224 20.9986 10.4 21H13.6C13.8775 20.998 14.1383 20.7794 14.1875 20.5063L14.5125 18.725C14.6704 18.6658 14.8228 18.6009 14.975 18.5312L16.4625 19.5625C16.693 19.7209 17.0357 19.6875 17.2312 19.4875L19.4937 17.225C19.6887 17.0286 19.7192 16.6906 19.5625 16.4625L18.5312 14.975C18.5995 14.8267 18.6602 14.673 18.7188 14.5187L20.5062 14.1875C20.7794 14.1383 20.9986 13.8775 21 13.6V10.4C21.002 10.1204 20.7814 9.8558 20.5062 9.80626L18.725 9.48126C18.6674 9.32658 18.5992 9.175 18.5312 9.025L19.5625 7.53126C19.7192 7.30314 19.6887 6.96516 19.4937 6.76876L17.2312 4.50626C17.0341 4.30818 16.6916 4.27756 16.4625 4.4375L14.975 5.4625C14.8228 5.39286 14.6704 5.32794 14.5125 5.26876L14.1875 3.4875C14.1358 3.21658 13.8758 3.00088 13.6 3H10.4ZM10.9 4.2H13.1L13.3938 5.80626C13.4328 6.01816 13.5949 6.20272 13.8 6.26876C14.1372 6.37476 14.4652 6.5132 14.775 6.675C14.9674 6.7757 15.2149 6.7607 15.3938 6.6375L16.7375 5.70626L18.2938 7.2625L17.3625 8.6125C17.2393 8.7913 17.2243 9.03888 17.325 9.23126C17.4841 9.53672 17.6126 9.85608 17.7188 10.1938C17.7838 10.4027 17.9719 10.5683 18.1875 10.6063L19.8 10.9V13.1L18.1875 13.3937C17.9719 13.4317 17.7838 13.5973 17.7188 13.8062C17.6135 14.1401 17.4808 14.4586 17.3188 14.7687C17.218 14.9611 17.2331 15.2087 17.3562 15.3875L18.2938 16.7312L16.7375 18.2875L15.3938 17.3625C15.2161 17.2373 14.9685 17.2199 14.775 17.3188C14.4652 17.4805 14.1372 17.619 13.8 17.725C13.5949 17.791 13.4328 17.9756 13.3938 18.1875L13.1 19.8H10.9L10.6062 18.1875C10.5672 17.9756 10.4051 17.791 10.2 17.725C9.8601 17.6181 9.52632 17.4858 9.21876 17.325C9.02638 17.2243 8.7788 17.2393 8.6 17.3625L7.25624 18.2875L5.70624 16.7375L6.64376 15.3937C6.7693 15.2136 6.78436 14.9626 6.68124 14.7687C6.51624 14.4532 6.37958 14.1327 6.275 13.8C6.2099 13.591 6.02182 13.4255 5.80624 13.3875L4.20001 13.0937V10.9L5.80624 10.6063C6.02182 10.5683 6.2099 10.4027 6.275 10.1938C6.38098 9.85656 6.5132 9.5348 6.675 9.225C6.7757 9.03264 6.76068 8.78506 6.6375 8.60626L5.7 7.2625L7.25624 5.70626L8.6125 6.6375C8.78996 6.75836 9.0341 6.7733 9.225 6.675C9.5339 6.51388 9.86452 6.37422 10.2 6.26876C10.4051 6.20272 10.5672 6.01816 10.6062 5.80626L10.9 4.2ZM12 7.8C9.68752 7.8 7.8 9.6875 7.8 12C7.8 14.3125 9.68752 16.2 12 16.2C14.3125 16.2 16.2 14.3125 16.2 12C16.2 9.6875 14.3125 7.8 12 7.8ZM12 9C13.664 9 15 10.336 15 12C15 13.6639 13.664 15 12 15C10.336 15 9 13.6639 9 12C9 10.336 10.336 9 12 9Z" fill="#2B2B2B"/>
<circle cx="12" cy="12" r="3" fill="#2B2B2B"/>
<circle cx="12" cy="12" r="4" stroke="#E9ECEE" stroke-width="2"/>
</svg>
